<?xml version="1.0" encoding="utf-8" standalone="no"?>
<!DOCTYPE svg PUBLIC "-//W3C//DTD SVG 1.1//EN"
  "http://www.w3.org/Graphics/SVG/1.1/DTD/svg11.dtd">
<svg xmlns:xlink="http://www.w3.org/1999/xlink" width="864pt" height="360pt" viewBox="0 0 864 360" xmlns="http://www.w3.org/2000/svg" version="1.1">
 <metadata>
  <rdf:RDF xmlns:dc="http://purl.org/dc/elements/1.1/" xmlns:cc="http://creativecommons.org/ns#" xmlns:rdf="http://www.w3.org/1999/02/22-rdf-syntax-ns#">
   <cc:Work>
    <dc:type rdf:resource="http://purl.org/dc/dcmitype/StillImage"/>
    <dc:date>2023-04-30T16:30:23.877635</dc:date>
    <dc:format>image/svg+xml</dc:format>
    <dc:creator>
     <cc:Agent>
      <dc:title>Matplotlib v3.7.1, https://matplotlib.org/</dc:title>
     </cc:Agent>
    </dc:creator>
   </cc:Work>
  </rdf:RDF>
 </metadata>
 <defs>
  <style type="text/css">*{stroke-linejoin: round; stroke-linecap: butt}</style>
 </defs>
 <g id="figure_1">
  <g id="patch_1">
   <path d="M 0 360 
L 864 360 
L 864 0 
L 0 0 
z
" style="fill: #ffffff"/>
  </g>
  <g id="axes_1">
   <g id="patch_2">
    <path d="M 75.932857 301.48 
L 828.36 301.48 
L 828.36 38.4 
L 75.932857 38.4 
z
" style="fill: #ffffff"/>
   </g>
   <g id="PathCollection_1">
    <defs>
     <path id="m4eacefa758" d="M 0 3.162278 
C 0.838646 3.162278 1.643056 2.82908 2.236068 2.236068 
C 2.82908 1.643056 3.162278 0.838646 3.162278 0 
C 3.162278 -0.838646 2.82908 -1.643056 2.236068 -2.236068 
C 1.643056 -2.82908 0.838646 -3.162278 0 -3.162278 
C -0.838646 -3.162278 -1.643056 -2.82908 -2.236068 -2.236068 
C -2.82908 -1.643056 -3.162278 -0.838646 -3.162278 0 
C -3.162278 0.838646 -2.82908 1.643056 -2.236068 2.236068 
C -1.643056 2.82908 -0.838646 3.162278 0 3.162278 
z
" style="stroke: #4477aa"/>
    </defs>
    <g clip-path="url(#p33f9da2e44)">
     <use xlink:href="#m4eacefa758" x="99.540259" y="92.838399" style="fill: #4477aa; stroke: #4477aa"/>
     <use xlink:href="#m4eacefa758" x="120.702272" y="128.787041" style="fill: #4477aa; stroke: #4477aa"/>
     <use xlink:href="#m4eacefa758" x="139.701058" y="160.456094" style="fill: #4477aa; stroke: #4477aa"/>
     <use xlink:href="#m4eacefa758" x="156.066348" y="189.854911" style="fill: #4477aa; stroke: #4477aa"/>
     <use xlink:href="#m4eacefa758" x="172.243532" y="197.414765" style="fill: #4477aa; stroke: #4477aa"/>
     <use xlink:href="#m4eacefa758" x="190.395836" y="201.188152" style="fill: #4477aa; stroke: #4477aa"/>
     <use xlink:href="#m4eacefa758" x="204.315738" y="203.321236" style="fill: #4477aa; stroke: #4477aa"/>
     <use xlink:href="#m4eacefa758" x="223.408577" y="202.354833" style="fill: #4477aa; stroke: #4477aa"/>
     <use xlink:href="#m4eacefa758" x="241.466829" y="203.548328" style="fill: #4477aa; stroke: #4477aa"/>
     <use xlink:href="#m4eacefa758" x="254.634304" y="204.973289" style="fill: #4477aa; stroke: #4477aa"/>
    </g>
   </g>
   <g id="PathCollection_2">
    <defs>
     <path id="mb505cb54a9" d="M -5 0 
L 5 0 
M 0 5 
L 0 -5 
" style="stroke: #4477aa; stroke-width: 1.5"/>
    </defs>
    <g clip-path="url(#p33f9da2e44)">
     <use xlink:href="#mb505cb54a9" x="99.540259" y="78.571569" style="fill: #4477aa; stroke: #4477aa; stroke-width: 1.5"/>
     <use xlink:href="#mb505cb54a9" x="120.702272" y="101.962356" style="fill: #4477aa; stroke: #4477aa; stroke-width: 1.5"/>
     <use xlink:href="#mb505cb54a9" x="139.701058" y="130.89997" style="fill: #4477aa; stroke: #4477aa; stroke-width: 1.5"/>
     <use xlink:href="#mb505cb54a9" x="156.066348" y="161.737993" style="fill: #4477aa; stroke: #4477aa; stroke-width: 1.5"/>
     <use xlink:href="#mb505cb54a9" x="172.243532" y="175.287979" style="fill: #4477aa; stroke: #4477aa; stroke-width: 1.5"/>
     <use xlink:href="#mb505cb54a9" x="190.395836" y="175.858166" style="fill: #4477aa; stroke: #4477aa; stroke-width: 1.5"/>
     <use xlink:href="#mb505cb54a9" x="204.315738" y="177.066626" style="fill: #4477aa; stroke: #4477aa; stroke-width: 1.5"/>
     <use xlink:href="#mb505cb54a9" x="223.408577" y="176.4916" style="fill: #4477aa; stroke: #4477aa; stroke-width: 1.5"/>
     <use xlink:href="#mb505cb54a9" x="241.466829" y="176.262743" style="fill: #4477aa; stroke: #4477aa; stroke-width: 1.5"/>
     <use xlink:href="#mb505cb54a9" x="254.634304" y="175.313782" style="fill: #4477aa; stroke: #4477aa; stroke-width: 1.5"/>
    </g>
   </g>
   <g id="PathCollection_3">
    <defs>
     <path id="m13a3db8f5a" d="M 0 3.162278 
C 0.838646 3.162278 1.643056 2.82908 2.236068 2.236068 
C 2.82908 1.643056 3.162278 0.838646 3.162278 0 
C 3.162278 -0.838646 2.82908 -1.643056 2.236068 -2.236068 
C 1.643056 -2.82908 0.838646 -3.162278 0 -3.162278 
C -0.838646 -3.162278 -1.643056 -2.82908 -2.236068 -2.236068 
C -2.82908 -1.643056 -3.162278 -0.838646 -3.162278 0 
C -3.162278 0.838646 -2.82908 1.643056 -2.236068 2.236068 
C -1.643056 2.82908 -0.838646 3.162278 0 3.162278 
z
" style="stroke: #ee6677"/>
    </defs>
    <g clip-path="url(#p33f9da2e44)">
     <use xlink:href="#m13a3db8f5a" x="141.864286" y="138.544416" style="fill: #ee6677; stroke: #ee6677"/>
     <use xlink:href="#m13a3db8f5a" x="178.074842" y="180.971731" style="fill: #ee6677; stroke: #ee6677"/>
     <use xlink:href="#m13a3db8f5a" x="214.003238" y="204.315372" style="fill: #ee6677; stroke: #ee6677"/>
     <use xlink:href="#m13a3db8f5a" x="248.238673" y="214.575957" style="fill: #ee6677; stroke: #ee6677"/>
     <use xlink:href="#m13a3db8f5a" x="279.652506" y="224.535995" style="fill: #ee6677; stroke: #ee6677"/>
     <use xlink:href="#m13a3db8f5a" x="310.502019" y="236.968843" style="fill: #ee6677; stroke: #ee6677"/>
     <use xlink:href="#m13a3db8f5a" x="341.915852" y="249.104918" style="fill: #ee6677; stroke: #ee6677"/>
     <use xlink:href="#m13a3db8f5a" x="369.28539" y="253.211758" style="fill: #ee6677; stroke: #ee6677"/>
     <use xlink:href="#m13a3db8f5a" x="395.526286" y="256.569114" style="fill: #ee6677; stroke: #ee6677"/>
     <use xlink:href="#m13a3db8f5a" x="419.227741" y="256.0492" style="fill: #ee6677; stroke: #ee6677"/>
    </g>
   </g>
   <g id="PathCollection_4">
    <defs>
     <path id="m058506d88f" d="M -5 0 
L 5 0 
M 0 5 
L 0 -5 
" style="stroke: #ee6677; stroke-width: 1.5"/>
    </defs>
    <g clip-path="url(#p33f9da2e44)">
     <use xlink:href="#m058506d88f" x="141.864286" y="111.882007" style="fill: #ee6677; stroke: #ee6677; stroke-width: 1.5"/>
     <use xlink:href="#m058506d88f" x="178.074842" y="136.074366" style="fill: #ee6677; stroke: #ee6677; stroke-width: 1.5"/>
     <use xlink:href="#m058506d88f" x="214.003238" y="156.753211" style="fill: #ee6677; stroke: #ee6677; stroke-width: 1.5"/>
     <use xlink:href="#m058506d88f" x="248.238673" y="164.854699" style="fill: #ee6677; stroke: #ee6677; stroke-width: 1.5"/>
     <use xlink:href="#m058506d88f" x="279.652506" y="170.355999" style="fill: #ee6677; stroke: #ee6677; stroke-width: 1.5"/>
     <use xlink:href="#m058506d88f" x="310.502019" y="180.568861" style="fill: #ee6677; stroke: #ee6677; stroke-width: 1.5"/>
     <use xlink:href="#m058506d88f" x="341.915852" y="211.278655" style="fill: #ee6677; stroke: #ee6677; stroke-width: 1.5"/>
     <use xlink:href="#m058506d88f" x="369.28539" y="220.500601" style="fill: #ee6677; stroke: #ee6677; stroke-width: 1.5"/>
     <use xlink:href="#m058506d88f" x="395.526286" y="227.960383" style="fill: #ee6677; stroke: #ee6677; stroke-width: 1.5"/>
     <use xlink:href="#m058506d88f" x="419.227741" y="229.535952" style="fill: #ee6677; stroke: #ee6677; stroke-width: 1.5"/>
    </g>
   </g>
   <g id="PathCollection_5">
    <defs>
     <path id="m376e4469df" d="M 0 3.162278 
C 0.838646 3.162278 1.643056 2.82908 2.236068 2.236068 
C 2.82908 1.643056 3.162278 0.838646 3.162278 0 
C 3.162278 -0.838646 2.82908 -1.643056 2.236068 -2.236068 
C 1.643056 -2.82908 0.838646 -3.162278 0 -3.162278 
C -0.838646 -3.162278 -1.643056 -2.82908 -2.236068 -2.236068 
C -2.82908 -1.643056 -3.162278 -0.838646 -3.162278 0 
C -3.162278 0.838646 -2.82908 1.643056 -2.236068 2.236068 
C -1.643056 2.82908 -0.838646 3.162278 0 3.162278 
z
" style="stroke: #228833"/>
    </defs>
    <g clip-path="url(#p33f9da2e44)">
     <use xlink:href="#m376e4469df" x="217.201053" y="156.535438" style="fill: #228833; stroke: #228833"/>
     <use xlink:href="#m376e4469df" x="282.474108" y="205.729246" style="fill: #228833; stroke: #228833"/>
     <use xlink:href="#m376e4469df" x="337.307236" y="230.427478" style="fill: #228833; stroke: #228833"/>
     <use xlink:href="#m376e4469df" x="391.293883" y="239.652309" style="fill: #228833; stroke: #228833"/>
     <use xlink:href="#m376e4469df" x="445.374584" y="245.139644" style="fill: #228833; stroke: #228833"/>
     <use xlink:href="#m376e4469df" x="501.712567" y="249.614656" style="fill: #228833; stroke: #228833"/>
     <use xlink:href="#m376e4469df" x="557.580282" y="250.683072" style="fill: #228833; stroke: #228833"/>
     <use xlink:href="#m376e4469df" x="614.576638" y="253.409541" style="fill: #228833; stroke: #228833"/>
     <use xlink:href="#m376e4469df" x="669.597873" y="255.583044" style="fill: #228833; stroke: #228833"/>
     <use xlink:href="#m376e4469df" x="727.440709" y="258.811365" style="fill: #228833; stroke: #228833"/>
    </g>
   </g>
   <g id="PathCollection_6">
    <defs>
     <path id="m04a33e5342" d="M -5 0 
L 5 0 
M 0 5 
L 0 -5 
" style="stroke: #228833; stroke-width: 1.5"/>
    </defs>
    <g clip-path="url(#p33f9da2e44)">
     <use xlink:href="#m04a33e5342" x="217.201053" y="117.514153" style="fill: #228833; stroke: #228833; stroke-width: 1.5"/>
     <use xlink:href="#m04a33e5342" x="282.474108" y="149.806659" style="fill: #228833; stroke: #228833; stroke-width: 1.5"/>
     <use xlink:href="#m04a33e5342" x="337.307236" y="184.107942" style="fill: #228833; stroke: #228833; stroke-width: 1.5"/>
     <use xlink:href="#m04a33e5342" x="391.293883" y="192.569443" style="fill: #228833; stroke: #228833; stroke-width: 1.5"/>
     <use xlink:href="#m04a33e5342" x="445.374584" y="198.189409" style="fill: #228833; stroke: #228833; stroke-width: 1.5"/>
     <use xlink:href="#m04a33e5342" x="501.712567" y="201.370657" style="fill: #228833; stroke: #228833; stroke-width: 1.5"/>
     <use xlink:href="#m04a33e5342" x="557.580282" y="205.18831" style="fill: #228833; stroke: #228833; stroke-width: 1.5"/>
     <use xlink:href="#m04a33e5342" x="614.576638" y="207.817343" style="fill: #228833; stroke: #228833; stroke-width: 1.5"/>
     <use xlink:href="#m04a33e5342" x="669.597873" y="210.45068" style="fill: #228833; stroke: #228833; stroke-width: 1.5"/>
     <use xlink:href="#m04a33e5342" x="727.440709" y="215.223043" style="fill: #228833; stroke: #228833; stroke-width: 1.5"/>
    </g>
   </g>
   <g id="PathCollection_7">
    <defs>
     <path id="mae3e2674fd" d="M 0 3.162278 
C 0.838646 3.162278 1.643056 2.82908 2.236068 2.236068 
C 2.82908 1.643056 3.162278 0.838646 3.162278 0 
C 3.162278 -0.838646 2.82908 -1.643056 2.236068 -2.236068 
C 1.643056 -2.82908 0.838646 -3.162278 0 -3.162278 
C -0.838646 -3.162278 -1.643056 -2.82908 -2.236068 -2.236068 
C -2.82908 -1.643056 -3.162278 -0.838646 -3.162278 0 
C -3.162278 0.838646 -2.82908 1.643056 -2.236068 2.236068 
C -1.643056 2.82908 -0.838646 3.162278 0 3.162278 
z
" style="stroke: #ccbb44"/>
    </defs>
    <g clip-path="url(#p33f9da2e44)">
     <use xlink:href="#mae3e2674fd" x="334.673741" y="173.293581" style="fill: #ccbb44; stroke: #ccbb44"/>
     <use xlink:href="#mae3e2674fd" x="433.523857" y="224.938569" style="fill: #ccbb44; stroke: #ccbb44"/>
     <use xlink:href="#mae3e2674fd" x="526.072395" y="244.558917" style="fill: #ccbb44; stroke: #ccbb44"/>
     <use xlink:href="#mae3e2674fd" x="614.106371" y="255.551864" style="fill: #ccbb44; stroke: #ccbb44"/>
     <use xlink:href="#mae3e2674fd" x="701.011706" y="260.957548" style="fill: #ccbb44; stroke: #ccbb44"/>
     <use xlink:href="#mae3e2674fd" x="787.446774" y="264.891452" style="fill: #ccbb44; stroke: #ccbb44"/>
     <use xlink:href="#mae3e2674fd" x="870.77808" y="267.777728" style="fill: #ccbb44; stroke: #ccbb44"/>
     <use xlink:href="#mae3e2674fd" x="955.614241" y="270.397342" style="fill: #ccbb44; stroke: #ccbb44"/>
     <use xlink:href="#mae3e2674fd" x="1038.193119" y="272.674089" style="fill: #ccbb44; stroke: #ccbb44"/>
     <use xlink:href="#mae3e2674fd" x="1118.60877" y="274.756438" style="fill: #ccbb44; stroke: #ccbb44"/>
    </g>
   </g>
   <g id="PathCollection_8">
    <defs>
     <path id="mf5644ad1d4" d="M -5 0 
L 5 0 
M 0 5 
L 0 -5 
" style="stroke: #ccbb44; stroke-width: 1.5"/>
    </defs>
    <g clip-path="url(#p33f9da2e44)">
     <use xlink:href="#mf5644ad1d4" x="334.673741" y="125.085419" style="fill: #ccbb44; stroke: #ccbb44; stroke-width: 1.5"/>
     <use xlink:href="#mf5644ad1d4" x="433.523857" y="171.553104" style="fill: #ccbb44; stroke: #ccbb44; stroke-width: 1.5"/>
     <use xlink:href="#mf5644ad1d4" x="526.072395" y="188.923971" style="fill: #ccbb44; stroke: #ccbb44; stroke-width: 1.5"/>
     <use xlink:href="#mf5644ad1d4" x="614.106371" y="201.80421" style="fill: #ccbb44; stroke: #ccbb44; stroke-width: 1.5"/>
     <use xlink:href="#mf5644ad1d4" x="701.011706" y="209.084352" style="fill: #ccbb44; stroke: #ccbb44; stroke-width: 1.5"/>
     <use xlink:href="#mf5644ad1d4" x="787.446774" y="215.374874" style="fill: #ccbb44; stroke: #ccbb44; stroke-width: 1.5"/>
     <use xlink:href="#mf5644ad1d4" x="870.77808" y="218.985934" style="fill: #ccbb44; stroke: #ccbb44; stroke-width: 1.5"/>
     <use xlink:href="#mf5644ad1d4" x="955.614241" y="222.816999" style="fill: #ccbb44; stroke: #ccbb44; stroke-width: 1.5"/>
     <use xlink:href="#mf5644ad1d4" x="1038.193119" y="226.480827" style="fill: #ccbb44; stroke: #ccbb44; stroke-width: 1.5"/>
     <use xlink:href="#mf5644ad1d4" x="1118.60877" y="228.54466" style="fill: #ccbb44; stroke: #ccbb44; stroke-width: 1.5"/>
    </g>
   </g>
   <g id="PathCollection_9">
    <defs>
     <path id="mddd0ea70d3" d="M 0 3 
C 0.795609 3 1.55874 2.683901 2.12132 2.12132 
C 2.683901 1.55874 3 0.795609 3 0 
C 3 -0.795609 2.683901 -1.55874 2.12132 -2.12132 
C 1.55874 -2.683901 0.795609 -3 0 -3 
C -0.795609 -3 -1.55874 -2.683901 -2.12132 -2.12132 
C -2.683901 -1.55874 -3 -0.795609 -3 0 
C -3 0.795609 -2.683901 1.55874 -2.12132 2.12132 
C -1.55874 2.683901 -0.795609 3 0 3 
z
" style="stroke: #000000"/>
    </defs>
    <g clip-path="url(#p33f9da2e44)"/>
   </g>
   <g id="PathCollection_10">
    <defs>
     <path id="mf0451a9e87" d="M -3 0 
L 3 0 
M 0 3 
L 0 -3 
" style="stroke: #000000; stroke-width: 1.5"/>
    </defs>
    <g clip-path="url(#p33f9da2e44)"/>
   </g>
   <g id="matplotlib.axis_1">
    <g id="xtick_1">
     <g id="line2d_1">
      <defs>
       <path id="m1f5154f9e5" d="M 0 0 
L 0 3.5 
" style="stroke: #000000; stroke-width: 0.8"/>
      </defs>
      <g>
       <use xlink:href="#m1f5154f9e5" x="75.932857" y="301.48" style="stroke: #000000; stroke-width: 0.8"/>
      </g>
     </g>
     <g id="text_1">
      <!-- 0 -->
      <g transform="translate(71.359107 320.6375) scale(0.16 -0.16)">
       <defs>
        <path id="OpenSans-Regular-30" d="M 3334 2291 
Q 3334 1734 3250 1296 
Q 3166 859 2984 556 
Q 2803 253 2515 95 
Q 2228 -63 1825 -63 
Q 1316 -63 983 215 
Q 650 494 486 1020 
Q 322 1547 322 2291 
Q 322 3022 470 3548 
Q 619 4075 950 4358 
Q 1281 4641 1825 4641 
Q 2341 4641 2675 4361 
Q 3009 4081 3171 3554 
Q 3334 3028 3334 2291 
z
M 844 2291 
Q 844 1653 941 1228 
Q 1038 803 1255 592 
Q 1472 381 1825 381 
Q 2178 381 2395 590 
Q 2613 800 2711 1225 
Q 2809 1650 2809 2291 
Q 2809 2919 2712 3342 
Q 2616 3766 2400 3980 
Q 2184 4194 1825 4194 
Q 1466 4194 1250 3980 
Q 1034 3766 939 3342 
Q 844 2919 844 2291 
z
" transform="scale(0.015625)"/>
       </defs>
       <use xlink:href="#OpenSans-Regular-30"/>
      </g>
     </g>
    </g>
    <g id="xtick_2">
     <g id="line2d_2">
      <g>
       <use xlink:href="#m1f5154f9e5" x="169.98625" y="301.48" style="stroke: #000000; stroke-width: 0.8"/>
      </g>
     </g>
     <g id="text_2">
      <!-- 1000 -->
      <g transform="translate(151.69125 320.6375) scale(0.16 -0.16)">
       <defs>
        <path id="OpenSans-Regular-31" d="M 2247 0 
L 1741 0 
L 1741 3238 
Q 1741 3422 1742 3555 
Q 1744 3688 1748 3798 
Q 1753 3909 1763 4025 
Q 1666 3925 1581 3854 
Q 1497 3784 1372 3681 
L 850 3263 
L 578 3616 
L 1816 4569 
L 2247 4569 
L 2247 0 
z
" transform="scale(0.015625)"/>
       </defs>
       <use xlink:href="#OpenSans-Regular-31"/>
       <use xlink:href="#OpenSans-Regular-30" x="57.177734"/>
       <use xlink:href="#OpenSans-Regular-30" x="114.355469"/>
       <use xlink:href="#OpenSans-Regular-30" x="171.533203"/>
      </g>
     </g>
    </g>
    <g id="xtick_3">
     <g id="line2d_3">
      <g>
       <use xlink:href="#m1f5154f9e5" x="264.039643" y="301.48" style="stroke: #000000; stroke-width: 0.8"/>
      </g>
     </g>
     <g id="text_3">
      <!-- 2000 -->
      <g transform="translate(245.744643 320.6375) scale(0.16 -0.16)">
       <defs>
        <path id="OpenSans-Regular-32" d="M 3309 0 
L 316 0 
L 316 434 
L 1538 1675 
Q 1878 2019 2111 2287 
Q 2344 2556 2466 2817 
Q 2588 3078 2588 3391 
Q 2588 3778 2358 3983 
Q 2128 4188 1753 4188 
Q 1425 4188 1172 4075 
Q 919 3963 653 3756 
L 375 4106 
Q 556 4259 770 4378 
Q 984 4497 1229 4565 
Q 1475 4634 1753 4634 
Q 2175 4634 2481 4487 
Q 2788 4341 2955 4069 
Q 3122 3797 3122 3422 
Q 3122 3059 2978 2748 
Q 2834 2438 2575 2133 
Q 2316 1828 1969 1488 
L 975 497 
L 975 475 
L 3309 475 
L 3309 0 
z
" transform="scale(0.015625)"/>
       </defs>
       <use xlink:href="#OpenSans-Regular-32"/>
       <use xlink:href="#OpenSans-Regular-30" x="57.177734"/>
       <use xlink:href="#OpenSans-Regular-30" x="114.355469"/>
       <use xlink:href="#OpenSans-Regular-30" x="171.533203"/>
      </g>
     </g>
    </g>
    <g id="xtick_4">
     <g id="line2d_4">
      <g>
       <use xlink:href="#m1f5154f9e5" x="358.093036" y="301.48" style="stroke: #000000; stroke-width: 0.8"/>
      </g>
     </g>
     <g id="text_4">
      <!-- 3000 -->
      <g transform="translate(339.798036 320.6375) scale(0.16 -0.16)">
       <defs>
        <path id="OpenSans-Regular-33" d="M 3141 3503 
Q 3141 3197 3022 2972 
Q 2903 2747 2690 2605 
Q 2478 2463 2191 2406 
L 2191 2381 
Q 2734 2313 3007 2031 
Q 3281 1750 3281 1294 
Q 3281 897 3095 590 
Q 2909 284 2526 110 
Q 2144 -63 1547 -63 
Q 1184 -63 876 -5 
Q 569 53 288 188 
L 288 675 
Q 572 534 906 454 
Q 1241 375 1553 375 
Q 2178 375 2456 623 
Q 2734 872 2734 1303 
Q 2734 1600 2579 1783 
Q 2425 1966 2136 2052 
Q 1847 2138 1441 2138 
L 984 2138 
L 984 2581 
L 1444 2581 
Q 1816 2581 2075 2690 
Q 2334 2800 2470 2998 
Q 2606 3197 2606 3469 
Q 2606 3816 2375 4005 
Q 2144 4194 1747 4194 
Q 1503 4194 1303 4144 
Q 1103 4094 928 4006 
Q 753 3919 578 3803 
L 316 4159 
Q 566 4353 925 4493 
Q 1284 4634 1741 4634 
Q 2441 4634 2791 4315 
Q 3141 3997 3141 3503 
z
" transform="scale(0.015625)"/>
       </defs>
       <use xlink:href="#OpenSans-Regular-33"/>
       <use xlink:href="#OpenSans-Regular-30" x="57.177734"/>
       <use xlink:href="#OpenSans-Regular-30" x="114.355469"/>
       <use xlink:href="#OpenSans-Regular-30" x="171.533203"/>
      </g>
     </g>
    </g>
    <g id="xtick_5">
     <g id="line2d_5">
      <g>
       <use xlink:href="#m1f5154f9e5" x="452.146429" y="301.48" style="stroke: #000000; stroke-width: 0.8"/>
      </g>
     </g>
     <g id="text_5">
      <!-- 4000 -->
      <g transform="translate(433.851429 320.6375) scale(0.16 -0.16)">
       <defs>
        <path id="OpenSans-Regular-34" d="M 3538 1059 
L 2853 1059 
L 2853 0 
L 2347 0 
L 2347 1059 
L 138 1059 
L 138 1497 
L 2313 4594 
L 2853 4594 
L 2853 1528 
L 3538 1528 
L 3538 1059 
z
M 2347 1528 
L 2347 3022 
Q 2347 3194 2350 3333 
Q 2353 3472 2359 3592 
Q 2366 3713 2370 3822 
Q 2375 3931 2378 4038 
L 2353 4038 
Q 2294 3913 2217 3773 
Q 2141 3634 2063 3525 
L 653 1528 
L 2347 1528 
z
" transform="scale(0.015625)"/>
       </defs>
       <use xlink:href="#OpenSans-Regular-34"/>
       <use xlink:href="#OpenSans-Regular-30" x="57.177734"/>
       <use xlink:href="#OpenSans-Regular-30" x="114.355469"/>
       <use xlink:href="#OpenSans-Regular-30" x="171.533203"/>
      </g>
     </g>
    </g>
    <g id="xtick_6">
     <g id="line2d_6">
      <g>
       <use xlink:href="#m1f5154f9e5" x="546.199821" y="301.48" style="stroke: #000000; stroke-width: 0.8"/>
      </g>
     </g>
     <g id="text_6">
      <!-- 5000 -->
      <g transform="translate(527.904821 320.6375) scale(0.16 -0.16)">
       <defs>
        <path id="OpenSans-Regular-35" d="M 1759 2794 
Q 2225 2794 2569 2636 
Q 2913 2478 3102 2178 
Q 3291 1878 3291 1450 
Q 3291 981 3087 642 
Q 2884 303 2503 120 
Q 2122 -63 1591 -63 
Q 1234 -63 928 0 
Q 622 63 413 188 
L 413 681 
Q 641 544 966 462 
Q 1291 381 1597 381 
Q 1944 381 2205 492 
Q 2466 603 2611 829 
Q 2756 1056 2756 1400 
Q 2756 1856 2476 2104 
Q 2197 2353 1594 2353 
Q 1400 2353 1169 2322 
Q 938 2291 788 2253 
L 525 2425 
L 700 4569 
L 2972 4569 
L 2972 4094 
L 1144 4094 
L 1028 2716 
Q 1147 2741 1334 2767 
Q 1522 2794 1759 2794 
z
" transform="scale(0.015625)"/>
       </defs>
       <use xlink:href="#OpenSans-Regular-35"/>
       <use xlink:href="#OpenSans-Regular-30" x="57.177734"/>
       <use xlink:href="#OpenSans-Regular-30" x="114.355469"/>
       <use xlink:href="#OpenSans-Regular-30" x="171.533203"/>
      </g>
     </g>
    </g>
    <g id="xtick_7">
     <g id="line2d_7">
      <g>
       <use xlink:href="#m1f5154f9e5" x="640.253214" y="301.48" style="stroke: #000000; stroke-width: 0.8"/>
      </g>
     </g>
     <g id="text_7">
      <!-- 6000 -->
      <g transform="translate(621.958214 320.6375) scale(0.16 -0.16)">
       <defs>
        <path id="OpenSans-Regular-36" d="M 363 1953 
Q 363 2366 420 2759 
Q 478 3153 615 3492 
Q 753 3831 990 4087 
Q 1228 4344 1583 4489 
Q 1938 4634 2434 4634 
Q 2575 4634 2737 4620 
Q 2900 4606 3006 4575 
L 3006 4128 
Q 2891 4169 2742 4187 
Q 2594 4206 2444 4206 
Q 1863 4206 1530 3953 
Q 1197 3700 1050 3267 
Q 903 2834 881 2294 
L 916 2294 
Q 1013 2450 1163 2576 
Q 1313 2703 1527 2778 
Q 1741 2853 2025 2853 
Q 2425 2853 2723 2690 
Q 3022 2528 3186 2218 
Q 3350 1909 3350 1469 
Q 3350 997 3175 653 
Q 3000 309 2676 123 
Q 2353 -63 1906 -63 
Q 1572 -63 1290 65 
Q 1009 194 801 447 
Q 594 700 478 1076 
Q 363 1453 363 1953 
z
M 1900 375 
Q 2325 375 2581 647 
Q 2838 919 2838 1469 
Q 2838 1919 2609 2181 
Q 2381 2444 1922 2444 
Q 1609 2444 1378 2314 
Q 1147 2184 1019 1987 
Q 891 1791 891 1588 
Q 891 1381 952 1168 
Q 1013 956 1138 775 
Q 1263 594 1453 484 
Q 1644 375 1900 375 
z
" transform="scale(0.015625)"/>
       </defs>
       <use xlink:href="#OpenSans-Regular-36"/>
       <use xlink:href="#OpenSans-Regular-30" x="57.177734"/>
       <use xlink:href="#OpenSans-Regular-30" x="114.355469"/>
       <use xlink:href="#OpenSans-Regular-30" x="171.533203"/>
      </g>
     </g>
    </g>
    <g id="xtick_8">
     <g id="line2d_8">
      <g>
       <use xlink:href="#m1f5154f9e5" x="734.306607" y="301.48" style="stroke: #000000; stroke-width: 0.8"/>
      </g>
     </g>
     <g id="text_8">
      <!-- 7000 -->
      <g transform="translate(716.011607 320.6375) scale(0.16 -0.16)">
       <defs>
        <path id="OpenSans-Regular-37" d="M 906 0 
L 2781 4094 
L 291 4094 
L 291 4569 
L 3338 4569 
L 3338 4169 
L 1475 0 
L 906 0 
z
" transform="scale(0.015625)"/>
       </defs>
       <use xlink:href="#OpenSans-Regular-37"/>
       <use xlink:href="#OpenSans-Regular-30" x="57.177734"/>
       <use xlink:href="#OpenSans-Regular-30" x="114.355469"/>
       <use xlink:href="#OpenSans-Regular-30" x="171.533203"/>
      </g>
     </g>
    </g>
    <g id="xtick_9">
     <g id="line2d_9">
      <g>
       <use xlink:href="#m1f5154f9e5" x="828.36" y="301.48" style="stroke: #000000; stroke-width: 0.8"/>
      </g>
     </g>
     <g id="text_9">
      <!-- 8000 -->
      <g transform="translate(810.065 320.6375) scale(0.16 -0.16)">
       <defs>
        <path id="OpenSans-Regular-38" d="M 1825 4634 
Q 2222 4634 2528 4509 
Q 2834 4384 3007 4142 
Q 3181 3900 3181 3547 
Q 3181 3269 3061 3061 
Q 2941 2853 2737 2698 
Q 2534 2544 2288 2422 
Q 2581 2288 2817 2119 
Q 3053 1950 3190 1722 
Q 3328 1494 3328 1181 
Q 3328 797 3142 517 
Q 2956 238 2622 87 
Q 2288 -63 1838 -63 
Q 1353 -63 1014 82 
Q 675 228 498 501 
Q 322 775 322 1159 
Q 322 1475 456 1708 
Q 591 1941 812 2109 
Q 1034 2278 1297 2394 
Q 1069 2519 880 2678 
Q 691 2838 580 3052 
Q 469 3266 469 3550 
Q 469 3897 645 4139 
Q 822 4381 1130 4507 
Q 1438 4634 1825 4634 
z
M 831 1156 
Q 831 806 1078 579 
Q 1325 353 1825 353 
Q 2300 353 2559 579 
Q 2819 806 2819 1175 
Q 2819 1403 2700 1576 
Q 2581 1750 2362 1887 
Q 2144 2025 1847 2138 
L 1734 2178 
Q 1447 2059 1245 1914 
Q 1044 1769 937 1584 
Q 831 1400 831 1156 
z
M 1819 4209 
Q 1450 4209 1215 4032 
Q 981 3856 981 3525 
Q 981 3288 1095 3123 
Q 1209 2959 1406 2842 
Q 1603 2725 1847 2625 
Q 2084 2725 2268 2845 
Q 2453 2966 2559 3131 
Q 2666 3297 2666 3528 
Q 2666 3859 2433 4034 
Q 2200 4209 1819 4209 
z
" transform="scale(0.015625)"/>
       </defs>
       <use xlink:href="#OpenSans-Regular-38"/>
       <use xlink:href="#OpenSans-Regular-30" x="57.177734"/>
       <use xlink:href="#OpenSans-Regular-30" x="114.355469"/>
       <use xlink:href="#OpenSans-Regular-30" x="171.533203"/>
      </g>
     </g>
    </g>
    <g id="text_10">
     <!-- Cumulative number of iterations -->
     <g transform="translate(330.966429 340.6225) scale(0.16 -0.16)">
      <defs>
       <path id="OpenSans-Regular-43" d="M 2578 4166 
Q 2200 4166 1898 4036 
Q 1597 3906 1386 3661 
Q 1175 3416 1062 3069 
Q 950 2722 950 2288 
Q 950 1713 1129 1289 
Q 1309 866 1667 634 
Q 2025 403 2563 403 
Q 2869 403 3139 454 
Q 3409 506 3666 584 
L 3666 122 
Q 3416 28 3141 -17 
Q 2866 -63 2488 -63 
Q 1791 -63 1323 226 
Q 856 516 623 1044 
Q 391 1572 391 2291 
Q 391 2809 536 3239 
Q 681 3669 961 3981 
Q 1241 4294 1648 4464 
Q 2056 4634 2584 4634 
Q 2931 4634 3253 4565 
Q 3575 4497 3834 4369 
L 3622 3919 
Q 3403 4019 3142 4092 
Q 2881 4166 2578 4166 
z
" transform="scale(0.015625)"/>
       <path id="OpenSans-Regular-75" d="M 3375 3425 
L 3375 0 
L 2950 0 
L 2875 481 
L 2847 481 
Q 2741 303 2572 181 
Q 2403 59 2192 -2 
Q 1981 -63 1744 -63 
Q 1338 -63 1063 68 
Q 788 200 648 475 
Q 509 750 509 1181 
L 509 3425 
L 1034 3425 
L 1034 1219 
Q 1034 791 1228 580 
Q 1422 369 1819 369 
Q 2200 369 2426 512 
Q 2653 656 2753 936 
Q 2853 1216 2853 1622 
L 2853 3425 
L 3375 3425 
z
" transform="scale(0.015625)"/>
       <path id="OpenSans-Regular-6d" d="M 4266 3488 
Q 4831 3488 5118 3192 
Q 5406 2897 5406 2244 
L 5406 0 
L 4894 0 
L 4894 2219 
Q 4894 2634 4714 2842 
Q 4534 3050 4181 3050 
Q 3684 3050 3459 2762 
Q 3234 2475 3234 1916 
L 3234 0 
L 2719 0 
L 2719 2219 
Q 2719 2497 2639 2681 
Q 2559 2866 2401 2958 
Q 2244 3050 2003 3050 
Q 1663 3050 1456 2909 
Q 1250 2769 1158 2492 
Q 1066 2216 1066 1813 
L 1066 0 
L 547 0 
L 547 3425 
L 966 3425 
L 1044 2941 
L 1072 2941 
Q 1175 3119 1331 3241 
Q 1488 3363 1681 3425 
Q 1875 3488 2094 3488 
Q 2484 3488 2748 3342 
Q 3013 3197 3131 2900 
L 3159 2900 
Q 3328 3197 3622 3342 
Q 3916 3488 4266 3488 
z
" transform="scale(0.015625)"/>
       <path id="OpenSans-Regular-6c" d="M 1069 0 
L 547 0 
L 547 4863 
L 1069 4863 
L 1069 0 
z
" transform="scale(0.015625)"/>
       <path id="OpenSans-Regular-61" d="M 1828 3481 
Q 2441 3481 2737 3206 
Q 3034 2931 3034 2328 
L 3034 0 
L 2656 0 
L 2556 506 
L 2531 506 
Q 2388 319 2231 192 
Q 2075 66 1870 1 
Q 1666 -63 1369 -63 
Q 1056 -63 814 46 
Q 572 156 433 378 
Q 294 600 294 941 
Q 294 1453 700 1728 
Q 1106 2003 1938 2028 
L 2528 2053 
L 2528 2263 
Q 2528 2706 2337 2884 
Q 2147 3063 1800 3063 
Q 1531 3063 1287 2984 
Q 1044 2906 825 2800 
L 666 3194 
Q 897 3313 1197 3397 
Q 1497 3481 1828 3481 
z
M 2522 1688 
L 2000 1666 
Q 1359 1641 1096 1456 
Q 834 1272 834 934 
Q 834 641 1012 500 
Q 1191 359 1484 359 
Q 1941 359 2231 612 
Q 2522 866 2522 1372 
L 2522 1688 
z
" transform="scale(0.015625)"/>
       <path id="OpenSans-Regular-74" d="M 1653 363 
Q 1781 363 1915 384 
Q 2050 406 2134 438 
L 2134 34 
Q 2044 -6 1883 -34 
Q 1722 -63 1569 -63 
Q 1297 -63 1075 32 
Q 853 128 720 356 
Q 588 584 588 988 
L 588 3019 
L 100 3019 
L 100 3272 
L 591 3475 
L 797 4219 
L 1109 4219 
L 1109 3425 
L 2113 3425 
L 2113 3019 
L 1109 3019 
L 1109 1003 
Q 1109 681 1257 522 
Q 1406 363 1653 363 
z
" transform="scale(0.015625)"/>
       <path id="OpenSans-Regular-69" d="M 1066 3425 
L 1066 0 
L 547 0 
L 547 3425 
L 1066 3425 
z
M 813 4706 
Q 941 4706 1033 4623 
Q 1125 4541 1125 4366 
Q 1125 4194 1033 4109 
Q 941 4025 813 4025 
Q 678 4025 589 4109 
Q 500 4194 500 4366 
Q 500 4541 589 4623 
Q 678 4706 813 4706 
z
" transform="scale(0.015625)"/>
       <path id="OpenSans-Regular-76" d="M 1300 0 
L 0 3425 
L 556 3425 
L 1309 1353 
Q 1388 1141 1469 884 
Q 1550 628 1581 472 
L 1603 472 
Q 1641 628 1728 886 
Q 1816 1144 1888 1353 
L 2641 3425 
L 3197 3425 
L 1894 0 
L 1300 0 
z
" transform="scale(0.015625)"/>
       <path id="OpenSans-Regular-65" d="M 1866 3488 
Q 2303 3488 2615 3294 
Q 2928 3100 3093 2751 
Q 3259 2403 3259 1938 
L 3259 1616 
L 894 1616 
Q 903 1013 1193 697 
Q 1484 381 2013 381 
Q 2338 381 2588 440 
Q 2838 500 3106 616 
L 3106 159 
Q 2847 44 2592 -9 
Q 2338 -63 1991 -63 
Q 1497 -63 1130 139 
Q 763 341 559 731 
Q 356 1122 356 1688 
Q 356 2241 542 2645 
Q 728 3050 1067 3269 
Q 1406 3488 1866 3488 
z
M 1859 3063 
Q 1444 3063 1197 2791 
Q 950 2519 903 2031 
L 2716 2031 
Q 2713 2338 2620 2570 
Q 2528 2803 2340 2933 
Q 2153 3063 1859 3063 
z
" transform="scale(0.015625)"/>
       <path id="OpenSans-Regular-20" transform="scale(0.015625)"/>
       <path id="OpenSans-Regular-6e" d="M 2169 3488 
Q 2778 3488 3090 3189 
Q 3403 2891 3403 2231 
L 3403 0 
L 2891 0 
L 2891 2197 
Q 2891 2625 2695 2837 
Q 2500 3050 2097 3050 
Q 1528 3050 1297 2728 
Q 1066 2406 1066 1794 
L 1066 0 
L 547 0 
L 547 3425 
L 966 3425 
L 1044 2931 
L 1072 2931 
Q 1181 3113 1350 3236 
Q 1519 3359 1728 3423 
Q 1938 3488 2169 3488 
z
" transform="scale(0.015625)"/>
       <path id="OpenSans-Regular-62" d="M 1066 4863 
L 1066 3647 
Q 1066 3438 1055 3241 
Q 1044 3044 1038 2934 
L 1066 2934 
Q 1206 3166 1472 3325 
Q 1738 3484 2150 3484 
Q 2794 3484 3176 3039 
Q 3559 2594 3559 1716 
Q 3559 1138 3384 741 
Q 3209 344 2890 140 
Q 2572 -63 2138 -63 
Q 1731 -63 1470 89 
Q 1209 241 1069 459 
L 1028 459 
L 922 0 
L 547 0 
L 547 4863 
L 1066 4863 
z
M 2066 3050 
Q 1694 3050 1475 2904 
Q 1256 2759 1161 2467 
Q 1066 2175 1066 1728 
L 1066 1700 
Q 1066 1053 1281 711 
Q 1497 369 2066 369 
Q 2544 369 2783 719 
Q 3022 1069 3022 1719 
Q 3022 2381 2786 2715 
Q 2550 3050 2066 3050 
z
" transform="scale(0.015625)"/>
       <path id="OpenSans-Regular-72" d="M 2103 3488 
Q 2206 3488 2318 3477 
Q 2431 3466 2519 3447 
L 2453 2966 
Q 2369 2988 2266 3000 
Q 2163 3013 2072 3013 
Q 1866 3013 1683 2930 
Q 1500 2847 1362 2692 
Q 1225 2538 1147 2320 
Q 1069 2103 1069 1838 
L 1069 0 
L 547 0 
L 547 3425 
L 978 3425 
L 1034 2794 
L 1056 2794 
Q 1163 2984 1313 3142 
Q 1463 3300 1661 3394 
Q 1859 3488 2103 3488 
z
" transform="scale(0.015625)"/>
       <path id="OpenSans-Regular-6f" d="M 3500 1719 
Q 3500 1297 3390 965 
Q 3281 634 3075 406 
Q 2869 178 2576 57 
Q 2284 -63 1916 -63 
Q 1572 -63 1286 57 
Q 1000 178 792 406 
Q 584 634 470 965 
Q 356 1297 356 1719 
Q 356 2281 547 2676 
Q 738 3072 1092 3280 
Q 1447 3488 1938 3488 
Q 2406 3488 2757 3278 
Q 3109 3069 3304 2673 
Q 3500 2278 3500 1719 
z
M 894 1719 
Q 894 1306 1003 1003 
Q 1113 700 1341 534 
Q 1569 369 1928 369 
Q 2284 369 2514 534 
Q 2744 700 2853 1003 
Q 2963 1306 2963 1719 
Q 2963 2128 2853 2426 
Q 2744 2725 2516 2887 
Q 2288 3050 1925 3050 
Q 1391 3050 1142 2697 
Q 894 2344 894 1719 
z
" transform="scale(0.015625)"/>
       <path id="OpenSans-Regular-66" d="M 2072 3019 
L 1219 3019 
L 1219 0 
L 700 0 
L 700 3019 
L 94 3019 
L 94 3269 
L 700 3441 
L 700 3669 
Q 700 4100 828 4370 
Q 956 4641 1200 4769 
Q 1444 4897 1794 4897 
Q 1991 4897 2155 4862 
Q 2319 4828 2444 4784 
L 2309 4375 
Q 2203 4409 2070 4439 
Q 1938 4469 1800 4469 
Q 1503 4469 1361 4276 
Q 1219 4084 1219 3675 
L 1219 3425 
L 2072 3425 
L 2072 3019 
z
" transform="scale(0.015625)"/>
       <path id="OpenSans-Regular-73" d="M 2763 938 
Q 2763 609 2598 386 
Q 2434 163 2129 50 
Q 1825 -63 1403 -63 
Q 1044 -63 781 -6 
Q 519 50 322 153 
L 322 631 
Q 531 528 822 443 
Q 1113 359 1416 359 
Q 1859 359 2059 503 
Q 2259 647 2259 894 
Q 2259 1034 2179 1142 
Q 2100 1250 1912 1351 
Q 1725 1453 1394 1575 
Q 1066 1700 827 1823 
Q 588 1947 458 2125 
Q 328 2303 328 2588 
Q 328 3022 679 3255 
Q 1031 3488 1603 3488 
Q 1913 3488 2183 3427 
Q 2453 3366 2688 3263 
L 2513 2847 
Q 2300 2938 2059 3000 
Q 1819 3063 1569 3063 
Q 1209 3063 1017 2944 
Q 825 2825 825 2619 
Q 825 2459 914 2356 
Q 1003 2253 1200 2162 
Q 1397 2072 1719 1950 
Q 2041 1831 2275 1704 
Q 2509 1578 2636 1398 
Q 2763 1219 2763 938 
z
" transform="scale(0.015625)"/>
      </defs>
      <use xlink:href="#OpenSans-Regular-43"/>
      <use xlink:href="#OpenSans-Regular-75" x="62.988281"/>
      <use xlink:href="#OpenSans-Regular-6d" x="124.316406"/>
      <use xlink:href="#OpenSans-Regular-75" x="216.894531"/>
      <use xlink:href="#OpenSans-Regular-6c" x="278.222656"/>
      <use xlink:href="#OpenSans-Regular-61" x="303.466797"/>
      <use xlink:href="#OpenSans-Regular-74" x="359.033203"/>
      <use xlink:href="#OpenSans-Regular-69" x="394.677734"/>
      <use xlink:href="#OpenSans-Regular-76" x="419.921875"/>
      <use xlink:href="#OpenSans-Regular-65" x="469.873047"/>
      <use xlink:href="#OpenSans-Regular-20" x="526.025391"/>
      <use xlink:href="#OpenSans-Regular-6e" x="552.001953"/>
      <use xlink:href="#OpenSans-Regular-75" x="613.330078"/>
      <use xlink:href="#OpenSans-Regular-6d" x="674.658203"/>
      <use xlink:href="#OpenSans-Regular-62" x="767.236328"/>
      <use xlink:href="#OpenSans-Regular-65" x="828.417969"/>
      <use xlink:href="#OpenSans-Regular-72" x="884.570312"/>
      <use xlink:href="#OpenSans-Regular-20" x="925.439453"/>
      <use xlink:href="#OpenSans-Regular-6f" x="951.416016"/>
      <use xlink:href="#OpenSans-Regular-66" x="1011.572266"/>
      <use xlink:href="#OpenSans-Regular-20" x="1045.214844"/>
      <use xlink:href="#OpenSans-Regular-69" x="1071.191406"/>
      <use xlink:href="#OpenSans-Regular-74" x="1096.435547"/>
      <use xlink:href="#OpenSans-Regular-65" x="1132.080078"/>
      <use xlink:href="#OpenSans-Regular-72" x="1188.232422"/>
      <use xlink:href="#OpenSans-Regular-61" x="1229.101562"/>
      <use xlink:href="#OpenSans-Regular-74" x="1284.667969"/>
      <use xlink:href="#OpenSans-Regular-69" x="1320.3125"/>
      <use xlink:href="#OpenSans-Regular-6f" x="1345.556641"/>
      <use xlink:href="#OpenSans-Regular-6e" x="1405.712891"/>
      <use xlink:href="#OpenSans-Regular-73" x="1467.041016"/>
     </g>
    </g>
   </g>
   <g id="matplotlib.axis_2">
    <g id="ytick_1">
     <g id="line2d_10">
      <path d="M 75.932857 301.48 
L 828.36 301.48 
" clip-path="url(#p33f9da2e44)" style="fill: none; stroke: #b0b0b0; stroke-width: 0.8; stroke-linecap: square"/>
     </g>
     <g id="line2d_11">
      <defs>
       <path id="mc70c2bf3cc" d="M 0 0 
L -3.5 0 
" style="stroke: #000000; stroke-width: 0.8"/>
      </defs>
      <g>
       <use xlink:href="#mc70c2bf3cc" x="75.932857" y="301.48" style="stroke: #000000; stroke-width: 0.8"/>
      </g>
     </g>
     <g id="text_11">
      <!-- $\mathdefault{10^{-5}}$ -->
      <g transform="translate(37.092857 307.55875) scale(0.16 -0.16)">
       <defs>
        <path id="OpenSans-Regular-2212" d="M 322 2044 
L 322 2469 
L 3331 2469 
L 3331 2044 
L 322 2044 
z
" transform="scale(0.015625)"/>
       </defs>
       <use xlink:href="#OpenSans-Regular-31" transform="translate(0 0.565625)"/>
       <use xlink:href="#OpenSans-Regular-30" transform="translate(57.177734 0.565625)"/>
       <use xlink:href="#OpenSans-Regular-2212" transform="translate(115.291992 38.026563) scale(0.7)"/>
       <use xlink:href="#OpenSans-Regular-35" transform="translate(155.316406 38.026563) scale(0.7)"/>
      </g>
     </g>
    </g>
    <g id="ytick_2">
     <g id="line2d_12">
      <path d="M 75.932857 249.296007 
L 828.36 249.296007 
" clip-path="url(#p33f9da2e44)" style="fill: none; stroke: #b0b0b0; stroke-width: 0.8; stroke-linecap: square"/>
     </g>
     <g id="line2d_13">
      <g>
       <use xlink:href="#mc70c2bf3cc" x="75.932857" y="249.296007" style="stroke: #000000; stroke-width: 0.8"/>
      </g>
     </g>
     <g id="text_12">
      <!-- $\mathdefault{10^{-4}}$ -->
      <g transform="translate(37.092857 255.374757) scale(0.16 -0.16)">
       <use xlink:href="#OpenSans-Regular-31" transform="translate(0 0.292188)"/>
       <use xlink:href="#OpenSans-Regular-30" transform="translate(57.177734 0.292188)"/>
       <use xlink:href="#OpenSans-Regular-2212" transform="translate(115.291992 37.753125) scale(0.7)"/>
       <use xlink:href="#OpenSans-Regular-34" transform="translate(155.316406 37.753125) scale(0.7)"/>
      </g>
     </g>
    </g>
    <g id="ytick_3">
     <g id="line2d_14">
      <path d="M 75.932857 197.112014 
L 828.36 197.112014 
" clip-path="url(#p33f9da2e44)" style="fill: none; stroke: #b0b0b0; stroke-width: 0.8; stroke-linecap: square"/>
     </g>
     <g id="line2d_15">
      <g>
       <use xlink:href="#mc70c2bf3cc" x="75.932857" y="197.112014" style="stroke: #000000; stroke-width: 0.8"/>
      </g>
     </g>
     <g id="text_13">
      <!-- $\mathdefault{10^{-3}}$ -->
      <g transform="translate(37.092857 203.190764) scale(0.16 -0.16)">
       <use xlink:href="#OpenSans-Regular-31" transform="translate(0 0.854688)"/>
       <use xlink:href="#OpenSans-Regular-30" transform="translate(57.177734 0.854688)"/>
       <use xlink:href="#OpenSans-Regular-2212" transform="translate(115.291992 38.315625) scale(0.7)"/>
       <use xlink:href="#OpenSans-Regular-33" transform="translate(155.316406 38.315625) scale(0.7)"/>
      </g>
     </g>
    </g>
    <g id="ytick_4">
     <g id="line2d_16">
      <path d="M 75.932857 144.928021 
L 828.36 144.928021 
" clip-path="url(#p33f9da2e44)" style="fill: none; stroke: #b0b0b0; stroke-width: 0.8; stroke-linecap: square"/>
     </g>
     <g id="line2d_17">
      <g>
       <use xlink:href="#mc70c2bf3cc" x="75.932857" y="144.928021" style="stroke: #000000; stroke-width: 0.8"/>
      </g>
     </g>
     <g id="text_14">
      <!-- $\mathdefault{10^{-2}}$ -->
      <g transform="translate(37.092857 151.006771) scale(0.16 -0.16)">
       <use xlink:href="#OpenSans-Regular-31" transform="translate(0 0.854688)"/>
       <use xlink:href="#OpenSans-Regular-30" transform="translate(57.177734 0.854688)"/>
       <use xlink:href="#OpenSans-Regular-2212" transform="translate(115.291992 38.315625) scale(0.7)"/>
       <use xlink:href="#OpenSans-Regular-32" transform="translate(155.316406 38.315625) scale(0.7)"/>
      </g>
     </g>
    </g>
    <g id="ytick_5">
     <g id="line2d_18">
      <path d="M 75.932857 92.744028 
L 828.36 92.744028 
" clip-path="url(#p33f9da2e44)" style="fill: none; stroke: #b0b0b0; stroke-width: 0.8; stroke-linecap: square"/>
     </g>
     <g id="line2d_19">
      <g>
       <use xlink:href="#mc70c2bf3cc" x="75.932857" y="92.744028" style="stroke: #000000; stroke-width: 0.8"/>
      </g>
     </g>
     <g id="text_15">
      <!-- $\mathdefault{10^{-1}}$ -->
      <g transform="translate(37.092857 98.822778) scale(0.16 -0.16)">
       <use xlink:href="#OpenSans-Regular-31" transform="translate(0 0.565625)"/>
       <use xlink:href="#OpenSans-Regular-30" transform="translate(57.177734 0.565625)"/>
       <use xlink:href="#OpenSans-Regular-2212" transform="translate(115.291992 38.026563) scale(0.7)"/>
       <use xlink:href="#OpenSans-Regular-31" transform="translate(155.316406 38.026563) scale(0.7)"/>
      </g>
     </g>
    </g>
    <g id="ytick_6">
     <g id="line2d_20">
      <path d="M 75.932857 40.560036 
L 828.36 40.560036 
" clip-path="url(#p33f9da2e44)" style="fill: none; stroke: #b0b0b0; stroke-width: 0.8; stroke-linecap: square"/>
     </g>
     <g id="line2d_21">
      <g>
       <use xlink:href="#mc70c2bf3cc" x="75.932857" y="40.560036" style="stroke: #000000; stroke-width: 0.8"/>
      </g>
     </g>
     <g id="text_16">
      <!-- $\mathdefault{10^{0}}$ -->
      <g transform="translate(43.652857 46.638786) scale(0.16 -0.16)">
       <use xlink:href="#OpenSans-Regular-31" transform="translate(0 0.778125)"/>
       <use xlink:href="#OpenSans-Regular-30" transform="translate(57.177734 0.778125)"/>
       <use xlink:href="#OpenSans-Regular-30" transform="translate(115.291992 38.239063) scale(0.7)"/>
      </g>
     </g>
    </g>
    <g id="ytick_7">
     <g id="line2d_22">
      <defs>
       <path id="md1c9155679" d="M 0 0 
L -2 0 
" style="stroke: #000000; stroke-width: 0.6"/>
      </defs>
      <g>
       <use xlink:href="#md1c9155679" x="75.932857" y="285.771053" style="stroke: #000000; stroke-width: 0.6"/>
      </g>
     </g>
    </g>
    <g id="ytick_8">
     <g id="line2d_23">
      <g>
       <use xlink:href="#md1c9155679" x="75.932857" y="276.581908" style="stroke: #000000; stroke-width: 0.6"/>
      </g>
     </g>
    </g>
    <g id="ytick_9">
     <g id="line2d_24">
      <g>
       <use xlink:href="#md1c9155679" x="75.932857" y="270.062106" style="stroke: #000000; stroke-width: 0.6"/>
      </g>
     </g>
    </g>
    <g id="ytick_10">
     <g id="line2d_25">
      <g>
       <use xlink:href="#md1c9155679" x="75.932857" y="265.004954" style="stroke: #000000; stroke-width: 0.6"/>
      </g>
     </g>
    </g>
    <g id="ytick_11">
     <g id="line2d_26">
      <g>
       <use xlink:href="#md1c9155679" x="75.932857" y="260.872961" style="stroke: #000000; stroke-width: 0.6"/>
      </g>
     </g>
    </g>
    <g id="ytick_12">
     <g id="line2d_27">
      <g>
       <use xlink:href="#md1c9155679" x="75.932857" y="257.37941" style="stroke: #000000; stroke-width: 0.6"/>
      </g>
     </g>
    </g>
    <g id="ytick_13">
     <g id="line2d_28">
      <g>
       <use xlink:href="#md1c9155679" x="75.932857" y="254.353159" style="stroke: #000000; stroke-width: 0.6"/>
      </g>
     </g>
    </g>
    <g id="ytick_14">
     <g id="line2d_29">
      <g>
       <use xlink:href="#md1c9155679" x="75.932857" y="251.683816" style="stroke: #000000; stroke-width: 0.6"/>
      </g>
     </g>
    </g>
    <g id="ytick_15">
     <g id="line2d_30">
      <g>
       <use xlink:href="#md1c9155679" x="75.932857" y="233.58706" style="stroke: #000000; stroke-width: 0.6"/>
      </g>
     </g>
    </g>
    <g id="ytick_16">
     <g id="line2d_31">
      <g>
       <use xlink:href="#md1c9155679" x="75.932857" y="224.397915" style="stroke: #000000; stroke-width: 0.6"/>
      </g>
     </g>
    </g>
    <g id="ytick_17">
     <g id="line2d_32">
      <g>
       <use xlink:href="#md1c9155679" x="75.932857" y="217.878113" style="stroke: #000000; stroke-width: 0.6"/>
      </g>
     </g>
    </g>
    <g id="ytick_18">
     <g id="line2d_33">
      <g>
       <use xlink:href="#md1c9155679" x="75.932857" y="212.820961" style="stroke: #000000; stroke-width: 0.6"/>
      </g>
     </g>
    </g>
    <g id="ytick_19">
     <g id="line2d_34">
      <g>
       <use xlink:href="#md1c9155679" x="75.932857" y="208.688968" style="stroke: #000000; stroke-width: 0.6"/>
      </g>
     </g>
    </g>
    <g id="ytick_20">
     <g id="line2d_35">
      <g>
       <use xlink:href="#md1c9155679" x="75.932857" y="205.195417" style="stroke: #000000; stroke-width: 0.6"/>
      </g>
     </g>
    </g>
    <g id="ytick_21">
     <g id="line2d_36">
      <g>
       <use xlink:href="#md1c9155679" x="75.932857" y="202.169166" style="stroke: #000000; stroke-width: 0.6"/>
      </g>
     </g>
    </g>
    <g id="ytick_22">
     <g id="line2d_37">
      <g>
       <use xlink:href="#md1c9155679" x="75.932857" y="199.499823" style="stroke: #000000; stroke-width: 0.6"/>
      </g>
     </g>
    </g>
    <g id="ytick_23">
     <g id="line2d_38">
      <g>
       <use xlink:href="#md1c9155679" x="75.932857" y="181.403067" style="stroke: #000000; stroke-width: 0.6"/>
      </g>
     </g>
    </g>
    <g id="ytick_24">
     <g id="line2d_39">
      <g>
       <use xlink:href="#md1c9155679" x="75.932857" y="172.213922" style="stroke: #000000; stroke-width: 0.6"/>
      </g>
     </g>
    </g>
    <g id="ytick_25">
     <g id="line2d_40">
      <g>
       <use xlink:href="#md1c9155679" x="75.932857" y="165.69412" style="stroke: #000000; stroke-width: 0.6"/>
      </g>
     </g>
    </g>
    <g id="ytick_26">
     <g id="line2d_41">
      <g>
       <use xlink:href="#md1c9155679" x="75.932857" y="160.636969" style="stroke: #000000; stroke-width: 0.6"/>
      </g>
     </g>
    </g>
    <g id="ytick_27">
     <g id="line2d_42">
      <g>
       <use xlink:href="#md1c9155679" x="75.932857" y="156.504975" style="stroke: #000000; stroke-width: 0.6"/>
      </g>
     </g>
    </g>
    <g id="ytick_28">
     <g id="line2d_43">
      <g>
       <use xlink:href="#md1c9155679" x="75.932857" y="153.011424" style="stroke: #000000; stroke-width: 0.6"/>
      </g>
     </g>
    </g>
    <g id="ytick_29">
     <g id="line2d_44">
      <g>
       <use xlink:href="#md1c9155679" x="75.932857" y="149.985173" style="stroke: #000000; stroke-width: 0.6"/>
      </g>
     </g>
    </g>
    <g id="ytick_30">
     <g id="line2d_45">
      <g>
       <use xlink:href="#md1c9155679" x="75.932857" y="147.31583" style="stroke: #000000; stroke-width: 0.6"/>
      </g>
     </g>
    </g>
    <g id="ytick_31">
     <g id="line2d_46">
      <g>
       <use xlink:href="#md1c9155679" x="75.932857" y="129.219074" style="stroke: #000000; stroke-width: 0.6"/>
      </g>
     </g>
    </g>
    <g id="ytick_32">
     <g id="line2d_47">
      <g>
       <use xlink:href="#md1c9155679" x="75.932857" y="120.029929" style="stroke: #000000; stroke-width: 0.6"/>
      </g>
     </g>
    </g>
    <g id="ytick_33">
     <g id="line2d_48">
      <g>
       <use xlink:href="#md1c9155679" x="75.932857" y="113.510127" style="stroke: #000000; stroke-width: 0.6"/>
      </g>
     </g>
    </g>
    <g id="ytick_34">
     <g id="line2d_49">
      <g>
       <use xlink:href="#md1c9155679" x="75.932857" y="108.452976" style="stroke: #000000; stroke-width: 0.6"/>
      </g>
     </g>
    </g>
    <g id="ytick_35">
     <g id="line2d_50">
      <g>
       <use xlink:href="#md1c9155679" x="75.932857" y="104.320982" style="stroke: #000000; stroke-width: 0.6"/>
      </g>
     </g>
    </g>
    <g id="ytick_36">
     <g id="line2d_51">
      <g>
       <use xlink:href="#md1c9155679" x="75.932857" y="100.827431" style="stroke: #000000; stroke-width: 0.6"/>
      </g>
     </g>
    </g>
    <g id="ytick_37">
     <g id="line2d_52">
      <g>
       <use xlink:href="#md1c9155679" x="75.932857" y="97.80118" style="stroke: #000000; stroke-width: 0.6"/>
      </g>
     </g>
    </g>
    <g id="ytick_38">
     <g id="line2d_53">
      <g>
       <use xlink:href="#md1c9155679" x="75.932857" y="95.131837" style="stroke: #000000; stroke-width: 0.6"/>
      </g>
     </g>
    </g>
    <g id="ytick_39">
     <g id="line2d_54">
      <g>
       <use xlink:href="#md1c9155679" x="75.932857" y="77.035081" style="stroke: #000000; stroke-width: 0.6"/>
      </g>
     </g>
    </g>
    <g id="ytick_40">
     <g id="line2d_55">
      <g>
       <use xlink:href="#md1c9155679" x="75.932857" y="67.845936" style="stroke: #000000; stroke-width: 0.6"/>
      </g>
     </g>
    </g>
    <g id="ytick_41">
     <g id="line2d_56">
      <g>
       <use xlink:href="#md1c9155679" x="75.932857" y="61.326134" style="stroke: #000000; stroke-width: 0.6"/>
      </g>
     </g>
    </g>
    <g id="ytick_42">
     <g id="line2d_57">
      <g>
       <use xlink:href="#md1c9155679" x="75.932857" y="56.268983" style="stroke: #000000; stroke-width: 0.6"/>
      </g>
     </g>
    </g>
    <g id="ytick_43">
     <g id="line2d_58">
      <g>
       <use xlink:href="#md1c9155679" x="75.932857" y="52.136989" style="stroke: #000000; stroke-width: 0.6"/>
      </g>
     </g>
    </g>
    <g id="ytick_44">
     <g id="line2d_59">
      <g>
       <use xlink:href="#md1c9155679" x="75.932857" y="48.643438" style="stroke: #000000; stroke-width: 0.6"/>
      </g>
     </g>
    </g>
    <g id="ytick_45">
     <g id="line2d_60">
      <g>
       <use xlink:href="#md1c9155679" x="75.932857" y="45.617187" style="stroke: #000000; stroke-width: 0.6"/>
      </g>
     </g>
    </g>
    <g id="ytick_46">
     <g id="line2d_61">
      <g>
       <use xlink:href="#md1c9155679" x="75.932857" y="42.947844" style="stroke: #000000; stroke-width: 0.6"/>
      </g>
     </g>
    </g>
    <g id="text_17">
     <!-- Average infidelity -->
     <g transform="translate(29.240357 234.04125) rotate(-90) scale(0.16 -0.16)">
      <defs>
       <path id="OpenSans-Regular-41" d="M 3491 0 
L 2928 1450 
L 1097 1450 
L 538 0 
L 0 0 
L 1788 4588 
L 2266 4588 
L 4041 0 
L 3491 0 
z
M 2769 1922 
L 2234 3363 
Q 2216 3419 2173 3547 
Q 2131 3675 2087 3812 
Q 2044 3950 2016 4034 
Q 1984 3906 1948 3779 
Q 1913 3653 1878 3545 
Q 1844 3438 1819 3363 
L 1275 1922 
L 2769 1922 
z
" transform="scale(0.015625)"/>
       <path id="OpenSans-Regular-67" d="M 1503 -1538 
Q 828 -1538 462 -1286 
Q 97 -1034 97 -581 
Q 97 -259 301 -31 
Q 506 197 869 272 
Q 734 334 639 459 
Q 544 584 544 747 
Q 544 934 648 1076 
Q 753 1219 969 1350 
Q 700 1459 533 1720 
Q 366 1981 366 2328 
Q 366 2697 519 2958 
Q 672 3219 962 3356 
Q 1253 3494 1666 3494 
Q 1756 3494 1848 3486 
Q 1941 3478 2025 3464 
Q 2109 3450 2172 3431 
L 3347 3431 
L 3347 3097 
L 2716 3019 
Q 2809 2897 2871 2725 
Q 2934 2553 2934 2344 
Q 2934 1831 2587 1529 
Q 2241 1228 1634 1228 
Q 1491 1228 1341 1253 
Q 1188 1169 1108 1066 
Q 1028 963 1028 828 
Q 1028 728 1089 668 
Q 1150 609 1265 582 
Q 1381 556 1544 556 
L 2147 556 
Q 2706 556 3004 322 
Q 3303 88 3303 -363 
Q 3303 -931 2840 -1234 
Q 2378 -1538 1503 -1538 
z
M 1519 -1131 
Q 1944 -1131 2223 -1045 
Q 2503 -959 2642 -798 
Q 2781 -638 2781 -416 
Q 2781 -209 2687 -104 
Q 2594 0 2412 36 
Q 2231 72 1969 72 
L 1375 72 
Q 1144 72 972 0 
Q 800 -72 708 -212 
Q 616 -353 616 -563 
Q 616 -841 850 -986 
Q 1084 -1131 1519 -1131 
z
M 1653 1606 
Q 2025 1606 2212 1793 
Q 2400 1981 2400 2341 
Q 2400 2725 2209 2917 
Q 2019 3109 1647 3109 
Q 1291 3109 1098 2911 
Q 906 2713 906 2331 
Q 906 1981 1100 1793 
Q 1294 1606 1653 1606 
z
" transform="scale(0.015625)"/>
       <path id="OpenSans-Regular-64" d="M 1766 -63 
Q 1116 -63 736 381 
Q 356 825 356 1700 
Q 356 2584 743 3036 
Q 1131 3488 1775 3488 
Q 2047 3488 2250 3416 
Q 2453 3344 2600 3223 
Q 2747 3103 2847 2950 
L 2884 2950 
Q 2872 3047 2859 3215 
Q 2847 3384 2847 3491 
L 2847 4863 
L 3366 4863 
L 3366 0 
L 2947 0 
L 2869 488 
L 2847 488 
Q 2750 334 2601 209 
Q 2453 84 2248 10 
Q 2044 -63 1766 -63 
z
M 1847 369 
Q 2397 369 2625 681 
Q 2853 994 2853 1609 
L 2853 1703 
Q 2853 2356 2636 2706 
Q 2419 3056 1847 3056 
Q 1369 3056 1131 2689 
Q 894 2322 894 1688 
Q 894 1056 1130 712 
Q 1366 369 1847 369 
z
" transform="scale(0.015625)"/>
       <path id="OpenSans-Regular-79" d="M 6 3425 
L 563 3425 
L 1319 1438 
Q 1384 1263 1440 1102 
Q 1497 941 1540 794 
Q 1584 647 1609 509 
L 1631 509 
Q 1675 666 1756 920 
Q 1838 1175 1931 1441 
L 2647 3425 
L 3206 3425 
L 1716 -503 
Q 1597 -819 1439 -1053 
Q 1281 -1288 1056 -1414 
Q 831 -1541 513 -1541 
Q 366 -1541 253 -1523 
Q 141 -1506 59 -1484 
L 59 -1069 
Q 128 -1084 226 -1096 
Q 325 -1109 431 -1109 
Q 625 -1109 767 -1036 
Q 909 -963 1012 -822 
Q 1116 -681 1191 -488 
L 1378 -6 
L 6 3425 
z
" transform="scale(0.015625)"/>
      </defs>
      <use xlink:href="#OpenSans-Regular-41"/>
      <use xlink:href="#OpenSans-Regular-76" x="63.232422"/>
      <use xlink:href="#OpenSans-Regular-65" x="113.183594"/>
      <use xlink:href="#OpenSans-Regular-72" x="169.335938"/>
      <use xlink:href="#OpenSans-Regular-61" x="210.205078"/>
      <use xlink:href="#OpenSans-Regular-67" x="265.771484"/>
      <use xlink:href="#OpenSans-Regular-65" x="320.068359"/>
      <use xlink:href="#OpenSans-Regular-20" x="376.220703"/>
      <use xlink:href="#OpenSans-Regular-69" x="402.197266"/>
      <use xlink:href="#OpenSans-Regular-6e" x="427.441406"/>
      <use xlink:href="#OpenSans-Regular-66" x="488.769531"/>
      <use xlink:href="#OpenSans-Regular-69" x="522.412109"/>
      <use xlink:href="#OpenSans-Regular-64" x="547.65625"/>
      <use xlink:href="#OpenSans-Regular-65" x="608.837891"/>
      <use xlink:href="#OpenSans-Regular-6c" x="664.990234"/>
      <use xlink:href="#OpenSans-Regular-69" x="690.234375"/>
      <use xlink:href="#OpenSans-Regular-74" x="715.478516"/>
      <use xlink:href="#OpenSans-Regular-79" x="751.123047"/>
     </g>
    </g>
   </g>
   <g id="line2d_62">
    <path d="M 99.540259 92.838399 
L 120.702272 128.787041 
L 139.701058 160.456094 
L 156.066348 189.854911 
L 172.243532 197.414765 
L 190.395836 201.188152 
L 204.315738 203.321236 
L 223.408577 202.354833 
L 241.466829 203.548328 
L 254.634304 204.973289 
" clip-path="url(#p33f9da2e44)" style="fill: none; stroke-dasharray: 5.55,2.4; stroke-dashoffset: 0; stroke: #4477aa; stroke-width: 1.5"/>
   </g>
   <g id="line2d_63">
    <path d="M 141.864286 138.544416 
L 178.074842 180.971731 
L 214.003238 204.315372 
L 248.238673 214.575957 
L 279.652506 224.535995 
L 310.502019 236.968843 
L 341.915852 249.104918 
L 369.28539 253.211758 
L 395.526286 256.569114 
L 419.227741 256.0492 
" clip-path="url(#p33f9da2e44)" style="fill: none; stroke-dasharray: 5.55,2.4; stroke-dashoffset: 0; stroke: #ee6677; stroke-width: 1.5"/>
   </g>
   <g id="line2d_64">
    <path d="M 217.201053 156.535438 
L 282.474108 205.729246 
L 337.307236 230.427478 
L 391.293883 239.652309 
L 445.374584 245.139644 
L 501.712567 249.614656 
L 557.580282 250.683072 
L 614.576638 253.409541 
L 669.597873 255.583044 
L 727.440709 258.811365 
" clip-path="url(#p33f9da2e44)" style="fill: none; stroke-dasharray: 5.55,2.4; stroke-dashoffset: 0; stroke: #228833; stroke-width: 1.5"/>
   </g>
   <g id="line2d_65">
    <path d="M 334.673741 173.293581 
L 433.523857 224.938569 
L 526.072395 244.558917 
L 614.106371 255.551864 
L 701.011706 260.957548 
L 787.446774 264.891452 
L 865 267.577598 
" clip-path="url(#p33f9da2e44)" style="fill: none; stroke-dasharray: 5.55,2.4; stroke-dashoffset: 0; stroke: #ccbb44; stroke-width: 1.5"/>
   </g>
   <g id="patch_3">
    <path d="M 75.932857 301.48 
L 75.932857 38.4 
" style="fill: none; stroke: #000000; stroke-width: 0.8; stroke-linejoin: miter; stroke-linecap: square"/>
   </g>
   <g id="patch_4">
    <path d="M 828.36 301.48 
L 828.36 38.4 
" style="fill: none; stroke: #000000; stroke-width: 0.8; stroke-linejoin: miter; stroke-linecap: square"/>
   </g>
   <g id="patch_5">
    <path d="M 75.932857 301.48 
L 828.36 301.48 
" style="fill: none; stroke: #000000; stroke-width: 0.8; stroke-linejoin: miter; stroke-linecap: square"/>
   </g>
   <g id="patch_6">
    <path d="M 75.932857 38.4 
L 828.36 38.4 
" style="fill: none; stroke: #000000; stroke-width: 0.8; stroke-linejoin: miter; stroke-linecap: square"/>
   </g>
   <g id="text_18">
    <!-- Computational cost of neighbor-average re-optimization -->
    <g transform="translate(200.903929 32.4) scale(0.192 -0.192)">
     <defs>
      <path id="OpenSans-Regular-70" d="M 2156 3488 
Q 2797 3488 3178 3047 
Q 3559 2606 3559 1722 
Q 3559 1138 3384 741 
Q 3209 344 2892 140 
Q 2575 -63 2144 -63 
Q 1872 -63 1665 9 
Q 1459 81 1312 203 
Q 1166 325 1069 469 
L 1031 469 
Q 1041 347 1055 175 
Q 1069 3 1069 -125 
L 1069 -1531 
L 547 -1531 
L 547 3425 
L 975 3425 
L 1044 2919 
L 1069 2919 
Q 1169 3075 1312 3204 
Q 1456 3334 1664 3411 
Q 1872 3488 2156 3488 
z
M 2066 3050 
Q 1709 3050 1492 2912 
Q 1275 2775 1175 2501 
Q 1075 2228 1069 1816 
L 1069 1716 
Q 1069 1281 1164 981 
Q 1259 681 1479 525 
Q 1700 369 2072 369 
Q 2391 369 2603 541 
Q 2816 713 2920 1020 
Q 3025 1328 3025 1728 
Q 3025 2334 2789 2692 
Q 2553 3050 2066 3050 
z
" transform="scale(0.015625)"/>
      <path id="OpenSans-Regular-63" d="M 1919 -63 
Q 1456 -63 1103 128 
Q 750 319 553 709 
Q 356 1100 356 1694 
Q 356 2316 564 2711 
Q 772 3106 1137 3297 
Q 1503 3488 1969 3488 
Q 2225 3488 2464 3436 
Q 2703 3384 2856 3306 
L 2700 2872 
Q 2544 2934 2339 2984 
Q 2134 3034 1956 3034 
Q 1600 3034 1364 2881 
Q 1128 2728 1011 2431 
Q 894 2134 894 1700 
Q 894 1284 1008 990 
Q 1122 697 1348 542 
Q 1575 388 1916 388 
Q 2188 388 2406 445 
Q 2625 503 2803 581 
L 2803 119 
Q 2631 31 2420 -16 
Q 2209 -63 1919 -63 
z
" transform="scale(0.015625)"/>
      <path id="OpenSans-Regular-68" d="M 1066 4863 
L 1066 3409 
Q 1066 3284 1059 3157 
Q 1053 3031 1038 2925 
L 1072 2925 
Q 1178 3106 1342 3229 
Q 1506 3353 1715 3417 
Q 1925 3481 2159 3481 
Q 2572 3481 2848 3350 
Q 3125 3219 3264 2944 
Q 3403 2669 3403 2231 
L 3403 0 
L 2891 0 
L 2891 2197 
Q 2891 2625 2695 2837 
Q 2500 3050 2097 3050 
Q 1716 3050 1489 2904 
Q 1263 2759 1164 2478 
Q 1066 2197 1066 1791 
L 1066 0 
L 547 0 
L 547 4863 
L 1066 4863 
z
" transform="scale(0.015625)"/>
      <path id="OpenSans-Regular-2d" d="M 256 1488 
L 256 1950 
L 1806 1950 
L 1806 1488 
L 256 1488 
z
" transform="scale(0.015625)"/>
      <path id="OpenSans-Regular-7a" d="M 2747 0 
L 250 0 
L 250 344 
L 2128 3019 
L 369 3019 
L 369 3425 
L 2706 3425 
L 2706 3041 
L 853 403 
L 2747 403 
L 2747 0 
z
" transform="scale(0.015625)"/>
     </defs>
     <use xlink:href="#OpenSans-Regular-43"/>
     <use xlink:href="#OpenSans-Regular-6f" x="62.988281"/>
     <use xlink:href="#OpenSans-Regular-6d" x="123.144531"/>
     <use xlink:href="#OpenSans-Regular-70" x="215.722656"/>
     <use xlink:href="#OpenSans-Regular-75" x="276.904297"/>
     <use xlink:href="#OpenSans-Regular-74" x="338.232422"/>
     <use xlink:href="#OpenSans-Regular-61" x="373.876953"/>
     <use xlink:href="#OpenSans-Regular-74" x="429.443359"/>
     <use xlink:href="#OpenSans-Regular-69" x="465.087891"/>
     <use xlink:href="#OpenSans-Regular-6f" x="490.332031"/>
     <use xlink:href="#OpenSans-Regular-6e" x="550.488281"/>
     <use xlink:href="#OpenSans-Regular-61" x="611.816406"/>
     <use xlink:href="#OpenSans-Regular-6c" x="667.382812"/>
     <use xlink:href="#OpenSans-Regular-20" x="692.626953"/>
     <use xlink:href="#OpenSans-Regular-63" x="718.603516"/>
     <use xlink:href="#OpenSans-Regular-6f" x="766.503906"/>
     <use xlink:href="#OpenSans-Regular-73" x="826.660156"/>
     <use xlink:href="#OpenSans-Regular-74" x="874.316406"/>
     <use xlink:href="#OpenSans-Regular-20" x="909.960938"/>
     <use xlink:href="#OpenSans-Regular-6f" x="935.9375"/>
     <use xlink:href="#OpenSans-Regular-66" x="996.09375"/>
     <use xlink:href="#OpenSans-Regular-20" x="1029.736328"/>
     <use xlink:href="#OpenSans-Regular-6e" x="1055.712891"/>
     <use xlink:href="#OpenSans-Regular-65" x="1117.041016"/>
     <use xlink:href="#OpenSans-Regular-69" x="1173.193359"/>
     <use xlink:href="#OpenSans-Regular-67" x="1198.4375"/>
     <use xlink:href="#OpenSans-Regular-68" x="1252.734375"/>
     <use xlink:href="#OpenSans-Regular-62" x="1314.0625"/>
     <use xlink:href="#OpenSans-Regular-6f" x="1375.244141"/>
     <use xlink:href="#OpenSans-Regular-72" x="1435.400391"/>
     <use xlink:href="#OpenSans-Regular-2d" x="1476.269531"/>
     <use xlink:href="#OpenSans-Regular-61" x="1508.447266"/>
     <use xlink:href="#OpenSans-Regular-76" x="1564.013672"/>
     <use xlink:href="#OpenSans-Regular-65" x="1613.964844"/>
     <use xlink:href="#OpenSans-Regular-72" x="1670.117188"/>
     <use xlink:href="#OpenSans-Regular-61" x="1710.986328"/>
     <use xlink:href="#OpenSans-Regular-67" x="1766.552734"/>
     <use xlink:href="#OpenSans-Regular-65" x="1820.849609"/>
     <use xlink:href="#OpenSans-Regular-20" x="1877.001953"/>
     <use xlink:href="#OpenSans-Regular-72" x="1902.978516"/>
     <use xlink:href="#OpenSans-Regular-65" x="1943.847656"/>
     <use xlink:href="#OpenSans-Regular-2d" x="2000"/>
     <use xlink:href="#OpenSans-Regular-6f" x="2032.177734"/>
     <use xlink:href="#OpenSans-Regular-70" x="2092.333984"/>
     <use xlink:href="#OpenSans-Regular-74" x="2153.515625"/>
     <use xlink:href="#OpenSans-Regular-69" x="2189.160156"/>
     <use xlink:href="#OpenSans-Regular-6d" x="2214.404297"/>
     <use xlink:href="#OpenSans-Regular-69" x="2306.982422"/>
     <use xlink:href="#OpenSans-Regular-7a" x="2332.226562"/>
     <use xlink:href="#OpenSans-Regular-61" x="2379.101562"/>
     <use xlink:href="#OpenSans-Regular-74" x="2434.667969"/>
     <use xlink:href="#OpenSans-Regular-69" x="2470.3125"/>
     <use xlink:href="#OpenSans-Regular-6f" x="2495.556641"/>
     <use xlink:href="#OpenSans-Regular-6e" x="2555.712891"/>
    </g>
   </g>
   <g id="legend_1">
    <g id="patch_7">
     <path d="M 646.5275 195.1975 
L 817.16 195.1975 
Q 820.36 195.1975 820.36 191.9975 
L 820.36 49.6 
Q 820.36 46.4 817.16 46.4 
L 646.5275 46.4 
Q 643.3275 46.4 643.3275 49.6 
L 643.3275 191.9975 
Q 643.3275 195.1975 646.5275 195.1975 
z
" style="fill: #ffffff; opacity: 0.8; stroke: #cccccc; stroke-linejoin: miter"/>
    </g>
    <g id="PathCollection_11">
     <g>
      <use xlink:href="#m4eacefa758" x="665.7275" y="60.7575" style="fill: #4477aa; stroke: #4477aa"/>
     </g>
    </g>
    <g id="text_19">
     <!-- g = 1/2 (5 pts) -->
     <g transform="translate(694.5275 64.9575) scale(0.16 -0.16)">
      <defs>
       <path id="OpenSans-Regular-3d" d="M 359 2681 
L 359 3103 
L 3291 3103 
L 3291 2681 
L 359 2681 
z
M 359 1403 
L 359 1825 
L 3291 1825 
L 3291 1403 
L 359 1403 
z
" transform="scale(0.015625)"/>
       <path id="OpenSans-Regular-2f" d="M 2278 4569 
L 578 0 
L 66 0 
L 1769 4569 
L 2278 4569 
z
" transform="scale(0.015625)"/>
       <path id="OpenSans-Regular-28" d="M 256 1753 
Q 256 2281 357 2781 
Q 459 3281 668 3734 
Q 878 4188 1197 4569 
L 1694 4569 
Q 1241 3975 1012 3250 
Q 784 2525 784 1759 
Q 784 1259 886 773 
Q 988 288 1189 -162 
Q 1391 -613 1688 -1013 
L 1197 -1013 
Q 878 -638 668 -195 
Q 459 247 357 740 
Q 256 1234 256 1753 
z
" transform="scale(0.015625)"/>
       <path id="OpenSans-Regular-29" d="M 1631 1759 
Q 1631 1238 1529 742 
Q 1428 247 1220 -197 
Q 1013 -641 691 -1013 
L 200 -1013 
Q 500 -616 701 -162 
Q 903 291 1004 777 
Q 1106 1263 1106 1763 
Q 1106 2272 1003 2765 
Q 900 3259 698 3715 
Q 497 4172 194 4569 
L 691 4569 
Q 1013 4184 1220 3732 
Q 1428 3281 1529 2782 
Q 1631 2284 1631 1759 
z
" transform="scale(0.015625)"/>
      </defs>
      <use xlink:href="#OpenSans-Regular-67"/>
      <use xlink:href="#OpenSans-Regular-20" x="54.296875"/>
      <use xlink:href="#OpenSans-Regular-3d" x="80.273438"/>
      <use xlink:href="#OpenSans-Regular-20" x="137.451172"/>
      <use xlink:href="#OpenSans-Regular-31" x="163.427734"/>
      <use xlink:href="#OpenSans-Regular-2f" x="220.605469"/>
      <use xlink:href="#OpenSans-Regular-32" x="257.275391"/>
      <use xlink:href="#OpenSans-Regular-20" x="314.453125"/>
      <use xlink:href="#OpenSans-Regular-28" x="340.429688"/>
      <use xlink:href="#OpenSans-Regular-35" x="369.921875"/>
      <use xlink:href="#OpenSans-Regular-20" x="427.099609"/>
      <use xlink:href="#OpenSans-Regular-70" x="453.076172"/>
      <use xlink:href="#OpenSans-Regular-74" x="514.257812"/>
      <use xlink:href="#OpenSans-Regular-73" x="549.902344"/>
      <use xlink:href="#OpenSans-Regular-29" x="597.558594"/>
     </g>
    </g>
    <g id="PathCollection_12">
     <g>
      <use xlink:href="#m13a3db8f5a" x="665.7275" y="84.76" style="fill: #ee6677; stroke: #ee6677"/>
     </g>
    </g>
    <g id="text_20">
     <!-- g = 1/4 (14 pts) -->
     <g transform="translate(694.5275 88.96) scale(0.16 -0.16)">
      <use xlink:href="#OpenSans-Regular-67"/>
      <use xlink:href="#OpenSans-Regular-20" x="54.296875"/>
      <use xlink:href="#OpenSans-Regular-3d" x="80.273438"/>
      <use xlink:href="#OpenSans-Regular-20" x="137.451172"/>
      <use xlink:href="#OpenSans-Regular-31" x="163.427734"/>
      <use xlink:href="#OpenSans-Regular-2f" x="220.605469"/>
      <use xlink:href="#OpenSans-Regular-34" x="257.275391"/>
      <use xlink:href="#OpenSans-Regular-20" x="314.453125"/>
      <use xlink:href="#OpenSans-Regular-28" x="340.429688"/>
      <use xlink:href="#OpenSans-Regular-31" x="369.921875"/>
      <use xlink:href="#OpenSans-Regular-34" x="427.099609"/>
      <use xlink:href="#OpenSans-Regular-20" x="484.277344"/>
      <use xlink:href="#OpenSans-Regular-70" x="510.253906"/>
      <use xlink:href="#OpenSans-Regular-74" x="571.435547"/>
      <use xlink:href="#OpenSans-Regular-73" x="607.080078"/>
      <use xlink:href="#OpenSans-Regular-29" x="654.736328"/>
     </g>
    </g>
    <g id="PathCollection_13">
     <g>
      <use xlink:href="#m376e4469df" x="665.7275" y="108.7625" style="fill: #228833; stroke: #228833"/>
     </g>
    </g>
    <g id="text_21">
     <!-- g = 1/6 (30 pts) -->
     <g transform="translate(694.5275 112.9625) scale(0.16 -0.16)">
      <use xlink:href="#OpenSans-Regular-67"/>
      <use xlink:href="#OpenSans-Regular-20" x="54.296875"/>
      <use xlink:href="#OpenSans-Regular-3d" x="80.273438"/>
      <use xlink:href="#OpenSans-Regular-20" x="137.451172"/>
      <use xlink:href="#OpenSans-Regular-31" x="163.427734"/>
      <use xlink:href="#OpenSans-Regular-2f" x="220.605469"/>
      <use xlink:href="#OpenSans-Regular-36" x="257.275391"/>
      <use xlink:href="#OpenSans-Regular-20" x="314.453125"/>
      <use xlink:href="#OpenSans-Regular-28" x="340.429688"/>
      <use xlink:href="#OpenSans-Regular-33" x="369.921875"/>
      <use xlink:href="#OpenSans-Regular-30" x="427.099609"/>
      <use xlink:href="#OpenSans-Regular-20" x="484.277344"/>
      <use xlink:href="#OpenSans-Regular-70" x="510.253906"/>
      <use xlink:href="#OpenSans-Regular-74" x="571.435547"/>
      <use xlink:href="#OpenSans-Regular-73" x="607.080078"/>
      <use xlink:href="#OpenSans-Regular-29" x="654.736328"/>
     </g>
    </g>
    <g id="PathCollection_14">
     <g>
      <use xlink:href="#mae3e2674fd" x="665.7275" y="132.765" style="fill: #ccbb44; stroke: #ccbb44"/>
     </g>
    </g>
    <g id="text_22">
     <!-- g = 1/8 (55 pts) -->
     <g transform="translate(694.5275 136.965) scale(0.16 -0.16)">
      <use xlink:href="#OpenSans-Regular-67"/>
      <use xlink:href="#OpenSans-Regular-20" x="54.296875"/>
      <use xlink:href="#OpenSans-Regular-3d" x="80.273438"/>
      <use xlink:href="#OpenSans-Regular-20" x="137.451172"/>
      <use xlink:href="#OpenSans-Regular-31" x="163.427734"/>
      <use xlink:href="#OpenSans-Regular-2f" x="220.605469"/>
      <use xlink:href="#OpenSans-Regular-38" x="257.275391"/>
      <use xlink:href="#OpenSans-Regular-20" x="314.453125"/>
      <use xlink:href="#OpenSans-Regular-28" x="340.429688"/>
      <use xlink:href="#OpenSans-Regular-35" x="369.921875"/>
      <use xlink:href="#OpenSans-Regular-35" x="427.099609"/>
      <use xlink:href="#OpenSans-Regular-20" x="484.277344"/>
      <use xlink:href="#OpenSans-Regular-70" x="510.253906"/>
      <use xlink:href="#OpenSans-Regular-74" x="571.435547"/>
      <use xlink:href="#OpenSans-Regular-73" x="607.080078"/>
      <use xlink:href="#OpenSans-Regular-29" x="654.736328"/>
     </g>
    </g>
    <g id="PathCollection_15">
     <g>
      <use xlink:href="#mddd0ea70d3" x="665.7275" y="156.7675" style="stroke: #000000"/>
     </g>
    </g>
    <g id="text_23">
     <!-- average value -->
     <g transform="translate(694.5275 160.9675) scale(0.16 -0.16)">
      <use xlink:href="#OpenSans-Regular-61"/>
      <use xlink:href="#OpenSans-Regular-76" x="55.566406"/>
      <use xlink:href="#OpenSans-Regular-65" x="105.517578"/>
      <use xlink:href="#OpenSans-Regular-72" x="161.669922"/>
      <use xlink:href="#OpenSans-Regular-61" x="202.539062"/>
      <use xlink:href="#OpenSans-Regular-67" x="258.105469"/>
      <use xlink:href="#OpenSans-Regular-65" x="312.402344"/>
      <use xlink:href="#OpenSans-Regular-20" x="368.554688"/>
      <use xlink:href="#OpenSans-Regular-76" x="394.53125"/>
      <use xlink:href="#OpenSans-Regular-61" x="444.482422"/>
      <use xlink:href="#OpenSans-Regular-6c" x="500.048828"/>
      <use xlink:href="#OpenSans-Regular-75" x="525.292969"/>
      <use xlink:href="#OpenSans-Regular-65" x="586.621094"/>
     </g>
    </g>
    <g id="PathCollection_16">
     <g>
      <use xlink:href="#mf0451a9e87" x="665.7275" y="180.77" style="stroke: #000000; stroke-width: 1.5"/>
     </g>
    </g>
    <g id="text_24">
     <!-- maximum value -->
     <g transform="translate(694.5275 184.97) scale(0.16 -0.16)">
      <defs>
       <path id="OpenSans-Regular-78" d="M 1363 1753 
L 178 3425 
L 772 3425 
L 1675 2106 
L 2575 3425 
L 3163 3425 
L 1978 1753 
L 3228 0 
L 2634 0 
L 1675 1397 
L 709 0 
L 122 0 
L 1363 1753 
z
" transform="scale(0.015625)"/>
      </defs>
      <use xlink:href="#OpenSans-Regular-6d"/>
      <use xlink:href="#OpenSans-Regular-61" x="92.578125"/>
      <use xlink:href="#OpenSans-Regular-78" x="148.144531"/>
      <use xlink:href="#OpenSans-Regular-69" x="200.488281"/>
      <use xlink:href="#OpenSans-Regular-6d" x="225.732422"/>
      <use xlink:href="#OpenSans-Regular-75" x="318.310547"/>
      <use xlink:href="#OpenSans-Regular-6d" x="379.638672"/>
      <use xlink:href="#OpenSans-Regular-20" x="472.216797"/>
      <use xlink:href="#OpenSans-Regular-76" x="498.193359"/>
      <use xlink:href="#OpenSans-Regular-61" x="548.144531"/>
      <use xlink:href="#OpenSans-Regular-6c" x="603.710938"/>
      <use xlink:href="#OpenSans-Regular-75" x="628.955078"/>
      <use xlink:href="#OpenSans-Regular-65" x="690.283203"/>
     </g>
    </g>
   </g>
  </g>
 </g>
 <defs>
  <clipPath id="p33f9da2e44">
   <rect x="75.932857" y="38.4" width="752.427143" height="263.08"/>
  </clipPath>
 </defs>
</svg>
