<?xml version="1.0" encoding="utf-8" standalone="no"?>
<!DOCTYPE svg PUBLIC "-//W3C//DTD SVG 1.1//EN"
  "http://www.w3.org/Graphics/SVG/1.1/DTD/svg11.dtd">
<svg xmlns:xlink="http://www.w3.org/1999/xlink" width="648pt" height="432pt" viewBox="0 0 648 432" xmlns="http://www.w3.org/2000/svg" version="1.1">
 <metadata>
  <rdf:RDF xmlns:dc="http://purl.org/dc/elements/1.1/" xmlns:cc="http://creativecommons.org/ns#" xmlns:rdf="http://www.w3.org/1999/02/22-rdf-syntax-ns#">
   <cc:Work>
    <dc:type rdf:resource="http://purl.org/dc/dcmitype/StillImage"/>
    <dc:date>2023-04-28T13:59:50.667242</dc:date>
    <dc:format>image/svg+xml</dc:format>
    <dc:creator>
     <cc:Agent>
      <dc:title>Matplotlib v3.7.1, https://matplotlib.org/</dc:title>
     </cc:Agent>
    </dc:creator>
   </cc:Work>
  </rdf:RDF>
 </metadata>
 <defs>
  <style type="text/css">*{stroke-linejoin: round; stroke-linecap: butt}</style>
 </defs>
 <g id="figure_1">
  <g id="patch_1">
   <path d="M 0 432 
L 648 432 
L 648 0 
L 0 0 
z
" style="fill: #ffffff"/>
  </g>
  <g id="axes_1">
   <g id="patch_2">
    <path d="M 75.932857 373.48 
L 630.72 373.48 
L 630.72 38.4 
L 75.932857 38.4 
z
" style="fill: #ffffff"/>
   </g>
   <g id="PathCollection_1">
    <defs>
     <path id="mad3a0a9efd" d="M 0 3 
C 0.795609 3 1.55874 2.683901 2.12132 2.12132 
C 2.683901 1.55874 3 0.795609 3 0 
C 3 -0.795609 2.683901 -1.55874 2.12132 -2.12132 
C 1.55874 -2.683901 0.795609 -3 0 -3 
C -0.795609 -3 -1.55874 -2.683901 -2.12132 -2.12132 
C -2.683901 -1.55874 -3 -0.795609 -3 0 
C -3 0.795609 -2.683901 1.55874 -2.12132 2.12132 
C -1.55874 2.683901 -0.795609 3 0 3 
z
" style="stroke: #4477aa"/>
    </defs>
    <g clip-path="url(#p4593e1b479)">
     <use xlink:href="#mad3a0a9efd" x="101.150455" y="107.737154" style="fill: #4477aa; stroke: #4477aa"/>
     <use xlink:href="#mad3a0a9efd" x="157.18956" y="153.524258" style="fill: #4477aa; stroke: #4477aa"/>
     <use xlink:href="#mad3a0a9efd" x="213.228665" y="193.860529" style="fill: #4477aa; stroke: #4477aa"/>
     <use xlink:href="#mad3a0a9efd" x="269.267771" y="231.305244" style="fill: #4477aa; stroke: #4477aa"/>
     <use xlink:href="#mad3a0a9efd" x="325.306876" y="240.934087" style="fill: #4477aa; stroke: #4477aa"/>
     <use xlink:href="#mad3a0a9efd" x="381.345981" y="245.740178" style="fill: #4477aa; stroke: #4477aa"/>
     <use xlink:href="#mad3a0a9efd" x="437.385087" y="248.457046" style="fill: #4477aa; stroke: #4477aa"/>
     <use xlink:href="#mad3a0a9efd" x="493.424192" y="247.226157" style="fill: #4477aa; stroke: #4477aa"/>
     <use xlink:href="#mad3a0a9efd" x="549.463297" y="248.746289" style="fill: #4477aa; stroke: #4477aa"/>
     <use xlink:href="#mad3a0a9efd" x="605.502403" y="250.561235" style="fill: #4477aa; stroke: #4477aa"/>
    </g>
   </g>
   <g id="PathCollection_2">
    <defs>
     <path id="m6dd9069a19" d="M 0 3 
C 0.795609 3 1.55874 2.683901 2.12132 2.12132 
C 2.683901 1.55874 3 0.795609 3 0 
C 3 -0.795609 2.683901 -1.55874 2.12132 -2.12132 
C 1.55874 -2.683901 0.795609 -3 0 -3 
C -0.795609 -3 -1.55874 -2.683901 -2.12132 -2.12132 
C -2.683901 -1.55874 -3 -0.795609 -3 0 
C -3 0.795609 -2.683901 1.55874 -2.12132 2.12132 
C -1.55874 2.683901 -0.795609 3 0 3 
z
" style="stroke: #ee6677"/>
    </defs>
    <g clip-path="url(#p4593e1b479)">
     <use xlink:href="#m6dd9069a19" x="101.150455" y="165.95204" style="fill: #ee6677; stroke: #ee6677"/>
     <use xlink:href="#m6dd9069a19" x="157.18956" y="219.990906" style="fill: #ee6677; stroke: #ee6677"/>
     <use xlink:href="#m6dd9069a19" x="213.228665" y="249.723259" style="fill: #ee6677; stroke: #ee6677"/>
     <use xlink:href="#m6dd9069a19" x="269.267771" y="262.791971" style="fill: #ee6677; stroke: #ee6677"/>
     <use xlink:href="#m6dd9069a19" x="325.306876" y="275.477882" style="fill: #ee6677; stroke: #ee6677"/>
     <use xlink:href="#m6dd9069a19" x="381.345981" y="291.313364" style="fill: #ee6677; stroke: #ee6677"/>
     <use xlink:href="#m6dd9069a19" x="437.385087" y="306.770853" style="fill: #ee6677; stroke: #ee6677"/>
     <use xlink:href="#m6dd9069a19" x="493.424192" y="312.001657" style="fill: #ee6677; stroke: #ee6677"/>
     <use xlink:href="#m6dd9069a19" x="549.463297" y="316.277857" style="fill: #ee6677; stroke: #ee6677"/>
     <use xlink:href="#m6dd9069a19" x="605.502403" y="315.615653" style="fill: #ee6677; stroke: #ee6677"/>
    </g>
   </g>
   <g id="PathCollection_3">
    <defs>
     <path id="m6e20636522" d="M 0 3 
C 0.795609 3 1.55874 2.683901 2.12132 2.12132 
C 2.683901 1.55874 3 0.795609 3 0 
C 3 -0.795609 2.683901 -1.55874 2.12132 -2.12132 
C 1.55874 -2.683901 0.795609 -3 0 -3 
C -0.795609 -3 -1.55874 -2.683901 -2.12132 -2.12132 
C -2.683901 -1.55874 -3 -0.795609 -3 0 
C -3 0.795609 -2.683901 1.55874 -2.12132 2.12132 
C -1.55874 2.683901 -0.795609 3 0 3 
z
" style="stroke: #228833"/>
    </defs>
    <g clip-path="url(#p4593e1b479)">
     <use xlink:href="#m6e20636522" x="101.150455" y="188.866863" style="fill: #228833; stroke: #228833"/>
     <use xlink:href="#m6e20636522" x="157.18956" y="251.524083" style="fill: #228833; stroke: #228833"/>
     <use xlink:href="#m6e20636522" x="213.228665" y="282.981752" style="fill: #228833; stroke: #228833"/>
     <use xlink:href="#m6e20636522" x="269.267771" y="294.731244" style="fill: #228833; stroke: #228833"/>
     <use xlink:href="#m6e20636522" x="325.306876" y="301.720358" style="fill: #228833; stroke: #228833"/>
     <use xlink:href="#m6e20636522" x="381.345981" y="307.420096" style="fill: #228833; stroke: #228833"/>
     <use xlink:href="#m6e20636522" x="437.385087" y="308.780917" style="fill: #228833; stroke: #228833"/>
     <use xlink:href="#m6e20636522" x="493.424192" y="312.253569" style="fill: #228833; stroke: #228833"/>
     <use xlink:href="#m6e20636522" x="549.463297" y="315.021918" style="fill: #228833; stroke: #228833"/>
     <use xlink:href="#m6e20636522" x="605.502403" y="319.13377" style="fill: #228833; stroke: #228833"/>
    </g>
   </g>
   <g id="PathCollection_4">
    <defs>
     <path id="m898d0c8be4" d="M 0 3 
C 0.795609 3 1.55874 2.683901 2.12132 2.12132 
C 2.683901 1.55874 3 0.795609 3 0 
C 3 -0.795609 2.683901 -1.55874 2.12132 -2.12132 
C 1.55874 -2.683901 0.795609 -3 0 -3 
C -0.795609 -3 -1.55874 -2.683901 -2.12132 -2.12132 
C -2.683901 -1.55874 -3 -0.795609 -3 0 
C -3 0.795609 -2.683901 1.55874 -2.12132 2.12132 
C -1.55874 2.683901 -0.795609 3 0 3 
z
" style="stroke: #ccbb44"/>
    </defs>
    <g clip-path="url(#p4593e1b479)">
     <use xlink:href="#m898d0c8be4" x="101.150455" y="210.211392" style="fill: #ccbb44; stroke: #ccbb44"/>
     <use xlink:href="#m898d0c8be4" x="157.18956" y="275.990632" style="fill: #ccbb44; stroke: #ccbb44"/>
     <use xlink:href="#m898d0c8be4" x="213.228665" y="300.980698" style="fill: #ccbb44; stroke: #ccbb44"/>
     <use xlink:href="#m898d0c8be4" x="269.267771" y="314.982205" style="fill: #ccbb44; stroke: #ccbb44"/>
     <use xlink:href="#m898d0c8be4" x="325.306876" y="321.867323" style="fill: #ccbb44; stroke: #ccbb44"/>
     <use xlink:href="#m898d0c8be4" x="381.345981" y="326.877861" style="fill: #ccbb44; stroke: #ccbb44"/>
     <use xlink:href="#m898d0c8be4" x="437.385087" y="330.554056" style="fill: #ccbb44; stroke: #ccbb44"/>
     <use xlink:href="#m898d0c8be4" x="493.424192" y="333.890609" style="fill: #ccbb44; stroke: #ccbb44"/>
     <use xlink:href="#m898d0c8be4" x="549.463297" y="336.790458" style="fill: #ccbb44; stroke: #ccbb44"/>
     <use xlink:href="#m898d0c8be4" x="605.502403" y="339.442707" style="fill: #ccbb44; stroke: #ccbb44"/>
    </g>
   </g>
   <g id="matplotlib.axis_1">
    <g id="xtick_1">
     <g id="line2d_1">
      <defs>
       <path id="mbe7199eaf3" d="M 0 0 
L 0 3.5 
" style="stroke: #000000; stroke-width: 0.8"/>
      </defs>
      <g>
       <use xlink:href="#mbe7199eaf3" x="101.150455" y="373.48" style="stroke: #000000; stroke-width: 0.8"/>
      </g>
     </g>
     <g id="text_1">
      <!-- 0 -->
      <g transform="translate(96.576705 392.6375) scale(0.16 -0.16)">
       <defs>
        <path id="OpenSans-Regular-30" d="M 3334 2291 
Q 3334 1734 3250 1296 
Q 3166 859 2984 556 
Q 2803 253 2515 95 
Q 2228 -63 1825 -63 
Q 1316 -63 983 215 
Q 650 494 486 1020 
Q 322 1547 322 2291 
Q 322 3022 470 3548 
Q 619 4075 950 4358 
Q 1281 4641 1825 4641 
Q 2341 4641 2675 4361 
Q 3009 4081 3171 3554 
Q 3334 3028 3334 2291 
z
M 844 2291 
Q 844 1653 941 1228 
Q 1038 803 1255 592 
Q 1472 381 1825 381 
Q 2178 381 2395 590 
Q 2613 800 2711 1225 
Q 2809 1650 2809 2291 
Q 2809 2919 2712 3342 
Q 2616 3766 2400 3980 
Q 2184 4194 1825 4194 
Q 1466 4194 1250 3980 
Q 1034 3766 939 3342 
Q 844 2919 844 2291 
z
" transform="scale(0.015625)"/>
       </defs>
       <use xlink:href="#OpenSans-Regular-30"/>
      </g>
     </g>
    </g>
    <g id="xtick_2">
     <g id="line2d_2">
      <g>
       <use xlink:href="#mbe7199eaf3" x="157.18956" y="373.48" style="stroke: #000000; stroke-width: 0.8"/>
      </g>
     </g>
     <g id="text_2">
      <!-- 1 -->
      <g transform="translate(152.61581 392.6375) scale(0.16 -0.16)">
       <defs>
        <path id="OpenSans-Regular-31" d="M 2247 0 
L 1741 0 
L 1741 3238 
Q 1741 3422 1742 3555 
Q 1744 3688 1748 3798 
Q 1753 3909 1763 4025 
Q 1666 3925 1581 3854 
Q 1497 3784 1372 3681 
L 850 3263 
L 578 3616 
L 1816 4569 
L 2247 4569 
L 2247 0 
z
" transform="scale(0.015625)"/>
       </defs>
       <use xlink:href="#OpenSans-Regular-31"/>
      </g>
     </g>
    </g>
    <g id="xtick_3">
     <g id="line2d_3">
      <g>
       <use xlink:href="#mbe7199eaf3" x="213.228665" y="373.48" style="stroke: #000000; stroke-width: 0.8"/>
      </g>
     </g>
     <g id="text_3">
      <!-- 2 -->
      <g transform="translate(208.654915 392.6375) scale(0.16 -0.16)">
       <defs>
        <path id="OpenSans-Regular-32" d="M 3309 0 
L 316 0 
L 316 434 
L 1538 1675 
Q 1878 2019 2111 2287 
Q 2344 2556 2466 2817 
Q 2588 3078 2588 3391 
Q 2588 3778 2358 3983 
Q 2128 4188 1753 4188 
Q 1425 4188 1172 4075 
Q 919 3963 653 3756 
L 375 4106 
Q 556 4259 770 4378 
Q 984 4497 1229 4565 
Q 1475 4634 1753 4634 
Q 2175 4634 2481 4487 
Q 2788 4341 2955 4069 
Q 3122 3797 3122 3422 
Q 3122 3059 2978 2748 
Q 2834 2438 2575 2133 
Q 2316 1828 1969 1488 
L 975 497 
L 975 475 
L 3309 475 
L 3309 0 
z
" transform="scale(0.015625)"/>
       </defs>
       <use xlink:href="#OpenSans-Regular-32"/>
      </g>
     </g>
    </g>
    <g id="xtick_4">
     <g id="line2d_4">
      <g>
       <use xlink:href="#mbe7199eaf3" x="269.267771" y="373.48" style="stroke: #000000; stroke-width: 0.8"/>
      </g>
     </g>
     <g id="text_4">
      <!-- 3 -->
      <g transform="translate(264.694021 392.6375) scale(0.16 -0.16)">
       <defs>
        <path id="OpenSans-Regular-33" d="M 3141 3503 
Q 3141 3197 3022 2972 
Q 2903 2747 2690 2605 
Q 2478 2463 2191 2406 
L 2191 2381 
Q 2734 2313 3007 2031 
Q 3281 1750 3281 1294 
Q 3281 897 3095 590 
Q 2909 284 2526 110 
Q 2144 -63 1547 -63 
Q 1184 -63 876 -5 
Q 569 53 288 188 
L 288 675 
Q 572 534 906 454 
Q 1241 375 1553 375 
Q 2178 375 2456 623 
Q 2734 872 2734 1303 
Q 2734 1600 2579 1783 
Q 2425 1966 2136 2052 
Q 1847 2138 1441 2138 
L 984 2138 
L 984 2581 
L 1444 2581 
Q 1816 2581 2075 2690 
Q 2334 2800 2470 2998 
Q 2606 3197 2606 3469 
Q 2606 3816 2375 4005 
Q 2144 4194 1747 4194 
Q 1503 4194 1303 4144 
Q 1103 4094 928 4006 
Q 753 3919 578 3803 
L 316 4159 
Q 566 4353 925 4493 
Q 1284 4634 1741 4634 
Q 2441 4634 2791 4315 
Q 3141 3997 3141 3503 
z
" transform="scale(0.015625)"/>
       </defs>
       <use xlink:href="#OpenSans-Regular-33"/>
      </g>
     </g>
    </g>
    <g id="xtick_5">
     <g id="line2d_5">
      <g>
       <use xlink:href="#mbe7199eaf3" x="325.306876" y="373.48" style="stroke: #000000; stroke-width: 0.8"/>
      </g>
     </g>
     <g id="text_5">
      <!-- 4 -->
      <g transform="translate(320.733126 392.6375) scale(0.16 -0.16)">
       <defs>
        <path id="OpenSans-Regular-34" d="M 3538 1059 
L 2853 1059 
L 2853 0 
L 2347 0 
L 2347 1059 
L 138 1059 
L 138 1497 
L 2313 4594 
L 2853 4594 
L 2853 1528 
L 3538 1528 
L 3538 1059 
z
M 2347 1528 
L 2347 3022 
Q 2347 3194 2350 3333 
Q 2353 3472 2359 3592 
Q 2366 3713 2370 3822 
Q 2375 3931 2378 4038 
L 2353 4038 
Q 2294 3913 2217 3773 
Q 2141 3634 2063 3525 
L 653 1528 
L 2347 1528 
z
" transform="scale(0.015625)"/>
       </defs>
       <use xlink:href="#OpenSans-Regular-34"/>
      </g>
     </g>
    </g>
    <g id="xtick_6">
     <g id="line2d_6">
      <g>
       <use xlink:href="#mbe7199eaf3" x="381.345981" y="373.48" style="stroke: #000000; stroke-width: 0.8"/>
      </g>
     </g>
     <g id="text_6">
      <!-- 5 -->
      <g transform="translate(376.772231 392.6375) scale(0.16 -0.16)">
       <defs>
        <path id="OpenSans-Regular-35" d="M 1759 2794 
Q 2225 2794 2569 2636 
Q 2913 2478 3102 2178 
Q 3291 1878 3291 1450 
Q 3291 981 3087 642 
Q 2884 303 2503 120 
Q 2122 -63 1591 -63 
Q 1234 -63 928 0 
Q 622 63 413 188 
L 413 681 
Q 641 544 966 462 
Q 1291 381 1597 381 
Q 1944 381 2205 492 
Q 2466 603 2611 829 
Q 2756 1056 2756 1400 
Q 2756 1856 2476 2104 
Q 2197 2353 1594 2353 
Q 1400 2353 1169 2322 
Q 938 2291 788 2253 
L 525 2425 
L 700 4569 
L 2972 4569 
L 2972 4094 
L 1144 4094 
L 1028 2716 
Q 1147 2741 1334 2767 
Q 1522 2794 1759 2794 
z
" transform="scale(0.015625)"/>
       </defs>
       <use xlink:href="#OpenSans-Regular-35"/>
      </g>
     </g>
    </g>
    <g id="xtick_7">
     <g id="line2d_7">
      <g>
       <use xlink:href="#mbe7199eaf3" x="437.385087" y="373.48" style="stroke: #000000; stroke-width: 0.8"/>
      </g>
     </g>
     <g id="text_7">
      <!-- 6 -->
      <g transform="translate(432.811337 392.6375) scale(0.16 -0.16)">
       <defs>
        <path id="OpenSans-Regular-36" d="M 363 1953 
Q 363 2366 420 2759 
Q 478 3153 615 3492 
Q 753 3831 990 4087 
Q 1228 4344 1583 4489 
Q 1938 4634 2434 4634 
Q 2575 4634 2737 4620 
Q 2900 4606 3006 4575 
L 3006 4128 
Q 2891 4169 2742 4187 
Q 2594 4206 2444 4206 
Q 1863 4206 1530 3953 
Q 1197 3700 1050 3267 
Q 903 2834 881 2294 
L 916 2294 
Q 1013 2450 1163 2576 
Q 1313 2703 1527 2778 
Q 1741 2853 2025 2853 
Q 2425 2853 2723 2690 
Q 3022 2528 3186 2218 
Q 3350 1909 3350 1469 
Q 3350 997 3175 653 
Q 3000 309 2676 123 
Q 2353 -63 1906 -63 
Q 1572 -63 1290 65 
Q 1009 194 801 447 
Q 594 700 478 1076 
Q 363 1453 363 1953 
z
M 1900 375 
Q 2325 375 2581 647 
Q 2838 919 2838 1469 
Q 2838 1919 2609 2181 
Q 2381 2444 1922 2444 
Q 1609 2444 1378 2314 
Q 1147 2184 1019 1987 
Q 891 1791 891 1588 
Q 891 1381 952 1168 
Q 1013 956 1138 775 
Q 1263 594 1453 484 
Q 1644 375 1900 375 
z
" transform="scale(0.015625)"/>
       </defs>
       <use xlink:href="#OpenSans-Regular-36"/>
      </g>
     </g>
    </g>
    <g id="xtick_8">
     <g id="line2d_8">
      <g>
       <use xlink:href="#mbe7199eaf3" x="493.424192" y="373.48" style="stroke: #000000; stroke-width: 0.8"/>
      </g>
     </g>
     <g id="text_8">
      <!-- 7 -->
      <g transform="translate(488.850442 392.6375) scale(0.16 -0.16)">
       <defs>
        <path id="OpenSans-Regular-37" d="M 906 0 
L 2781 4094 
L 291 4094 
L 291 4569 
L 3338 4569 
L 3338 4169 
L 1475 0 
L 906 0 
z
" transform="scale(0.015625)"/>
       </defs>
       <use xlink:href="#OpenSans-Regular-37"/>
      </g>
     </g>
    </g>
    <g id="xtick_9">
     <g id="line2d_9">
      <g>
       <use xlink:href="#mbe7199eaf3" x="549.463297" y="373.48" style="stroke: #000000; stroke-width: 0.8"/>
      </g>
     </g>
     <g id="text_9">
      <!-- 8 -->
      <g transform="translate(544.889547 392.6375) scale(0.16 -0.16)">
       <defs>
        <path id="OpenSans-Regular-38" d="M 1825 4634 
Q 2222 4634 2528 4509 
Q 2834 4384 3007 4142 
Q 3181 3900 3181 3547 
Q 3181 3269 3061 3061 
Q 2941 2853 2737 2698 
Q 2534 2544 2288 2422 
Q 2581 2288 2817 2119 
Q 3053 1950 3190 1722 
Q 3328 1494 3328 1181 
Q 3328 797 3142 517 
Q 2956 238 2622 87 
Q 2288 -63 1838 -63 
Q 1353 -63 1014 82 
Q 675 228 498 501 
Q 322 775 322 1159 
Q 322 1475 456 1708 
Q 591 1941 812 2109 
Q 1034 2278 1297 2394 
Q 1069 2519 880 2678 
Q 691 2838 580 3052 
Q 469 3266 469 3550 
Q 469 3897 645 4139 
Q 822 4381 1130 4507 
Q 1438 4634 1825 4634 
z
M 831 1156 
Q 831 806 1078 579 
Q 1325 353 1825 353 
Q 2300 353 2559 579 
Q 2819 806 2819 1175 
Q 2819 1403 2700 1576 
Q 2581 1750 2362 1887 
Q 2144 2025 1847 2138 
L 1734 2178 
Q 1447 2059 1245 1914 
Q 1044 1769 937 1584 
Q 831 1400 831 1156 
z
M 1819 4209 
Q 1450 4209 1215 4032 
Q 981 3856 981 3525 
Q 981 3288 1095 3123 
Q 1209 2959 1406 2842 
Q 1603 2725 1847 2625 
Q 2084 2725 2268 2845 
Q 2453 2966 2559 3131 
Q 2666 3297 2666 3528 
Q 2666 3859 2433 4034 
Q 2200 4209 1819 4209 
z
" transform="scale(0.015625)"/>
       </defs>
       <use xlink:href="#OpenSans-Regular-38"/>
      </g>
     </g>
    </g>
    <g id="xtick_10">
     <g id="line2d_10">
      <g>
       <use xlink:href="#mbe7199eaf3" x="605.502403" y="373.48" style="stroke: #000000; stroke-width: 0.8"/>
      </g>
     </g>
     <g id="text_10">
      <!-- 9 -->
      <g transform="translate(600.928653 392.6375) scale(0.16 -0.16)">
       <defs>
        <path id="OpenSans-Regular-39" d="M 3316 2622 
Q 3316 2206 3258 1812 
Q 3200 1419 3061 1078 
Q 2922 738 2684 481 
Q 2447 225 2089 79 
Q 1731 -66 1234 -66 
Q 1100 -66 928 -48 
Q 756 -31 647 0 
L 647 450 
Q 763 409 919 386 
Q 1075 363 1225 363 
Q 1809 363 2143 614 
Q 2478 866 2625 1298 
Q 2772 1731 2791 2272 
L 2753 2272 
Q 2659 2122 2507 1995 
Q 2356 1869 2140 1792 
Q 1925 1716 1638 1716 
Q 1241 1716 945 1878 
Q 650 2041 486 2350 
Q 322 2659 322 3097 
Q 322 3569 501 3914 
Q 681 4259 1006 4446 
Q 1331 4634 1772 4634 
Q 2109 4634 2390 4506 
Q 2672 4378 2880 4123 
Q 3088 3869 3202 3494 
Q 3316 3119 3316 2622 
z
M 1772 4194 
Q 1356 4194 1098 3922 
Q 841 3650 841 3103 
Q 841 2650 1062 2387 
Q 1284 2125 1747 2125 
Q 2066 2125 2298 2253 
Q 2531 2381 2657 2578 
Q 2784 2775 2784 2981 
Q 2784 3188 2723 3400 
Q 2663 3613 2538 3792 
Q 2413 3972 2222 4083 
Q 2031 4194 1772 4194 
z
" transform="scale(0.015625)"/>
       </defs>
       <use xlink:href="#OpenSans-Regular-39"/>
      </g>
     </g>
    </g>
    <g id="text_11">
     <!-- Number of re-optimization rounds -->
     <g transform="translate(224.863929 412.7075) scale(0.16 -0.16)">
      <defs>
       <path id="OpenSans-Regular-4e" d="M 4197 0 
L 3584 0 
L 1094 3838 
L 1069 3838 
Q 1078 3684 1090 3489 
Q 1103 3294 1111 3073 
Q 1119 2853 1119 2625 
L 1119 0 
L 625 0 
L 625 4569 
L 1234 4569 
L 3716 744 
L 3738 744 
Q 3731 853 3722 1054 
Q 3713 1256 3705 1489 
Q 3697 1722 3697 1922 
L 3697 4569 
L 4197 4569 
L 4197 0 
z
" transform="scale(0.015625)"/>
       <path id="OpenSans-Regular-75" d="M 3375 3425 
L 3375 0 
L 2950 0 
L 2875 481 
L 2847 481 
Q 2741 303 2572 181 
Q 2403 59 2192 -2 
Q 1981 -63 1744 -63 
Q 1338 -63 1063 68 
Q 788 200 648 475 
Q 509 750 509 1181 
L 509 3425 
L 1034 3425 
L 1034 1219 
Q 1034 791 1228 580 
Q 1422 369 1819 369 
Q 2200 369 2426 512 
Q 2653 656 2753 936 
Q 2853 1216 2853 1622 
L 2853 3425 
L 3375 3425 
z
" transform="scale(0.015625)"/>
       <path id="OpenSans-Regular-6d" d="M 4266 3488 
Q 4831 3488 5118 3192 
Q 5406 2897 5406 2244 
L 5406 0 
L 4894 0 
L 4894 2219 
Q 4894 2634 4714 2842 
Q 4534 3050 4181 3050 
Q 3684 3050 3459 2762 
Q 3234 2475 3234 1916 
L 3234 0 
L 2719 0 
L 2719 2219 
Q 2719 2497 2639 2681 
Q 2559 2866 2401 2958 
Q 2244 3050 2003 3050 
Q 1663 3050 1456 2909 
Q 1250 2769 1158 2492 
Q 1066 2216 1066 1813 
L 1066 0 
L 547 0 
L 547 3425 
L 966 3425 
L 1044 2941 
L 1072 2941 
Q 1175 3119 1331 3241 
Q 1488 3363 1681 3425 
Q 1875 3488 2094 3488 
Q 2484 3488 2748 3342 
Q 3013 3197 3131 2900 
L 3159 2900 
Q 3328 3197 3622 3342 
Q 3916 3488 4266 3488 
z
" transform="scale(0.015625)"/>
       <path id="OpenSans-Regular-62" d="M 1066 4863 
L 1066 3647 
Q 1066 3438 1055 3241 
Q 1044 3044 1038 2934 
L 1066 2934 
Q 1206 3166 1472 3325 
Q 1738 3484 2150 3484 
Q 2794 3484 3176 3039 
Q 3559 2594 3559 1716 
Q 3559 1138 3384 741 
Q 3209 344 2890 140 
Q 2572 -63 2138 -63 
Q 1731 -63 1470 89 
Q 1209 241 1069 459 
L 1028 459 
L 922 0 
L 547 0 
L 547 4863 
L 1066 4863 
z
M 2066 3050 
Q 1694 3050 1475 2904 
Q 1256 2759 1161 2467 
Q 1066 2175 1066 1728 
L 1066 1700 
Q 1066 1053 1281 711 
Q 1497 369 2066 369 
Q 2544 369 2783 719 
Q 3022 1069 3022 1719 
Q 3022 2381 2786 2715 
Q 2550 3050 2066 3050 
z
" transform="scale(0.015625)"/>
       <path id="OpenSans-Regular-65" d="M 1866 3488 
Q 2303 3488 2615 3294 
Q 2928 3100 3093 2751 
Q 3259 2403 3259 1938 
L 3259 1616 
L 894 1616 
Q 903 1013 1193 697 
Q 1484 381 2013 381 
Q 2338 381 2588 440 
Q 2838 500 3106 616 
L 3106 159 
Q 2847 44 2592 -9 
Q 2338 -63 1991 -63 
Q 1497 -63 1130 139 
Q 763 341 559 731 
Q 356 1122 356 1688 
Q 356 2241 542 2645 
Q 728 3050 1067 3269 
Q 1406 3488 1866 3488 
z
M 1859 3063 
Q 1444 3063 1197 2791 
Q 950 2519 903 2031 
L 2716 2031 
Q 2713 2338 2620 2570 
Q 2528 2803 2340 2933 
Q 2153 3063 1859 3063 
z
" transform="scale(0.015625)"/>
       <path id="OpenSans-Regular-72" d="M 2103 3488 
Q 2206 3488 2318 3477 
Q 2431 3466 2519 3447 
L 2453 2966 
Q 2369 2988 2266 3000 
Q 2163 3013 2072 3013 
Q 1866 3013 1683 2930 
Q 1500 2847 1362 2692 
Q 1225 2538 1147 2320 
Q 1069 2103 1069 1838 
L 1069 0 
L 547 0 
L 547 3425 
L 978 3425 
L 1034 2794 
L 1056 2794 
Q 1163 2984 1313 3142 
Q 1463 3300 1661 3394 
Q 1859 3488 2103 3488 
z
" transform="scale(0.015625)"/>
       <path id="OpenSans-Regular-20" transform="scale(0.015625)"/>
       <path id="OpenSans-Regular-6f" d="M 3500 1719 
Q 3500 1297 3390 965 
Q 3281 634 3075 406 
Q 2869 178 2576 57 
Q 2284 -63 1916 -63 
Q 1572 -63 1286 57 
Q 1000 178 792 406 
Q 584 634 470 965 
Q 356 1297 356 1719 
Q 356 2281 547 2676 
Q 738 3072 1092 3280 
Q 1447 3488 1938 3488 
Q 2406 3488 2757 3278 
Q 3109 3069 3304 2673 
Q 3500 2278 3500 1719 
z
M 894 1719 
Q 894 1306 1003 1003 
Q 1113 700 1341 534 
Q 1569 369 1928 369 
Q 2284 369 2514 534 
Q 2744 700 2853 1003 
Q 2963 1306 2963 1719 
Q 2963 2128 2853 2426 
Q 2744 2725 2516 2887 
Q 2288 3050 1925 3050 
Q 1391 3050 1142 2697 
Q 894 2344 894 1719 
z
" transform="scale(0.015625)"/>
       <path id="OpenSans-Regular-66" d="M 2072 3019 
L 1219 3019 
L 1219 0 
L 700 0 
L 700 3019 
L 94 3019 
L 94 3269 
L 700 3441 
L 700 3669 
Q 700 4100 828 4370 
Q 956 4641 1200 4769 
Q 1444 4897 1794 4897 
Q 1991 4897 2155 4862 
Q 2319 4828 2444 4784 
L 2309 4375 
Q 2203 4409 2070 4439 
Q 1938 4469 1800 4469 
Q 1503 4469 1361 4276 
Q 1219 4084 1219 3675 
L 1219 3425 
L 2072 3425 
L 2072 3019 
z
" transform="scale(0.015625)"/>
       <path id="OpenSans-Regular-2d" d="M 256 1488 
L 256 1950 
L 1806 1950 
L 1806 1488 
L 256 1488 
z
" transform="scale(0.015625)"/>
       <path id="OpenSans-Regular-70" d="M 2156 3488 
Q 2797 3488 3178 3047 
Q 3559 2606 3559 1722 
Q 3559 1138 3384 741 
Q 3209 344 2892 140 
Q 2575 -63 2144 -63 
Q 1872 -63 1665 9 
Q 1459 81 1312 203 
Q 1166 325 1069 469 
L 1031 469 
Q 1041 347 1055 175 
Q 1069 3 1069 -125 
L 1069 -1531 
L 547 -1531 
L 547 3425 
L 975 3425 
L 1044 2919 
L 1069 2919 
Q 1169 3075 1312 3204 
Q 1456 3334 1664 3411 
Q 1872 3488 2156 3488 
z
M 2066 3050 
Q 1709 3050 1492 2912 
Q 1275 2775 1175 2501 
Q 1075 2228 1069 1816 
L 1069 1716 
Q 1069 1281 1164 981 
Q 1259 681 1479 525 
Q 1700 369 2072 369 
Q 2391 369 2603 541 
Q 2816 713 2920 1020 
Q 3025 1328 3025 1728 
Q 3025 2334 2789 2692 
Q 2553 3050 2066 3050 
z
" transform="scale(0.015625)"/>
       <path id="OpenSans-Regular-74" d="M 1653 363 
Q 1781 363 1915 384 
Q 2050 406 2134 438 
L 2134 34 
Q 2044 -6 1883 -34 
Q 1722 -63 1569 -63 
Q 1297 -63 1075 32 
Q 853 128 720 356 
Q 588 584 588 988 
L 588 3019 
L 100 3019 
L 100 3272 
L 591 3475 
L 797 4219 
L 1109 4219 
L 1109 3425 
L 2113 3425 
L 2113 3019 
L 1109 3019 
L 1109 1003 
Q 1109 681 1257 522 
Q 1406 363 1653 363 
z
" transform="scale(0.015625)"/>
       <path id="OpenSans-Regular-69" d="M 1066 3425 
L 1066 0 
L 547 0 
L 547 3425 
L 1066 3425 
z
M 813 4706 
Q 941 4706 1033 4623 
Q 1125 4541 1125 4366 
Q 1125 4194 1033 4109 
Q 941 4025 813 4025 
Q 678 4025 589 4109 
Q 500 4194 500 4366 
Q 500 4541 589 4623 
Q 678 4706 813 4706 
z
" transform="scale(0.015625)"/>
       <path id="OpenSans-Regular-7a" d="M 2747 0 
L 250 0 
L 250 344 
L 2128 3019 
L 369 3019 
L 369 3425 
L 2706 3425 
L 2706 3041 
L 853 403 
L 2747 403 
L 2747 0 
z
" transform="scale(0.015625)"/>
       <path id="OpenSans-Regular-61" d="M 1828 3481 
Q 2441 3481 2737 3206 
Q 3034 2931 3034 2328 
L 3034 0 
L 2656 0 
L 2556 506 
L 2531 506 
Q 2388 319 2231 192 
Q 2075 66 1870 1 
Q 1666 -63 1369 -63 
Q 1056 -63 814 46 
Q 572 156 433 378 
Q 294 600 294 941 
Q 294 1453 700 1728 
Q 1106 2003 1938 2028 
L 2528 2053 
L 2528 2263 
Q 2528 2706 2337 2884 
Q 2147 3063 1800 3063 
Q 1531 3063 1287 2984 
Q 1044 2906 825 2800 
L 666 3194 
Q 897 3313 1197 3397 
Q 1497 3481 1828 3481 
z
M 2522 1688 
L 2000 1666 
Q 1359 1641 1096 1456 
Q 834 1272 834 934 
Q 834 641 1012 500 
Q 1191 359 1484 359 
Q 1941 359 2231 612 
Q 2522 866 2522 1372 
L 2522 1688 
z
" transform="scale(0.015625)"/>
       <path id="OpenSans-Regular-6e" d="M 2169 3488 
Q 2778 3488 3090 3189 
Q 3403 2891 3403 2231 
L 3403 0 
L 2891 0 
L 2891 2197 
Q 2891 2625 2695 2837 
Q 2500 3050 2097 3050 
Q 1528 3050 1297 2728 
Q 1066 2406 1066 1794 
L 1066 0 
L 547 0 
L 547 3425 
L 966 3425 
L 1044 2931 
L 1072 2931 
Q 1181 3113 1350 3236 
Q 1519 3359 1728 3423 
Q 1938 3488 2169 3488 
z
" transform="scale(0.015625)"/>
       <path id="OpenSans-Regular-64" d="M 1766 -63 
Q 1116 -63 736 381 
Q 356 825 356 1700 
Q 356 2584 743 3036 
Q 1131 3488 1775 3488 
Q 2047 3488 2250 3416 
Q 2453 3344 2600 3223 
Q 2747 3103 2847 2950 
L 2884 2950 
Q 2872 3047 2859 3215 
Q 2847 3384 2847 3491 
L 2847 4863 
L 3366 4863 
L 3366 0 
L 2947 0 
L 2869 488 
L 2847 488 
Q 2750 334 2601 209 
Q 2453 84 2248 10 
Q 2044 -63 1766 -63 
z
M 1847 369 
Q 2397 369 2625 681 
Q 2853 994 2853 1609 
L 2853 1703 
Q 2853 2356 2636 2706 
Q 2419 3056 1847 3056 
Q 1369 3056 1131 2689 
Q 894 2322 894 1688 
Q 894 1056 1130 712 
Q 1366 369 1847 369 
z
" transform="scale(0.015625)"/>
       <path id="OpenSans-Regular-73" d="M 2763 938 
Q 2763 609 2598 386 
Q 2434 163 2129 50 
Q 1825 -63 1403 -63 
Q 1044 -63 781 -6 
Q 519 50 322 153 
L 322 631 
Q 531 528 822 443 
Q 1113 359 1416 359 
Q 1859 359 2059 503 
Q 2259 647 2259 894 
Q 2259 1034 2179 1142 
Q 2100 1250 1912 1351 
Q 1725 1453 1394 1575 
Q 1066 1700 827 1823 
Q 588 1947 458 2125 
Q 328 2303 328 2588 
Q 328 3022 679 3255 
Q 1031 3488 1603 3488 
Q 1913 3488 2183 3427 
Q 2453 3366 2688 3263 
L 2513 2847 
Q 2300 2938 2059 3000 
Q 1819 3063 1569 3063 
Q 1209 3063 1017 2944 
Q 825 2825 825 2619 
Q 825 2459 914 2356 
Q 1003 2253 1200 2162 
Q 1397 2072 1719 1950 
Q 2041 1831 2275 1704 
Q 2509 1578 2636 1398 
Q 2763 1219 2763 938 
z
" transform="scale(0.015625)"/>
      </defs>
      <use xlink:href="#OpenSans-Regular-4e"/>
      <use xlink:href="#OpenSans-Regular-75" x="75.292969"/>
      <use xlink:href="#OpenSans-Regular-6d" x="136.621094"/>
      <use xlink:href="#OpenSans-Regular-62" x="229.199219"/>
      <use xlink:href="#OpenSans-Regular-65" x="290.380859"/>
      <use xlink:href="#OpenSans-Regular-72" x="346.533203"/>
      <use xlink:href="#OpenSans-Regular-20" x="387.402344"/>
      <use xlink:href="#OpenSans-Regular-6f" x="413.378906"/>
      <use xlink:href="#OpenSans-Regular-66" x="473.535156"/>
      <use xlink:href="#OpenSans-Regular-20" x="507.177734"/>
      <use xlink:href="#OpenSans-Regular-72" x="533.154297"/>
      <use xlink:href="#OpenSans-Regular-65" x="574.023438"/>
      <use xlink:href="#OpenSans-Regular-2d" x="630.175781"/>
      <use xlink:href="#OpenSans-Regular-6f" x="662.353516"/>
      <use xlink:href="#OpenSans-Regular-70" x="722.509766"/>
      <use xlink:href="#OpenSans-Regular-74" x="783.691406"/>
      <use xlink:href="#OpenSans-Regular-69" x="819.335938"/>
      <use xlink:href="#OpenSans-Regular-6d" x="844.580078"/>
      <use xlink:href="#OpenSans-Regular-69" x="937.158203"/>
      <use xlink:href="#OpenSans-Regular-7a" x="962.402344"/>
      <use xlink:href="#OpenSans-Regular-61" x="1009.277344"/>
      <use xlink:href="#OpenSans-Regular-74" x="1064.84375"/>
      <use xlink:href="#OpenSans-Regular-69" x="1100.488281"/>
      <use xlink:href="#OpenSans-Regular-6f" x="1125.732422"/>
      <use xlink:href="#OpenSans-Regular-6e" x="1185.888672"/>
      <use xlink:href="#OpenSans-Regular-20" x="1247.216797"/>
      <use xlink:href="#OpenSans-Regular-72" x="1273.193359"/>
      <use xlink:href="#OpenSans-Regular-6f" x="1314.0625"/>
      <use xlink:href="#OpenSans-Regular-75" x="1374.21875"/>
      <use xlink:href="#OpenSans-Regular-6e" x="1435.546875"/>
      <use xlink:href="#OpenSans-Regular-64" x="1496.875"/>
      <use xlink:href="#OpenSans-Regular-73" x="1558.056641"/>
     </g>
    </g>
   </g>
   <g id="matplotlib.axis_2">
    <g id="ytick_1">
     <g id="line2d_11">
      <defs>
       <path id="m7895baa1d9" d="M 0 0 
L -3.5 0 
" style="stroke: #000000; stroke-width: 0.8"/>
      </defs>
      <g>
       <use xlink:href="#m7895baa1d9" x="75.932857" y="373.48" style="stroke: #000000; stroke-width: 0.8"/>
      </g>
     </g>
     <g id="text_12">
      <!-- $\mathdefault{10^{-5}}$ -->
      <g transform="translate(37.092857 379.55875) scale(0.16 -0.16)">
       <defs>
        <path id="OpenSans-Regular-2212" d="M 322 2044 
L 322 2469 
L 3331 2469 
L 3331 2044 
L 322 2044 
z
" transform="scale(0.015625)"/>
       </defs>
       <use xlink:href="#OpenSans-Regular-31" transform="translate(0 0.565625)"/>
       <use xlink:href="#OpenSans-Regular-30" transform="translate(57.177734 0.565625)"/>
       <use xlink:href="#OpenSans-Regular-2212" transform="translate(115.291992 38.026563) scale(0.7)"/>
       <use xlink:href="#OpenSans-Regular-35" transform="translate(155.316406 38.026563) scale(0.7)"/>
      </g>
     </g>
    </g>
    <g id="ytick_2">
     <g id="line2d_12">
      <g>
       <use xlink:href="#m7895baa1d9" x="75.932857" y="307.014239" style="stroke: #000000; stroke-width: 0.8"/>
      </g>
     </g>
     <g id="text_13">
      <!-- $\mathdefault{10^{-4}}$ -->
      <g transform="translate(37.092857 313.092989) scale(0.16 -0.16)">
       <use xlink:href="#OpenSans-Regular-31" transform="translate(0 0.292188)"/>
       <use xlink:href="#OpenSans-Regular-30" transform="translate(57.177734 0.292188)"/>
       <use xlink:href="#OpenSans-Regular-2212" transform="translate(115.291992 37.753125) scale(0.7)"/>
       <use xlink:href="#OpenSans-Regular-34" transform="translate(155.316406 37.753125) scale(0.7)"/>
      </g>
     </g>
    </g>
    <g id="ytick_3">
     <g id="line2d_13">
      <g>
       <use xlink:href="#m7895baa1d9" x="75.932857" y="240.548479" style="stroke: #000000; stroke-width: 0.8"/>
      </g>
     </g>
     <g id="text_14">
      <!-- $\mathdefault{10^{-3}}$ -->
      <g transform="translate(37.092857 246.627229) scale(0.16 -0.16)">
       <use xlink:href="#OpenSans-Regular-31" transform="translate(0 0.854688)"/>
       <use xlink:href="#OpenSans-Regular-30" transform="translate(57.177734 0.854688)"/>
       <use xlink:href="#OpenSans-Regular-2212" transform="translate(115.291992 38.315625) scale(0.7)"/>
       <use xlink:href="#OpenSans-Regular-33" transform="translate(155.316406 38.315625) scale(0.7)"/>
      </g>
     </g>
    </g>
    <g id="ytick_4">
     <g id="line2d_14">
      <g>
       <use xlink:href="#m7895baa1d9" x="75.932857" y="174.082718" style="stroke: #000000; stroke-width: 0.8"/>
      </g>
     </g>
     <g id="text_15">
      <!-- $\mathdefault{10^{-2}}$ -->
      <g transform="translate(37.092857 180.161468) scale(0.16 -0.16)">
       <use xlink:href="#OpenSans-Regular-31" transform="translate(0 0.854688)"/>
       <use xlink:href="#OpenSans-Regular-30" transform="translate(57.177734 0.854688)"/>
       <use xlink:href="#OpenSans-Regular-2212" transform="translate(115.291992 38.315625) scale(0.7)"/>
       <use xlink:href="#OpenSans-Regular-32" transform="translate(155.316406 38.315625) scale(0.7)"/>
      </g>
     </g>
    </g>
    <g id="ytick_5">
     <g id="line2d_15">
      <g>
       <use xlink:href="#m7895baa1d9" x="75.932857" y="107.616957" style="stroke: #000000; stroke-width: 0.8"/>
      </g>
     </g>
     <g id="text_16">
      <!-- $\mathdefault{10^{-1}}$ -->
      <g transform="translate(37.092857 113.695707) scale(0.16 -0.16)">
       <use xlink:href="#OpenSans-Regular-31" transform="translate(0 0.565625)"/>
       <use xlink:href="#OpenSans-Regular-30" transform="translate(57.177734 0.565625)"/>
       <use xlink:href="#OpenSans-Regular-2212" transform="translate(115.291992 38.026563) scale(0.7)"/>
       <use xlink:href="#OpenSans-Regular-31" transform="translate(155.316406 38.026563) scale(0.7)"/>
      </g>
     </g>
    </g>
    <g id="ytick_6">
     <g id="line2d_16">
      <g>
       <use xlink:href="#m7895baa1d9" x="75.932857" y="41.151196" style="stroke: #000000; stroke-width: 0.8"/>
      </g>
     </g>
     <g id="text_17">
      <!-- $\mathdefault{10^{0}}$ -->
      <g transform="translate(43.652857 47.229946) scale(0.16 -0.16)">
       <use xlink:href="#OpenSans-Regular-31" transform="translate(0 0.778125)"/>
       <use xlink:href="#OpenSans-Regular-30" transform="translate(57.177734 0.778125)"/>
       <use xlink:href="#OpenSans-Regular-30" transform="translate(115.291992 38.239063) scale(0.7)"/>
      </g>
     </g>
    </g>
    <g id="ytick_7">
     <g id="line2d_17">
      <defs>
       <path id="m918ea286d9" d="M 0 0 
L -2 0 
" style="stroke: #000000; stroke-width: 0.6"/>
      </defs>
      <g>
       <use xlink:href="#m918ea286d9" x="75.932857" y="353.471812" style="stroke: #000000; stroke-width: 0.6"/>
      </g>
     </g>
    </g>
    <g id="ytick_8">
     <g id="line2d_18">
      <g>
       <use xlink:href="#m918ea286d9" x="75.932857" y="341.767773" style="stroke: #000000; stroke-width: 0.6"/>
      </g>
     </g>
    </g>
    <g id="ytick_9">
     <g id="line2d_19">
      <g>
       <use xlink:href="#m918ea286d9" x="75.932857" y="333.463625" style="stroke: #000000; stroke-width: 0.6"/>
      </g>
     </g>
    </g>
    <g id="ytick_10">
     <g id="line2d_20">
      <g>
       <use xlink:href="#m918ea286d9" x="75.932857" y="327.022427" style="stroke: #000000; stroke-width: 0.6"/>
      </g>
     </g>
    </g>
    <g id="ytick_11">
     <g id="line2d_21">
      <g>
       <use xlink:href="#m918ea286d9" x="75.932857" y="321.759585" style="stroke: #000000; stroke-width: 0.6"/>
      </g>
     </g>
    </g>
    <g id="ytick_12">
     <g id="line2d_22">
      <g>
       <use xlink:href="#m918ea286d9" x="75.932857" y="317.309916" style="stroke: #000000; stroke-width: 0.6"/>
      </g>
     </g>
    </g>
    <g id="ytick_13">
     <g id="line2d_23">
      <g>
       <use xlink:href="#m918ea286d9" x="75.932857" y="313.455437" style="stroke: #000000; stroke-width: 0.6"/>
      </g>
     </g>
    </g>
    <g id="ytick_14">
     <g id="line2d_24">
      <g>
       <use xlink:href="#m918ea286d9" x="75.932857" y="310.055546" style="stroke: #000000; stroke-width: 0.6"/>
      </g>
     </g>
    </g>
    <g id="ytick_15">
     <g id="line2d_25">
      <g>
       <use xlink:href="#m918ea286d9" x="75.932857" y="287.006052" style="stroke: #000000; stroke-width: 0.6"/>
      </g>
     </g>
    </g>
    <g id="ytick_16">
     <g id="line2d_26">
      <g>
       <use xlink:href="#m918ea286d9" x="75.932857" y="275.302012" style="stroke: #000000; stroke-width: 0.6"/>
      </g>
     </g>
    </g>
    <g id="ytick_17">
     <g id="line2d_27">
      <g>
       <use xlink:href="#m918ea286d9" x="75.932857" y="266.997864" style="stroke: #000000; stroke-width: 0.6"/>
      </g>
     </g>
    </g>
    <g id="ytick_18">
     <g id="line2d_28">
      <g>
       <use xlink:href="#m918ea286d9" x="75.932857" y="260.556666" style="stroke: #000000; stroke-width: 0.6"/>
      </g>
     </g>
    </g>
    <g id="ytick_19">
     <g id="line2d_29">
      <g>
       <use xlink:href="#m918ea286d9" x="75.932857" y="255.293824" style="stroke: #000000; stroke-width: 0.6"/>
      </g>
     </g>
    </g>
    <g id="ytick_20">
     <g id="line2d_30">
      <g>
       <use xlink:href="#m918ea286d9" x="75.932857" y="250.844155" style="stroke: #000000; stroke-width: 0.6"/>
      </g>
     </g>
    </g>
    <g id="ytick_21">
     <g id="line2d_31">
      <g>
       <use xlink:href="#m918ea286d9" x="75.932857" y="246.989676" style="stroke: #000000; stroke-width: 0.6"/>
      </g>
     </g>
    </g>
    <g id="ytick_22">
     <g id="line2d_32">
      <g>
       <use xlink:href="#m918ea286d9" x="75.932857" y="243.589785" style="stroke: #000000; stroke-width: 0.6"/>
      </g>
     </g>
    </g>
    <g id="ytick_23">
     <g id="line2d_33">
      <g>
       <use xlink:href="#m918ea286d9" x="75.932857" y="220.540291" style="stroke: #000000; stroke-width: 0.6"/>
      </g>
     </g>
    </g>
    <g id="ytick_24">
     <g id="line2d_34">
      <g>
       <use xlink:href="#m918ea286d9" x="75.932857" y="208.836251" style="stroke: #000000; stroke-width: 0.6"/>
      </g>
     </g>
    </g>
    <g id="ytick_25">
     <g id="line2d_35">
      <g>
       <use xlink:href="#m918ea286d9" x="75.932857" y="200.532103" style="stroke: #000000; stroke-width: 0.6"/>
      </g>
     </g>
    </g>
    <g id="ytick_26">
     <g id="line2d_36">
      <g>
       <use xlink:href="#m918ea286d9" x="75.932857" y="194.090905" style="stroke: #000000; stroke-width: 0.6"/>
      </g>
     </g>
    </g>
    <g id="ytick_27">
     <g id="line2d_37">
      <g>
       <use xlink:href="#m918ea286d9" x="75.932857" y="188.828064" style="stroke: #000000; stroke-width: 0.6"/>
      </g>
     </g>
    </g>
    <g id="ytick_28">
     <g id="line2d_38">
      <g>
       <use xlink:href="#m918ea286d9" x="75.932857" y="184.378394" style="stroke: #000000; stroke-width: 0.6"/>
      </g>
     </g>
    </g>
    <g id="ytick_29">
     <g id="line2d_39">
      <g>
       <use xlink:href="#m918ea286d9" x="75.932857" y="180.523916" style="stroke: #000000; stroke-width: 0.6"/>
      </g>
     </g>
    </g>
    <g id="ytick_30">
     <g id="line2d_40">
      <g>
       <use xlink:href="#m918ea286d9" x="75.932857" y="177.124024" style="stroke: #000000; stroke-width: 0.6"/>
      </g>
     </g>
    </g>
    <g id="ytick_31">
     <g id="line2d_41">
      <g>
       <use xlink:href="#m918ea286d9" x="75.932857" y="154.07453" style="stroke: #000000; stroke-width: 0.6"/>
      </g>
     </g>
    </g>
    <g id="ytick_32">
     <g id="line2d_42">
      <g>
       <use xlink:href="#m918ea286d9" x="75.932857" y="142.370491" style="stroke: #000000; stroke-width: 0.6"/>
      </g>
     </g>
    </g>
    <g id="ytick_33">
     <g id="line2d_43">
      <g>
       <use xlink:href="#m918ea286d9" x="75.932857" y="134.066342" style="stroke: #000000; stroke-width: 0.6"/>
      </g>
     </g>
    </g>
    <g id="ytick_34">
     <g id="line2d_44">
      <g>
       <use xlink:href="#m918ea286d9" x="75.932857" y="127.625145" style="stroke: #000000; stroke-width: 0.6"/>
      </g>
     </g>
    </g>
    <g id="ytick_35">
     <g id="line2d_45">
      <g>
       <use xlink:href="#m918ea286d9" x="75.932857" y="122.362303" style="stroke: #000000; stroke-width: 0.6"/>
      </g>
     </g>
    </g>
    <g id="ytick_36">
     <g id="line2d_46">
      <g>
       <use xlink:href="#m918ea286d9" x="75.932857" y="117.912634" style="stroke: #000000; stroke-width: 0.6"/>
      </g>
     </g>
    </g>
    <g id="ytick_37">
     <g id="line2d_47">
      <g>
       <use xlink:href="#m918ea286d9" x="75.932857" y="114.058155" style="stroke: #000000; stroke-width: 0.6"/>
      </g>
     </g>
    </g>
    <g id="ytick_38">
     <g id="line2d_48">
      <g>
       <use xlink:href="#m918ea286d9" x="75.932857" y="110.658263" style="stroke: #000000; stroke-width: 0.6"/>
      </g>
     </g>
    </g>
    <g id="ytick_39">
     <g id="line2d_49">
      <g>
       <use xlink:href="#m918ea286d9" x="75.932857" y="87.608769" style="stroke: #000000; stroke-width: 0.6"/>
      </g>
     </g>
    </g>
    <g id="ytick_40">
     <g id="line2d_50">
      <g>
       <use xlink:href="#m918ea286d9" x="75.932857" y="75.90473" style="stroke: #000000; stroke-width: 0.6"/>
      </g>
     </g>
    </g>
    <g id="ytick_41">
     <g id="line2d_51">
      <g>
       <use xlink:href="#m918ea286d9" x="75.932857" y="67.600582" style="stroke: #000000; stroke-width: 0.6"/>
      </g>
     </g>
    </g>
    <g id="ytick_42">
     <g id="line2d_52">
      <g>
       <use xlink:href="#m918ea286d9" x="75.932857" y="61.159384" style="stroke: #000000; stroke-width: 0.6"/>
      </g>
     </g>
    </g>
    <g id="ytick_43">
     <g id="line2d_53">
      <g>
       <use xlink:href="#m918ea286d9" x="75.932857" y="55.896542" style="stroke: #000000; stroke-width: 0.6"/>
      </g>
     </g>
    </g>
    <g id="ytick_44">
     <g id="line2d_54">
      <g>
       <use xlink:href="#m918ea286d9" x="75.932857" y="51.446873" style="stroke: #000000; stroke-width: 0.6"/>
      </g>
     </g>
    </g>
    <g id="ytick_45">
     <g id="line2d_55">
      <g>
       <use xlink:href="#m918ea286d9" x="75.932857" y="47.592394" style="stroke: #000000; stroke-width: 0.6"/>
      </g>
     </g>
    </g>
    <g id="ytick_46">
     <g id="line2d_56">
      <g>
       <use xlink:href="#m918ea286d9" x="75.932857" y="44.192503" style="stroke: #000000; stroke-width: 0.6"/>
      </g>
     </g>
    </g>
    <g id="text_18">
     <!-- Average infidelity -->
     <g transform="translate(29.240357 270.04125) rotate(-90) scale(0.16 -0.16)">
      <defs>
       <path id="OpenSans-Regular-41" d="M 3491 0 
L 2928 1450 
L 1097 1450 
L 538 0 
L 0 0 
L 1788 4588 
L 2266 4588 
L 4041 0 
L 3491 0 
z
M 2769 1922 
L 2234 3363 
Q 2216 3419 2173 3547 
Q 2131 3675 2087 3812 
Q 2044 3950 2016 4034 
Q 1984 3906 1948 3779 
Q 1913 3653 1878 3545 
Q 1844 3438 1819 3363 
L 1275 1922 
L 2769 1922 
z
" transform="scale(0.015625)"/>
       <path id="OpenSans-Regular-76" d="M 1300 0 
L 0 3425 
L 556 3425 
L 1309 1353 
Q 1388 1141 1469 884 
Q 1550 628 1581 472 
L 1603 472 
Q 1641 628 1728 886 
Q 1816 1144 1888 1353 
L 2641 3425 
L 3197 3425 
L 1894 0 
L 1300 0 
z
" transform="scale(0.015625)"/>
       <path id="OpenSans-Regular-67" d="M 1503 -1538 
Q 828 -1538 462 -1286 
Q 97 -1034 97 -581 
Q 97 -259 301 -31 
Q 506 197 869 272 
Q 734 334 639 459 
Q 544 584 544 747 
Q 544 934 648 1076 
Q 753 1219 969 1350 
Q 700 1459 533 1720 
Q 366 1981 366 2328 
Q 366 2697 519 2958 
Q 672 3219 962 3356 
Q 1253 3494 1666 3494 
Q 1756 3494 1848 3486 
Q 1941 3478 2025 3464 
Q 2109 3450 2172 3431 
L 3347 3431 
L 3347 3097 
L 2716 3019 
Q 2809 2897 2871 2725 
Q 2934 2553 2934 2344 
Q 2934 1831 2587 1529 
Q 2241 1228 1634 1228 
Q 1491 1228 1341 1253 
Q 1188 1169 1108 1066 
Q 1028 963 1028 828 
Q 1028 728 1089 668 
Q 1150 609 1265 582 
Q 1381 556 1544 556 
L 2147 556 
Q 2706 556 3004 322 
Q 3303 88 3303 -363 
Q 3303 -931 2840 -1234 
Q 2378 -1538 1503 -1538 
z
M 1519 -1131 
Q 1944 -1131 2223 -1045 
Q 2503 -959 2642 -798 
Q 2781 -638 2781 -416 
Q 2781 -209 2687 -104 
Q 2594 0 2412 36 
Q 2231 72 1969 72 
L 1375 72 
Q 1144 72 972 0 
Q 800 -72 708 -212 
Q 616 -353 616 -563 
Q 616 -841 850 -986 
Q 1084 -1131 1519 -1131 
z
M 1653 1606 
Q 2025 1606 2212 1793 
Q 2400 1981 2400 2341 
Q 2400 2725 2209 2917 
Q 2019 3109 1647 3109 
Q 1291 3109 1098 2911 
Q 906 2713 906 2331 
Q 906 1981 1100 1793 
Q 1294 1606 1653 1606 
z
" transform="scale(0.015625)"/>
       <path id="OpenSans-Regular-6c" d="M 1069 0 
L 547 0 
L 547 4863 
L 1069 4863 
L 1069 0 
z
" transform="scale(0.015625)"/>
       <path id="OpenSans-Regular-79" d="M 6 3425 
L 563 3425 
L 1319 1438 
Q 1384 1263 1440 1102 
Q 1497 941 1540 794 
Q 1584 647 1609 509 
L 1631 509 
Q 1675 666 1756 920 
Q 1838 1175 1931 1441 
L 2647 3425 
L 3206 3425 
L 1716 -503 
Q 1597 -819 1439 -1053 
Q 1281 -1288 1056 -1414 
Q 831 -1541 513 -1541 
Q 366 -1541 253 -1523 
Q 141 -1506 59 -1484 
L 59 -1069 
Q 128 -1084 226 -1096 
Q 325 -1109 431 -1109 
Q 625 -1109 767 -1036 
Q 909 -963 1012 -822 
Q 1116 -681 1191 -488 
L 1378 -6 
L 6 3425 
z
" transform="scale(0.015625)"/>
      </defs>
      <use xlink:href="#OpenSans-Regular-41"/>
      <use xlink:href="#OpenSans-Regular-76" x="63.232422"/>
      <use xlink:href="#OpenSans-Regular-65" x="113.183594"/>
      <use xlink:href="#OpenSans-Regular-72" x="169.335938"/>
      <use xlink:href="#OpenSans-Regular-61" x="210.205078"/>
      <use xlink:href="#OpenSans-Regular-67" x="265.771484"/>
      <use xlink:href="#OpenSans-Regular-65" x="320.068359"/>
      <use xlink:href="#OpenSans-Regular-20" x="376.220703"/>
      <use xlink:href="#OpenSans-Regular-69" x="402.197266"/>
      <use xlink:href="#OpenSans-Regular-6e" x="427.441406"/>
      <use xlink:href="#OpenSans-Regular-66" x="488.769531"/>
      <use xlink:href="#OpenSans-Regular-69" x="522.412109"/>
      <use xlink:href="#OpenSans-Regular-64" x="547.65625"/>
      <use xlink:href="#OpenSans-Regular-65" x="608.837891"/>
      <use xlink:href="#OpenSans-Regular-6c" x="664.990234"/>
      <use xlink:href="#OpenSans-Regular-69" x="690.234375"/>
      <use xlink:href="#OpenSans-Regular-74" x="715.478516"/>
      <use xlink:href="#OpenSans-Regular-79" x="751.123047"/>
     </g>
    </g>
   </g>
   <g id="line2d_57">
    <path d="M 101.150455 107.737154 
L 157.18956 153.524258 
L 213.228665 193.860529 
L 269.267771 231.305244 
L 325.306876 240.934087 
L 381.345981 245.740178 
L 437.385087 248.457046 
L 493.424192 247.226157 
L 549.463297 248.746289 
L 605.502403 250.561235 
" clip-path="url(#p4593e1b479)" style="fill: none; stroke-dasharray: 5.55,2.4; stroke-dashoffset: 0; stroke: #4477aa; stroke-width: 1.5"/>
   </g>
   <g id="line2d_58">
    <path d="M 101.150455 165.95204 
L 157.18956 219.990906 
L 213.228665 249.723259 
L 269.267771 262.791971 
L 325.306876 275.477882 
L 381.345981 291.313364 
L 437.385087 306.770853 
L 493.424192 312.001657 
L 549.463297 316.277857 
L 605.502403 315.615653 
" clip-path="url(#p4593e1b479)" style="fill: none; stroke-dasharray: 5.55,2.4; stroke-dashoffset: 0; stroke: #ee6677; stroke-width: 1.5"/>
   </g>
   <g id="line2d_59">
    <path d="M 101.150455 188.866863 
L 157.18956 251.524083 
L 213.228665 282.981752 
L 269.267771 294.731244 
L 325.306876 301.720358 
L 381.345981 307.420096 
L 437.385087 308.780917 
L 493.424192 312.253569 
L 549.463297 315.021918 
L 605.502403 319.13377 
" clip-path="url(#p4593e1b479)" style="fill: none; stroke-dasharray: 5.55,2.4; stroke-dashoffset: 0; stroke: #228833; stroke-width: 1.5"/>
   </g>
   <g id="line2d_60">
    <path d="M 101.150455 210.211392 
L 157.18956 275.990632 
L 213.228665 300.980698 
L 269.267771 314.982205 
L 325.306876 321.867323 
L 381.345981 326.877861 
L 437.385087 330.554056 
L 493.424192 333.890609 
L 549.463297 336.790458 
L 605.502403 339.442707 
" clip-path="url(#p4593e1b479)" style="fill: none; stroke-dasharray: 5.55,2.4; stroke-dashoffset: 0; stroke: #ccbb44; stroke-width: 1.5"/>
   </g>
   <g id="patch_3">
    <path d="M 75.932857 373.48 
L 75.932857 38.4 
" style="fill: none; stroke: #000000; stroke-width: 0.8; stroke-linejoin: miter; stroke-linecap: square"/>
   </g>
   <g id="patch_4">
    <path d="M 630.72 373.48 
L 630.72 38.4 
" style="fill: none; stroke: #000000; stroke-width: 0.8; stroke-linejoin: miter; stroke-linecap: square"/>
   </g>
   <g id="patch_5">
    <path d="M 75.932857 373.48 
L 630.72 373.48 
" style="fill: none; stroke: #000000; stroke-width: 0.8; stroke-linejoin: miter; stroke-linecap: square"/>
   </g>
   <g id="patch_6">
    <path d="M 75.932857 38.4 
L 630.72 38.4 
" style="fill: none; stroke: #000000; stroke-width: 0.8; stroke-linejoin: miter; stroke-linecap: square"/>
   </g>
   <g id="text_19">
    <!-- Neighbor-average fidelity improvement -->
    <g transform="translate(177.494929 32.4) scale(0.192 -0.192)">
     <defs>
      <path id="OpenSans-Regular-68" d="M 1066 4863 
L 1066 3409 
Q 1066 3284 1059 3157 
Q 1053 3031 1038 2925 
L 1072 2925 
Q 1178 3106 1342 3229 
Q 1506 3353 1715 3417 
Q 1925 3481 2159 3481 
Q 2572 3481 2848 3350 
Q 3125 3219 3264 2944 
Q 3403 2669 3403 2231 
L 3403 0 
L 2891 0 
L 2891 2197 
Q 2891 2625 2695 2837 
Q 2500 3050 2097 3050 
Q 1716 3050 1489 2904 
Q 1263 2759 1164 2478 
Q 1066 2197 1066 1791 
L 1066 0 
L 547 0 
L 547 4863 
L 1066 4863 
z
" transform="scale(0.015625)"/>
     </defs>
     <use xlink:href="#OpenSans-Regular-4e"/>
     <use xlink:href="#OpenSans-Regular-65" x="75.292969"/>
     <use xlink:href="#OpenSans-Regular-69" x="131.445312"/>
     <use xlink:href="#OpenSans-Regular-67" x="156.689453"/>
     <use xlink:href="#OpenSans-Regular-68" x="210.986328"/>
     <use xlink:href="#OpenSans-Regular-62" x="272.314453"/>
     <use xlink:href="#OpenSans-Regular-6f" x="333.496094"/>
     <use xlink:href="#OpenSans-Regular-72" x="393.652344"/>
     <use xlink:href="#OpenSans-Regular-2d" x="434.521484"/>
     <use xlink:href="#OpenSans-Regular-61" x="466.699219"/>
     <use xlink:href="#OpenSans-Regular-76" x="522.265625"/>
     <use xlink:href="#OpenSans-Regular-65" x="572.216797"/>
     <use xlink:href="#OpenSans-Regular-72" x="628.369141"/>
     <use xlink:href="#OpenSans-Regular-61" x="669.238281"/>
     <use xlink:href="#OpenSans-Regular-67" x="724.804688"/>
     <use xlink:href="#OpenSans-Regular-65" x="779.101562"/>
     <use xlink:href="#OpenSans-Regular-20" x="835.253906"/>
     <use xlink:href="#OpenSans-Regular-66" x="861.230469"/>
     <use xlink:href="#OpenSans-Regular-69" x="894.873047"/>
     <use xlink:href="#OpenSans-Regular-64" x="920.117188"/>
     <use xlink:href="#OpenSans-Regular-65" x="981.298828"/>
     <use xlink:href="#OpenSans-Regular-6c" x="1037.451172"/>
     <use xlink:href="#OpenSans-Regular-69" x="1062.695312"/>
     <use xlink:href="#OpenSans-Regular-74" x="1087.939453"/>
     <use xlink:href="#OpenSans-Regular-79" x="1123.583984"/>
     <use xlink:href="#OpenSans-Regular-20" x="1173.681641"/>
     <use xlink:href="#OpenSans-Regular-69" x="1199.658203"/>
     <use xlink:href="#OpenSans-Regular-6d" x="1224.902344"/>
     <use xlink:href="#OpenSans-Regular-70" x="1317.480469"/>
     <use xlink:href="#OpenSans-Regular-72" x="1378.662109"/>
     <use xlink:href="#OpenSans-Regular-6f" x="1419.53125"/>
     <use xlink:href="#OpenSans-Regular-76" x="1479.6875"/>
     <use xlink:href="#OpenSans-Regular-65" x="1529.638672"/>
     <use xlink:href="#OpenSans-Regular-6d" x="1585.791016"/>
     <use xlink:href="#OpenSans-Regular-65" x="1678.369141"/>
     <use xlink:href="#OpenSans-Regular-6e" x="1734.521484"/>
     <use xlink:href="#OpenSans-Regular-74" x="1795.849609"/>
    </g>
   </g>
   <g id="legend_1">
    <g id="patch_7">
     <path d="M 458.84 147.21 
L 619.52 147.21 
Q 622.72 147.21 622.72 144.01 
L 622.72 49.6 
Q 622.72 46.4 619.52 46.4 
L 458.84 46.4 
Q 455.64 46.4 455.64 49.6 
L 455.64 144.01 
Q 455.64 147.21 458.84 147.21 
z
" style="fill: #ffffff; opacity: 0.8; stroke: #cccccc; stroke-linejoin: miter"/>
    </g>
    <g id="PathCollection_5">
     <g>
      <use xlink:href="#mad3a0a9efd" x="478.04" y="60.7575" style="fill: #4477aa; stroke: #4477aa"/>
     </g>
    </g>
    <g id="text_20">
     <!-- g = 1/2 (5 pts) -->
     <g transform="translate(506.84 64.9575) scale(0.16 -0.16)">
      <defs>
       <path id="OpenSans-Regular-3d" d="M 359 2681 
L 359 3103 
L 3291 3103 
L 3291 2681 
L 359 2681 
z
M 359 1403 
L 359 1825 
L 3291 1825 
L 3291 1403 
L 359 1403 
z
" transform="scale(0.015625)"/>
       <path id="OpenSans-Regular-2f" d="M 2278 4569 
L 578 0 
L 66 0 
L 1769 4569 
L 2278 4569 
z
" transform="scale(0.015625)"/>
       <path id="OpenSans-Regular-28" d="M 256 1753 
Q 256 2281 357 2781 
Q 459 3281 668 3734 
Q 878 4188 1197 4569 
L 1694 4569 
Q 1241 3975 1012 3250 
Q 784 2525 784 1759 
Q 784 1259 886 773 
Q 988 288 1189 -162 
Q 1391 -613 1688 -1013 
L 1197 -1013 
Q 878 -638 668 -195 
Q 459 247 357 740 
Q 256 1234 256 1753 
z
" transform="scale(0.015625)"/>
       <path id="OpenSans-Regular-29" d="M 1631 1759 
Q 1631 1238 1529 742 
Q 1428 247 1220 -197 
Q 1013 -641 691 -1013 
L 200 -1013 
Q 500 -616 701 -162 
Q 903 291 1004 777 
Q 1106 1263 1106 1763 
Q 1106 2272 1003 2765 
Q 900 3259 698 3715 
Q 497 4172 194 4569 
L 691 4569 
Q 1013 4184 1220 3732 
Q 1428 3281 1529 2782 
Q 1631 2284 1631 1759 
z
" transform="scale(0.015625)"/>
      </defs>
      <use xlink:href="#OpenSans-Regular-67"/>
      <use xlink:href="#OpenSans-Regular-20" x="54.296875"/>
      <use xlink:href="#OpenSans-Regular-3d" x="80.273438"/>
      <use xlink:href="#OpenSans-Regular-20" x="137.451172"/>
      <use xlink:href="#OpenSans-Regular-31" x="163.427734"/>
      <use xlink:href="#OpenSans-Regular-2f" x="220.605469"/>
      <use xlink:href="#OpenSans-Regular-32" x="257.275391"/>
      <use xlink:href="#OpenSans-Regular-20" x="314.453125"/>
      <use xlink:href="#OpenSans-Regular-28" x="340.429688"/>
      <use xlink:href="#OpenSans-Regular-35" x="369.921875"/>
      <use xlink:href="#OpenSans-Regular-20" x="427.099609"/>
      <use xlink:href="#OpenSans-Regular-70" x="453.076172"/>
      <use xlink:href="#OpenSans-Regular-74" x="514.257812"/>
      <use xlink:href="#OpenSans-Regular-73" x="549.902344"/>
      <use xlink:href="#OpenSans-Regular-29" x="597.558594"/>
     </g>
    </g>
    <g id="PathCollection_6">
     <g>
      <use xlink:href="#m6dd9069a19" x="478.04" y="84.76" style="fill: #ee6677; stroke: #ee6677"/>
     </g>
    </g>
    <g id="text_21">
     <!-- g = 1/4 (14 pts) -->
     <g transform="translate(506.84 88.96) scale(0.16 -0.16)">
      <use xlink:href="#OpenSans-Regular-67"/>
      <use xlink:href="#OpenSans-Regular-20" x="54.296875"/>
      <use xlink:href="#OpenSans-Regular-3d" x="80.273438"/>
      <use xlink:href="#OpenSans-Regular-20" x="137.451172"/>
      <use xlink:href="#OpenSans-Regular-31" x="163.427734"/>
      <use xlink:href="#OpenSans-Regular-2f" x="220.605469"/>
      <use xlink:href="#OpenSans-Regular-34" x="257.275391"/>
      <use xlink:href="#OpenSans-Regular-20" x="314.453125"/>
      <use xlink:href="#OpenSans-Regular-28" x="340.429688"/>
      <use xlink:href="#OpenSans-Regular-31" x="369.921875"/>
      <use xlink:href="#OpenSans-Regular-34" x="427.099609"/>
      <use xlink:href="#OpenSans-Regular-20" x="484.277344"/>
      <use xlink:href="#OpenSans-Regular-70" x="510.253906"/>
      <use xlink:href="#OpenSans-Regular-74" x="571.435547"/>
      <use xlink:href="#OpenSans-Regular-73" x="607.080078"/>
      <use xlink:href="#OpenSans-Regular-29" x="654.736328"/>
     </g>
    </g>
    <g id="PathCollection_7">
     <g>
      <use xlink:href="#m6e20636522" x="478.04" y="108.7625" style="fill: #228833; stroke: #228833"/>
     </g>
    </g>
    <g id="text_22">
     <!-- g = 1/6 (30 pts) -->
     <g transform="translate(506.84 112.9625) scale(0.16 -0.16)">
      <use xlink:href="#OpenSans-Regular-67"/>
      <use xlink:href="#OpenSans-Regular-20" x="54.296875"/>
      <use xlink:href="#OpenSans-Regular-3d" x="80.273438"/>
      <use xlink:href="#OpenSans-Regular-20" x="137.451172"/>
      <use xlink:href="#OpenSans-Regular-31" x="163.427734"/>
      <use xlink:href="#OpenSans-Regular-2f" x="220.605469"/>
      <use xlink:href="#OpenSans-Regular-36" x="257.275391"/>
      <use xlink:href="#OpenSans-Regular-20" x="314.453125"/>
      <use xlink:href="#OpenSans-Regular-28" x="340.429688"/>
      <use xlink:href="#OpenSans-Regular-33" x="369.921875"/>
      <use xlink:href="#OpenSans-Regular-30" x="427.099609"/>
      <use xlink:href="#OpenSans-Regular-20" x="484.277344"/>
      <use xlink:href="#OpenSans-Regular-70" x="510.253906"/>
      <use xlink:href="#OpenSans-Regular-74" x="571.435547"/>
      <use xlink:href="#OpenSans-Regular-73" x="607.080078"/>
      <use xlink:href="#OpenSans-Regular-29" x="654.736328"/>
     </g>
    </g>
    <g id="PathCollection_8">
     <g>
      <use xlink:href="#m898d0c8be4" x="478.04" y="132.765" style="fill: #ccbb44; stroke: #ccbb44"/>
     </g>
    </g>
    <g id="text_23">
     <!-- g = 1/8 (55 pts) -->
     <g transform="translate(506.84 136.965) scale(0.16 -0.16)">
      <use xlink:href="#OpenSans-Regular-67"/>
      <use xlink:href="#OpenSans-Regular-20" x="54.296875"/>
      <use xlink:href="#OpenSans-Regular-3d" x="80.273438"/>
      <use xlink:href="#OpenSans-Regular-20" x="137.451172"/>
      <use xlink:href="#OpenSans-Regular-31" x="163.427734"/>
      <use xlink:href="#OpenSans-Regular-2f" x="220.605469"/>
      <use xlink:href="#OpenSans-Regular-38" x="257.275391"/>
      <use xlink:href="#OpenSans-Regular-20" x="314.453125"/>
      <use xlink:href="#OpenSans-Regular-28" x="340.429688"/>
      <use xlink:href="#OpenSans-Regular-35" x="369.921875"/>
      <use xlink:href="#OpenSans-Regular-35" x="427.099609"/>
      <use xlink:href="#OpenSans-Regular-20" x="484.277344"/>
      <use xlink:href="#OpenSans-Regular-70" x="510.253906"/>
      <use xlink:href="#OpenSans-Regular-74" x="571.435547"/>
      <use xlink:href="#OpenSans-Regular-73" x="607.080078"/>
      <use xlink:href="#OpenSans-Regular-29" x="654.736328"/>
     </g>
    </g>
   </g>
  </g>
 </g>
 <defs>
  <clipPath id="p4593e1b479">
   <rect x="75.932857" y="38.4" width="554.787143" height="335.08"/>
  </clipPath>
 </defs>
</svg>
