<?xml version="1.0" encoding="utf-8" standalone="no"?>
<!DOCTYPE svg PUBLIC "-//W3C//DTD SVG 1.1//EN"
  "http://www.w3.org/Graphics/SVG/1.1/DTD/svg11.dtd">
<svg xmlns:xlink="http://www.w3.org/1999/xlink" width="460.8pt" height="345.6pt" viewBox="0 0 460.8 345.6" xmlns="http://www.w3.org/2000/svg" version="1.1">
 <metadata>
  <rdf:RDF xmlns:dc="http://purl.org/dc/elements/1.1/" xmlns:cc="http://creativecommons.org/ns#" xmlns:rdf="http://www.w3.org/1999/02/22-rdf-syntax-ns#">
   <cc:Work>
    <dc:type rdf:resource="http://purl.org/dc/dcmitype/StillImage"/>
    <dc:date>2023-05-02T21:58:21.745077</dc:date>
    <dc:format>image/svg+xml</dc:format>
    <dc:creator>
     <cc:Agent>
      <dc:title>Matplotlib v3.7.1, https://matplotlib.org/</dc:title>
     </cc:Agent>
    </dc:creator>
   </cc:Work>
  </rdf:RDF>
 </metadata>
 <defs>
  <style type="text/css">*{stroke-linejoin: round; stroke-linecap: butt}</style>
 </defs>
 <g id="figure_1">
  <g id="patch_1">
   <path d="M 0 345.6 
L 460.8 345.6 
L 460.8 0 
L 0 0 
z
" style="fill: #ffffff"/>
  </g>
  <g id="axes_1">
   <g id="patch_2">
    <path d="M 57.6 307.584 
L 414.72 307.584 
L 414.72 41.472 
L 57.6 41.472 
z
" style="fill: #ffffff"/>
   </g>
   <g id="PolyCollection_1">
    <defs>
     <path id="m69d4d7b450" d="M 73.832727 -171.072 
L 73.832727 -260.061851 
L 73.832727 -260.061851 
L 90.065455 -260.061851 
L 90.065455 -256.058378 
L 106.298182 -256.058378 
L 106.298182 -261.530688 
L 122.530909 -261.530688 
L 122.530909 -260.563094 
L 138.763636 -260.563094 
L 138.763636 -226.13428 
L 154.996364 -226.13428 
L 154.996364 -210.922021 
L 171.229091 -210.922021 
L 171.229091 -227.87539 
L 187.461818 -227.87539 
L 187.461818 -199.477898 
L 203.694545 -199.477898 
L 203.694545 -156.136512 
L 219.927273 -156.136512 
L 219.927273 -110.319706 
L 236.16 -110.319706 
L 236.16 -85.356274 
L 252.392727 -85.356274 
L 252.392727 -73.325582 
L 268.625455 -73.325582 
L 268.625455 -72.046976 
L 284.858182 -72.046976 
L 284.858182 -71.92829 
L 301.090909 -71.92829 
L 301.090909 -79.302604 
L 317.323636 -79.302604 
L 317.323636 -132.930573 
L 333.556364 -132.930573 
L 333.556364 -167.250925 
L 349.789091 -167.250925 
L 349.789091 -196.475362 
L 366.021818 -196.475362 
L 366.021818 -227.109541 
L 382.254545 -227.109541 
L 382.254545 -224.516051 
L 398.487273 -224.516051 
L 398.487273 -171.072 
L 398.487273 -171.072 
L 382.254545 -171.072 
L 382.254545 -171.072 
L 366.021818 -171.072 
L 366.021818 -171.072 
L 349.789091 -171.072 
L 349.789091 -171.072 
L 333.556364 -171.072 
L 333.556364 -171.072 
L 317.323636 -171.072 
L 317.323636 -171.072 
L 301.090909 -171.072 
L 301.090909 -171.072 
L 284.858182 -171.072 
L 284.858182 -171.072 
L 268.625455 -171.072 
L 268.625455 -171.072 
L 252.392727 -171.072 
L 252.392727 -171.072 
L 236.16 -171.072 
L 236.16 -171.072 
L 219.927273 -171.072 
L 219.927273 -171.072 
L 203.694545 -171.072 
L 203.694545 -171.072 
L 187.461818 -171.072 
L 187.461818 -171.072 
L 171.229091 -171.072 
L 171.229091 -171.072 
L 154.996364 -171.072 
L 154.996364 -171.072 
L 138.763636 -171.072 
L 138.763636 -171.072 
L 122.530909 -171.072 
L 122.530909 -171.072 
L 106.298182 -171.072 
L 106.298182 -171.072 
L 90.065455 -171.072 
L 90.065455 -171.072 
L 73.832727 -171.072 
L 73.832727 -171.072 
z
" style="stroke: #4477aa; stroke-opacity: 0.2"/>
    </defs>
    <g clip-path="url(#pf76f944b10)">
     <use xlink:href="#m69d4d7b450" x="0" y="345.6" style="fill: #4477aa; fill-opacity: 0.2; stroke: #4477aa; stroke-opacity: 0.2"/>
    </g>
   </g>
   <g id="PolyCollection_2">
    <defs>
     <path id="m675dd76122" d="M 73.832727 -171.072 
L 73.832727 -263.527429 
L 73.832727 -263.527429 
L 90.065455 -263.527429 
L 90.065455 -260.166041 
L 106.298182 -260.166041 
L 106.298182 -264.630436 
L 122.530909 -264.630436 
L 122.530909 -258.746592 
L 138.763636 -258.746592 
L 138.763636 -218.181705 
L 154.996364 -218.181705 
L 154.996364 -198.029343 
L 171.229091 -198.029343 
L 171.229091 -209.917952 
L 187.461818 -209.917952 
L 187.461818 -175.922611 
L 203.694545 -175.922611 
L 203.694545 -128.478305 
L 219.927273 -128.478305 
L 219.927273 -82.779368 
L 236.16 -82.779368 
L 236.16 -62.650142 
L 252.392727 -62.650142 
L 252.392727 -57.204088 
L 268.625455 -57.204088 
L 268.625455 -58.307296 
L 284.858182 -58.307296 
L 284.858182 -57.310414 
L 301.090909 -57.310414 
L 301.090909 -65.794253 
L 317.323636 -65.794253 
L 317.323636 -129.596729 
L 333.556364 -129.596729 
L 333.556364 -177.742442 
L 349.789091 -177.742442 
L 349.789091 -220.740748 
L 366.021818 -220.740748 
L 366.021818 -261.158315 
L 382.254545 -261.158315 
L 382.254545 -262.126881 
L 398.487273 -262.126881 
L 398.487273 -171.072 
L 398.487273 -171.072 
L 382.254545 -171.072 
L 382.254545 -171.072 
L 366.021818 -171.072 
L 366.021818 -171.072 
L 349.789091 -171.072 
L 349.789091 -171.072 
L 333.556364 -171.072 
L 333.556364 -171.072 
L 317.323636 -171.072 
L 317.323636 -171.072 
L 301.090909 -171.072 
L 301.090909 -171.072 
L 284.858182 -171.072 
L 284.858182 -171.072 
L 268.625455 -171.072 
L 268.625455 -171.072 
L 252.392727 -171.072 
L 252.392727 -171.072 
L 236.16 -171.072 
L 236.16 -171.072 
L 219.927273 -171.072 
L 219.927273 -171.072 
L 203.694545 -171.072 
L 203.694545 -171.072 
L 187.461818 -171.072 
L 187.461818 -171.072 
L 171.229091 -171.072 
L 171.229091 -171.072 
L 154.996364 -171.072 
L 154.996364 -171.072 
L 138.763636 -171.072 
L 138.763636 -171.072 
L 122.530909 -171.072 
L 122.530909 -171.072 
L 106.298182 -171.072 
L 106.298182 -171.072 
L 90.065455 -171.072 
L 90.065455 -171.072 
L 73.832727 -171.072 
L 73.832727 -171.072 
z
" style="stroke: #228833; stroke-opacity: 0.2"/>
    </defs>
    <g clip-path="url(#pf76f944b10)">
     <use xlink:href="#m675dd76122" x="0" y="345.6" style="fill: #228833; fill-opacity: 0.2; stroke: #228833; stroke-opacity: 0.2"/>
    </g>
   </g>
   <g id="matplotlib.axis_1">
    <g id="xtick_1">
     <g id="line2d_1">
      <defs>
       <path id="mac6f976c7e" d="M 0 0 
L 0 3.5 
" style="stroke: #000000; stroke-width: 0.8"/>
      </defs>
      <g>
       <use xlink:href="#mac6f976c7e" x="73.832727" y="307.584" style="stroke: #000000; stroke-width: 0.8"/>
      </g>
     </g>
     <g id="text_1">
      <!-- 0 -->
      <g transform="translate(69.258977 326.7415) scale(0.16 -0.16)">
       <defs>
        <path id="OpenSans-Regular-30" d="M 3334 2291 
Q 3334 1734 3250 1296 
Q 3166 859 2984 556 
Q 2803 253 2515 95 
Q 2228 -63 1825 -63 
Q 1316 -63 983 215 
Q 650 494 486 1020 
Q 322 1547 322 2291 
Q 322 3022 470 3548 
Q 619 4075 950 4358 
Q 1281 4641 1825 4641 
Q 2341 4641 2675 4361 
Q 3009 4081 3171 3554 
Q 3334 3028 3334 2291 
z
M 844 2291 
Q 844 1653 941 1228 
Q 1038 803 1255 592 
Q 1472 381 1825 381 
Q 2178 381 2395 590 
Q 2613 800 2711 1225 
Q 2809 1650 2809 2291 
Q 2809 2919 2712 3342 
Q 2616 3766 2400 3980 
Q 2184 4194 1825 4194 
Q 1466 4194 1250 3980 
Q 1034 3766 939 3342 
Q 844 2919 844 2291 
z
" transform="scale(0.015625)"/>
       </defs>
       <use xlink:href="#OpenSans-Regular-30"/>
      </g>
     </g>
    </g>
    <g id="xtick_2">
     <g id="line2d_2">
      <g>
       <use xlink:href="#mac6f976c7e" x="236.16" y="307.584" style="stroke: #000000; stroke-width: 0.8"/>
      </g>
     </g>
     <g id="text_2">
      <!-- $\pi/2$ -->
      <g transform="translate(223.84 326.7415) scale(0.16 -0.16)">
       <defs>
        <path id="DejaVuSans-Oblique-3c0" d="M 584 3500 
L 3938 3500 
L 3825 2925 
L 3384 2925 
L 2966 775 
Q 2922 550 2981 450 
Q 3038 353 3209 353 
Q 3256 353 3325 363 
Q 3397 369 3419 372 
L 3338 -44 
Q 3222 -84 3103 -103 
Q 2981 -122 2866 -122 
Q 2491 -122 2388 81 
Q 2284 288 2391 838 
L 2797 2925 
L 1506 2925 
L 938 0 
L 350 0 
L 919 2925 
L 472 2925 
L 584 3500 
z
" transform="scale(0.015625)"/>
        <path id="DejaVuSans-2f" d="M 1625 4666 
L 2156 4666 
L 531 -594 
L 0 -594 
L 1625 4666 
z
" transform="scale(0.015625)"/>
        <path id="DejaVuSans-32" d="M 1228 531 
L 3431 531 
L 3431 0 
L 469 0 
L 469 531 
Q 828 903 1448 1529 
Q 2069 2156 2228 2338 
Q 2531 2678 2651 2914 
Q 2772 3150 2772 3378 
Q 2772 3750 2511 3984 
Q 2250 4219 1831 4219 
Q 1534 4219 1204 4116 
Q 875 4013 500 3803 
L 500 4441 
Q 881 4594 1212 4672 
Q 1544 4750 1819 4750 
Q 2544 4750 2975 4387 
Q 3406 4025 3406 3419 
Q 3406 3131 3298 2873 
Q 3191 2616 2906 2266 
Q 2828 2175 2409 1742 
Q 1991 1309 1228 531 
z
" transform="scale(0.015625)"/>
       </defs>
       <use xlink:href="#DejaVuSans-Oblique-3c0" transform="translate(0 0.78125)"/>
       <use xlink:href="#DejaVuSans-2f" transform="translate(60.205078 0.78125)"/>
       <use xlink:href="#DejaVuSans-32" transform="translate(90.271484 0.78125)"/>
      </g>
     </g>
    </g>
    <g id="xtick_3">
     <g id="line2d_3">
      <g>
       <use xlink:href="#mac6f976c7e" x="398.487273" y="307.584" style="stroke: #000000; stroke-width: 0.8"/>
      </g>
     </g>
     <g id="text_3">
      <!-- $\pi$ -->
      <g transform="translate(393.607273 326.7415) scale(0.16 -0.16)">
       <use xlink:href="#DejaVuSans-Oblique-3c0" transform="translate(0 0.3125)"/>
      </g>
     </g>
    </g>
   </g>
   <g id="matplotlib.axis_2">
    <g id="ytick_1">
     <g id="line2d_4">
      <defs>
       <path id="m24b0431f5e" d="M 0 0 
L -3.5 0 
" style="stroke: #000000; stroke-width: 0.8"/>
      </defs>
      <g>
       <use xlink:href="#m24b0431f5e" x="57.6" y="295.488" style="stroke: #000000; stroke-width: 0.8"/>
      </g>
     </g>
     <g id="text_4">
      <!-- −1 -->
      <g transform="translate(32.305 301.56675) scale(0.16 -0.16)">
       <defs>
        <path id="OpenSans-Regular-2212" d="M 322 2044 
L 322 2469 
L 3331 2469 
L 3331 2044 
L 322 2044 
z
" transform="scale(0.015625)"/>
        <path id="OpenSans-Regular-31" d="M 2247 0 
L 1741 0 
L 1741 3238 
Q 1741 3422 1742 3555 
Q 1744 3688 1748 3798 
Q 1753 3909 1763 4025 
Q 1666 3925 1581 3854 
Q 1497 3784 1372 3681 
L 850 3263 
L 578 3616 
L 1816 4569 
L 2247 4569 
L 2247 0 
z
" transform="scale(0.015625)"/>
       </defs>
       <use xlink:href="#OpenSans-Regular-2212"/>
       <use xlink:href="#OpenSans-Regular-31" x="57.177734"/>
      </g>
     </g>
    </g>
    <g id="ytick_2">
     <g id="line2d_5">
      <g>
       <use xlink:href="#m24b0431f5e" x="57.6" y="174.528" style="stroke: #000000; stroke-width: 0.8"/>
      </g>
     </g>
     <g id="text_5">
      <!-- 0 -->
      <g transform="translate(41.4525 180.60675) scale(0.16 -0.16)">
       <use xlink:href="#OpenSans-Regular-30"/>
      </g>
     </g>
    </g>
    <g id="ytick_3">
     <g id="line2d_6">
      <g>
       <use xlink:href="#m24b0431f5e" x="57.6" y="53.568" style="stroke: #000000; stroke-width: 0.8"/>
      </g>
     </g>
     <g id="text_6">
      <!-- 1 -->
      <g transform="translate(41.4525 59.64675) scale(0.16 -0.16)">
       <use xlink:href="#OpenSans-Regular-31"/>
      </g>
     </g>
    </g>
   </g>
   <g id="line2d_7">
    <path d="M 73.832727 85.538149 
L 73.832727 85.538149 
L 90.065455 85.538149 
L 90.065455 89.541622 
L 106.298182 89.541622 
L 106.298182 84.069312 
L 122.530909 84.069312 
L 122.530909 85.036906 
L 138.763636 85.036906 
L 138.763636 119.46572 
L 154.996364 119.46572 
L 154.996364 134.677979 
L 171.229091 134.677979 
L 171.229091 117.72461 
L 187.461818 117.72461 
L 187.461818 146.122102 
L 203.694545 146.122102 
L 203.694545 189.463488 
L 219.927273 189.463488 
L 219.927273 235.280294 
L 236.16 235.280294 
L 236.16 260.243726 
L 252.392727 260.243726 
L 252.392727 272.274418 
L 268.625455 272.274418 
L 268.625455 273.553024 
L 284.858182 273.553024 
L 284.858182 273.67171 
L 301.090909 273.67171 
L 301.090909 266.297396 
L 317.323636 266.297396 
L 317.323636 212.669427 
L 333.556364 212.669427 
L 333.556364 178.349075 
L 349.789091 178.349075 
L 349.789091 149.124638 
L 366.021818 149.124638 
L 366.021818 118.490459 
L 382.254545 118.490459 
L 382.254545 121.083949 
L 398.487273 121.083949 
" clip-path="url(#pf76f944b10)" style="fill: none; stroke: #4477aa; stroke-width: 1.5; stroke-linecap: square"/>
   </g>
   <g id="line2d_8">
    <path d="M 73.832727 82.072571 
L 73.832727 82.072571 
L 90.065455 82.072571 
L 90.065455 85.433959 
L 106.298182 85.433959 
L 106.298182 80.969564 
L 122.530909 80.969564 
L 122.530909 86.853408 
L 138.763636 86.853408 
L 138.763636 127.418295 
L 154.996364 127.418295 
L 154.996364 147.570657 
L 171.229091 147.570657 
L 171.229091 135.682048 
L 187.461818 135.682048 
L 187.461818 169.677389 
L 203.694545 169.677389 
L 203.694545 217.121695 
L 219.927273 217.121695 
L 219.927273 262.820632 
L 236.16 262.820632 
L 236.16 282.949858 
L 252.392727 282.949858 
L 252.392727 288.395912 
L 268.625455 288.395912 
L 268.625455 287.292704 
L 284.858182 287.292704 
L 284.858182 288.289586 
L 301.090909 288.289586 
L 301.090909 279.805747 
L 317.323636 279.805747 
L 317.323636 216.003271 
L 333.556364 216.003271 
L 333.556364 167.857558 
L 349.789091 167.857558 
L 349.789091 124.859252 
L 366.021818 124.859252 
L 366.021818 84.441685 
L 382.254545 84.441685 
L 382.254545 83.473119 
L 398.487273 83.473119 
" clip-path="url(#pf76f944b10)" style="fill: none; stroke: #228833; stroke-width: 1.5; stroke-linecap: square"/>
   </g>
   <g id="patch_3">
    <path d="M 57.6 307.584 
L 57.6 41.472 
" style="fill: none; stroke: #000000; stroke-width: 0.8; stroke-linejoin: miter; stroke-linecap: square"/>
   </g>
   <g id="patch_4">
    <path d="M 414.72 307.584 
L 414.72 41.472 
" style="fill: none; stroke: #000000; stroke-width: 0.8; stroke-linejoin: miter; stroke-linecap: square"/>
   </g>
   <g id="patch_5">
    <path d="M 57.6 307.584 
L 414.72 307.584 
" style="fill: none; stroke: #000000; stroke-width: 0.8; stroke-linejoin: miter; stroke-linecap: square"/>
   </g>
   <g id="patch_6">
    <path d="M 57.6 41.472 
L 414.72 41.472 
" style="fill: none; stroke: #000000; stroke-width: 0.8; stroke-linejoin: miter; stroke-linecap: square"/>
   </g>
   <g id="legend_1">
    <g id="patch_7">
     <path d="M 175.52 111.872 
L 403.52 111.872 
Q 406.72 111.872 406.72 108.672 
L 406.72 52.672 
Q 406.72 49.472 403.52 49.472 
L 175.52 49.472 
Q 172.32 49.472 172.32 52.672 
L 172.32 108.672 
Q 172.32 111.872 175.52 111.872 
z
" style="fill: #ffffff; opacity: 0.8; stroke: #cccccc; stroke-linejoin: miter"/>
    </g>
    <g id="line2d_9">
     <path d="M 178.72 64.992 
L 178.72 64.992 
L 194.72 64.992 
L 194.72 64.992 
L 210.72 64.992 
" style="fill: none; stroke: #4477aa; stroke-width: 1.5; stroke-linecap: square"/>
    </g>
    <g id="text_7">
     <!-- $\sigma_z^{(1)}$ pulse, $CNOT$ gate -->
     <g transform="translate(223.52 70.592) scale(0.16 -0.16)">
      <defs>
       <path id="DejaVuSans-Oblique-3c3" d="M 2219 3044 
Q 1744 3044 1422 2700 
Q 1081 2341 969 1747 
Q 844 1119 1044 756 
Q 1241 397 1706 397 
Q 2166 397 2503 759 
Q 2844 1122 2966 1747 
Q 3075 2319 2881 2700 
Q 2700 3044 2219 3044 
z
M 2309 3503 
L 4219 3500 
L 4106 2925 
L 3463 2925 
Q 3706 2438 3575 1747 
Q 3406 888 2884 400 
Q 2359 -91 1609 -91 
Q 856 -91 525 400 
Q 194 888 363 1747 
Q 528 2609 1050 3097 
Q 1484 3503 2309 3503 
z
" transform="scale(0.015625)"/>
       <path id="DejaVuSans-28" d="M 1984 4856 
Q 1566 4138 1362 3434 
Q 1159 2731 1159 2009 
Q 1159 1288 1364 580 
Q 1569 -128 1984 -844 
L 1484 -844 
Q 1016 -109 783 600 
Q 550 1309 550 2009 
Q 550 2706 781 3412 
Q 1013 4119 1484 4856 
L 1984 4856 
z
" transform="scale(0.015625)"/>
       <path id="DejaVuSans-31" d="M 794 531 
L 1825 531 
L 1825 4091 
L 703 3866 
L 703 4441 
L 1819 4666 
L 2450 4666 
L 2450 531 
L 3481 531 
L 3481 0 
L 794 0 
L 794 531 
z
" transform="scale(0.015625)"/>
       <path id="DejaVuSans-29" d="M 513 4856 
L 1013 4856 
Q 1481 4119 1714 3412 
Q 1947 2706 1947 2009 
Q 1947 1309 1714 600 
Q 1481 -109 1013 -844 
L 513 -844 
Q 928 -128 1133 580 
Q 1338 1288 1338 2009 
Q 1338 2731 1133 3434 
Q 928 4138 513 4856 
z
" transform="scale(0.015625)"/>
       <path id="DejaVuSans-Oblique-7a" d="M 744 3500 
L 3475 3500 
L 3372 2975 
L 738 459 
L 2913 459 
L 2822 0 
L -19 0 
L 84 525 
L 2719 3041 
L 653 3041 
L 744 3500 
z
" transform="scale(0.015625)"/>
       <path id="OpenSans-Regular-20" transform="scale(0.015625)"/>
       <path id="OpenSans-Regular-70" d="M 2156 3488 
Q 2797 3488 3178 3047 
Q 3559 2606 3559 1722 
Q 3559 1138 3384 741 
Q 3209 344 2892 140 
Q 2575 -63 2144 -63 
Q 1872 -63 1665 9 
Q 1459 81 1312 203 
Q 1166 325 1069 469 
L 1031 469 
Q 1041 347 1055 175 
Q 1069 3 1069 -125 
L 1069 -1531 
L 547 -1531 
L 547 3425 
L 975 3425 
L 1044 2919 
L 1069 2919 
Q 1169 3075 1312 3204 
Q 1456 3334 1664 3411 
Q 1872 3488 2156 3488 
z
M 2066 3050 
Q 1709 3050 1492 2912 
Q 1275 2775 1175 2501 
Q 1075 2228 1069 1816 
L 1069 1716 
Q 1069 1281 1164 981 
Q 1259 681 1479 525 
Q 1700 369 2072 369 
Q 2391 369 2603 541 
Q 2816 713 2920 1020 
Q 3025 1328 3025 1728 
Q 3025 2334 2789 2692 
Q 2553 3050 2066 3050 
z
" transform="scale(0.015625)"/>
       <path id="OpenSans-Regular-75" d="M 3375 3425 
L 3375 0 
L 2950 0 
L 2875 481 
L 2847 481 
Q 2741 303 2572 181 
Q 2403 59 2192 -2 
Q 1981 -63 1744 -63 
Q 1338 -63 1063 68 
Q 788 200 648 475 
Q 509 750 509 1181 
L 509 3425 
L 1034 3425 
L 1034 1219 
Q 1034 791 1228 580 
Q 1422 369 1819 369 
Q 2200 369 2426 512 
Q 2653 656 2753 936 
Q 2853 1216 2853 1622 
L 2853 3425 
L 3375 3425 
z
" transform="scale(0.015625)"/>
       <path id="OpenSans-Regular-6c" d="M 1069 0 
L 547 0 
L 547 4863 
L 1069 4863 
L 1069 0 
z
" transform="scale(0.015625)"/>
       <path id="OpenSans-Regular-73" d="M 2763 938 
Q 2763 609 2598 386 
Q 2434 163 2129 50 
Q 1825 -63 1403 -63 
Q 1044 -63 781 -6 
Q 519 50 322 153 
L 322 631 
Q 531 528 822 443 
Q 1113 359 1416 359 
Q 1859 359 2059 503 
Q 2259 647 2259 894 
Q 2259 1034 2179 1142 
Q 2100 1250 1912 1351 
Q 1725 1453 1394 1575 
Q 1066 1700 827 1823 
Q 588 1947 458 2125 
Q 328 2303 328 2588 
Q 328 3022 679 3255 
Q 1031 3488 1603 3488 
Q 1913 3488 2183 3427 
Q 2453 3366 2688 3263 
L 2513 2847 
Q 2300 2938 2059 3000 
Q 1819 3063 1569 3063 
Q 1209 3063 1017 2944 
Q 825 2825 825 2619 
Q 825 2459 914 2356 
Q 1003 2253 1200 2162 
Q 1397 2072 1719 1950 
Q 2041 1831 2275 1704 
Q 2509 1578 2636 1398 
Q 2763 1219 2763 938 
z
" transform="scale(0.015625)"/>
       <path id="OpenSans-Regular-65" d="M 1866 3488 
Q 2303 3488 2615 3294 
Q 2928 3100 3093 2751 
Q 3259 2403 3259 1938 
L 3259 1616 
L 894 1616 
Q 903 1013 1193 697 
Q 1484 381 2013 381 
Q 2338 381 2588 440 
Q 2838 500 3106 616 
L 3106 159 
Q 2847 44 2592 -9 
Q 2338 -63 1991 -63 
Q 1497 -63 1130 139 
Q 763 341 559 731 
Q 356 1122 356 1688 
Q 356 2241 542 2645 
Q 728 3050 1067 3269 
Q 1406 3488 1866 3488 
z
M 1859 3063 
Q 1444 3063 1197 2791 
Q 950 2519 903 2031 
L 2716 2031 
Q 2713 2338 2620 2570 
Q 2528 2803 2340 2933 
Q 2153 3063 1859 3063 
z
" transform="scale(0.015625)"/>
       <path id="OpenSans-Regular-2c" d="M 1141 744 
L 1181 672 
Q 1125 444 1039 184 
Q 953 -75 851 -336 
Q 750 -597 647 -825 
L 259 -825 
Q 325 -575 387 -298 
Q 450 -22 501 248 
Q 553 519 584 744 
L 1141 744 
z
" transform="scale(0.015625)"/>
       <path id="DejaVuSans-Oblique-43" d="M 4447 4306 
L 4319 3641 
Q 4019 3944 3683 4091 
Q 3347 4238 2956 4238 
Q 2422 4238 2017 3981 
Q 1613 3725 1319 3200 
Q 1131 2863 1032 2486 
Q 934 2109 934 1728 
Q 934 1091 1264 756 
Q 1594 422 2222 422 
Q 2656 422 3056 561 
Q 3456 700 3834 978 
L 3688 231 
Q 3316 72 2936 -9 
Q 2556 -91 2175 -91 
Q 1278 -91 773 396 
Q 269 884 269 1753 
Q 269 2309 461 2846 
Q 653 3384 1013 3828 
Q 1394 4300 1883 4525 
Q 2372 4750 3022 4750 
Q 3422 4750 3780 4639 
Q 4138 4528 4447 4306 
z
" transform="scale(0.015625)"/>
       <path id="DejaVuSans-Oblique-4e" d="M 1081 4666 
L 1931 4666 
L 3219 666 
L 4000 4666 
L 4616 4666 
L 3706 0 
L 2853 0 
L 1569 4025 
L 788 0 
L 172 0 
L 1081 4666 
z
" transform="scale(0.015625)"/>
       <path id="DejaVuSans-Oblique-4f" d="M 2919 4238 
Q 2400 4238 2003 3986 
Q 1606 3734 1313 3219 
Q 1125 2891 1026 2522 
Q 928 2153 928 1778 
Q 928 1128 1239 775 
Q 1550 422 2119 422 
Q 2631 422 3032 676 
Q 3434 931 3719 1434 
Q 3909 1772 4009 2142 
Q 4109 2513 4109 2881 
Q 4109 3528 3796 3883 
Q 3484 4238 2919 4238 
z
M 2100 -91 
Q 1241 -91 748 418 
Q 256 928 256 1813 
Q 256 2319 448 2847 
Q 641 3375 978 3788 
Q 1375 4272 1862 4511 
Q 2350 4750 2938 4750 
Q 3794 4750 4287 4245 
Q 4781 3741 4781 2869 
Q 4781 2331 4593 1812 
Q 4406 1294 4056 872 
Q 3656 384 3173 146 
Q 2691 -91 2100 -91 
z
" transform="scale(0.015625)"/>
       <path id="DejaVuSans-Oblique-54" d="M 378 4666 
L 4325 4666 
L 4225 4134 
L 2559 4134 
L 1759 0 
L 1125 0 
L 1925 4134 
L 275 4134 
L 378 4666 
z
" transform="scale(0.015625)"/>
       <path id="OpenSans-Regular-67" d="M 1503 -1538 
Q 828 -1538 462 -1286 
Q 97 -1034 97 -581 
Q 97 -259 301 -31 
Q 506 197 869 272 
Q 734 334 639 459 
Q 544 584 544 747 
Q 544 934 648 1076 
Q 753 1219 969 1350 
Q 700 1459 533 1720 
Q 366 1981 366 2328 
Q 366 2697 519 2958 
Q 672 3219 962 3356 
Q 1253 3494 1666 3494 
Q 1756 3494 1848 3486 
Q 1941 3478 2025 3464 
Q 2109 3450 2172 3431 
L 3347 3431 
L 3347 3097 
L 2716 3019 
Q 2809 2897 2871 2725 
Q 2934 2553 2934 2344 
Q 2934 1831 2587 1529 
Q 2241 1228 1634 1228 
Q 1491 1228 1341 1253 
Q 1188 1169 1108 1066 
Q 1028 963 1028 828 
Q 1028 728 1089 668 
Q 1150 609 1265 582 
Q 1381 556 1544 556 
L 2147 556 
Q 2706 556 3004 322 
Q 3303 88 3303 -363 
Q 3303 -931 2840 -1234 
Q 2378 -1538 1503 -1538 
z
M 1519 -1131 
Q 1944 -1131 2223 -1045 
Q 2503 -959 2642 -798 
Q 2781 -638 2781 -416 
Q 2781 -209 2687 -104 
Q 2594 0 2412 36 
Q 2231 72 1969 72 
L 1375 72 
Q 1144 72 972 0 
Q 800 -72 708 -212 
Q 616 -353 616 -563 
Q 616 -841 850 -986 
Q 1084 -1131 1519 -1131 
z
M 1653 1606 
Q 2025 1606 2212 1793 
Q 2400 1981 2400 2341 
Q 2400 2725 2209 2917 
Q 2019 3109 1647 3109 
Q 1291 3109 1098 2911 
Q 906 2713 906 2331 
Q 906 1981 1100 1793 
Q 1294 1606 1653 1606 
z
" transform="scale(0.015625)"/>
       <path id="OpenSans-Regular-61" d="M 1828 3481 
Q 2441 3481 2737 3206 
Q 3034 2931 3034 2328 
L 3034 0 
L 2656 0 
L 2556 506 
L 2531 506 
Q 2388 319 2231 192 
Q 2075 66 1870 1 
Q 1666 -63 1369 -63 
Q 1056 -63 814 46 
Q 572 156 433 378 
Q 294 600 294 941 
Q 294 1453 700 1728 
Q 1106 2003 1938 2028 
L 2528 2053 
L 2528 2263 
Q 2528 2706 2337 2884 
Q 2147 3063 1800 3063 
Q 1531 3063 1287 2984 
Q 1044 2906 825 2800 
L 666 3194 
Q 897 3313 1197 3397 
Q 1497 3481 1828 3481 
z
M 2522 1688 
L 2000 1666 
Q 1359 1641 1096 1456 
Q 834 1272 834 934 
Q 834 641 1012 500 
Q 1191 359 1484 359 
Q 1941 359 2231 612 
Q 2522 866 2522 1372 
L 2522 1688 
z
" transform="scale(0.015625)"/>
       <path id="OpenSans-Regular-74" d="M 1653 363 
Q 1781 363 1915 384 
Q 2050 406 2134 438 
L 2134 34 
Q 2044 -6 1883 -34 
Q 1722 -63 1569 -63 
Q 1297 -63 1075 32 
Q 853 128 720 356 
Q 588 584 588 988 
L 588 3019 
L 100 3019 
L 100 3272 
L 591 3475 
L 797 4219 
L 1109 4219 
L 1109 3425 
L 2113 3425 
L 2113 3019 
L 1109 3019 
L 1109 1003 
Q 1109 681 1257 522 
Q 1406 363 1653 363 
z
" transform="scale(0.015625)"/>
      </defs>
      <use xlink:href="#DejaVuSans-Oblique-3c3" transform="translate(0 0.60625)"/>
      <use xlink:href="#DejaVuSans-28" transform="translate(67.851615 38.8875) scale(0.7)"/>
      <use xlink:href="#DejaVuSans-31" transform="translate(95.161185 38.8875) scale(0.7)"/>
      <use xlink:href="#DejaVuSans-29" transform="translate(139.697318 38.8875) scale(0.7)"/>
      <use xlink:href="#DejaVuSans-Oblique-7a" transform="translate(63.378906 -26.7375) scale(0.7)"/>
      <use xlink:href="#OpenSans-Regular-20" transform="translate(169.741263 0.60625)"/>
      <use xlink:href="#OpenSans-Regular-70" transform="translate(195.717826 0.60625)"/>
      <use xlink:href="#OpenSans-Regular-75" transform="translate(256.899466 0.60625)"/>
      <use xlink:href="#OpenSans-Regular-6c" transform="translate(318.227591 0.60625)"/>
      <use xlink:href="#OpenSans-Regular-73" transform="translate(343.471732 0.60625)"/>
      <use xlink:href="#OpenSans-Regular-65" transform="translate(391.127982 0.60625)"/>
      <use xlink:href="#OpenSans-Regular-2c" transform="translate(447.280326 0.60625)"/>
      <use xlink:href="#OpenSans-Regular-20" transform="translate(473.159232 0.60625)"/>
      <use xlink:href="#DejaVuSans-Oblique-43" transform="translate(499.135794 0.60625)"/>
      <use xlink:href="#DejaVuSans-Oblique-4e" transform="translate(568.960013 0.60625)"/>
      <use xlink:href="#DejaVuSans-Oblique-4f" transform="translate(643.764701 0.60625)"/>
      <use xlink:href="#DejaVuSans-Oblique-54" transform="translate(722.475638 0.60625)"/>
      <use xlink:href="#OpenSans-Regular-20" transform="translate(783.559622 0.60625)"/>
      <use xlink:href="#OpenSans-Regular-67" transform="translate(809.536185 0.60625)"/>
      <use xlink:href="#OpenSans-Regular-61" transform="translate(863.83306 0.60625)"/>
      <use xlink:href="#OpenSans-Regular-74" transform="translate(919.399466 0.60625)"/>
      <use xlink:href="#OpenSans-Regular-65" transform="translate(955.043997 0.60625)"/>
     </g>
    </g>
    <g id="line2d_10">
     <path d="M 178.72 95.392 
L 178.72 95.392 
L 194.72 95.392 
L 194.72 95.392 
L 210.72 95.392 
" style="fill: none; stroke: #228833; stroke-width: 1.5; stroke-linecap: square"/>
    </g>
    <g id="text_8">
     <!-- $\sigma_z^{(1)}$ pulse, $\sqrt{SWAP}$ gate -->
     <g transform="translate(223.52 100.992) scale(0.16 -0.16)">
      <defs>
       <path id="STIXSizeOneSym-Regular-221a" d="M 6970 9933 
L 3373 -1888 
L 3104 -1888 
L 1626 2918 
Q 1555 3149 1465 3251 
Q 1376 3354 1229 3354 
Q 1011 3354 794 3181 
L 717 3309 
L 1766 4115 
L 1926 4115 
L 3379 -602 
L 3405 -602 
L 6605 9933 
L 6970 9933 
z
" transform="scale(0.015625)"/>
       <path id="DejaVuSans-Oblique-53" d="M 3859 4513 
L 3738 3897 
Q 3422 4066 3111 4152 
Q 2800 4238 2509 4238 
Q 1944 4238 1609 3991 
Q 1275 3744 1275 3334 
Q 1275 3109 1398 2989 
Q 1522 2869 2034 2731 
L 2413 2638 
Q 3053 2472 3303 2217 
Q 3553 1963 3553 1503 
Q 3553 797 2998 353 
Q 2444 -91 1538 -91 
Q 1166 -91 791 -17 
Q 416 56 38 206 
L 166 856 
Q 513 641 861 531 
Q 1209 422 1556 422 
Q 2147 422 2503 684 
Q 2859 947 2859 1369 
Q 2859 1650 2717 1795 
Q 2575 1941 2106 2059 
L 1728 2156 
Q 1081 2325 845 2545 
Q 609 2766 609 3163 
Q 609 3859 1145 4304 
Q 1681 4750 2541 4750 
Q 2875 4750 3203 4690 
Q 3531 4631 3859 4513 
z
" transform="scale(0.015625)"/>
       <path id="DejaVuSans-Oblique-57" d="M 616 4666 
L 1228 4666 
L 1453 697 
L 3213 4666 
L 3916 4666 
L 4147 697 
L 5888 4666 
L 6528 4666 
L 4453 0 
L 3659 0 
L 3444 3891 
L 1697 0 
L 903 0 
L 616 4666 
z
" transform="scale(0.015625)"/>
       <path id="DejaVuSans-Oblique-41" d="M 2356 4666 
L 3072 4666 
L 3938 0 
L 3278 0 
L 3084 1197 
L 984 1197 
L 325 0 
L -341 0 
L 2356 4666 
z
M 2584 4044 
L 1275 1722 
L 2988 1722 
L 2584 4044 
z
" transform="scale(0.015625)"/>
       <path id="DejaVuSans-Oblique-50" d="M 1081 4666 
L 2541 4666 
Q 3178 4666 3512 4369 
Q 3847 4072 3847 3500 
Q 3847 2731 3353 2303 
Q 2859 1875 1966 1875 
L 1172 1875 
L 806 0 
L 172 0 
L 1081 4666 
z
M 1613 4147 
L 1275 2394 
L 2069 2394 
Q 2606 2394 2893 2669 
Q 3181 2944 3181 3456 
Q 3181 3784 2986 3965 
Q 2791 4147 2438 4147 
L 1613 4147 
z
" transform="scale(0.015625)"/>
      </defs>
      <use xlink:href="#DejaVuSans-Oblique-3c3" transform="translate(0 0.296875)"/>
      <use xlink:href="#DejaVuSans-28" transform="translate(67.851615 38.578125) scale(0.7)"/>
      <use xlink:href="#DejaVuSans-31" transform="translate(95.161185 38.578125) scale(0.7)"/>
      <use xlink:href="#DejaVuSans-29" transform="translate(139.697318 38.578125) scale(0.7)"/>
      <use xlink:href="#DejaVuSans-Oblique-7a" transform="translate(63.378906 -27.046875) scale(0.7)"/>
      <use xlink:href="#OpenSans-Regular-20" transform="translate(169.741263 0.296875)"/>
      <use xlink:href="#OpenSans-Regular-70" transform="translate(195.717826 0.296875)"/>
      <use xlink:href="#OpenSans-Regular-75" transform="translate(256.899466 0.296875)"/>
      <use xlink:href="#OpenSans-Regular-6c" transform="translate(318.227591 0.296875)"/>
      <use xlink:href="#OpenSans-Regular-73" transform="translate(343.471732 0.296875)"/>
      <use xlink:href="#OpenSans-Regular-65" transform="translate(391.127982 0.296875)"/>
      <use xlink:href="#OpenSans-Regular-2c" transform="translate(447.280326 0.296875)"/>
      <use xlink:href="#OpenSans-Regular-20" transform="translate(473.159232 0.296875)"/>
      <use xlink:href="#STIXSizeOneSym-Regular-221a" transform="translate(499.135794 15.984375) scale(0.578716)"/>
      <use xlink:href="#DejaVuSans-Oblique-53" transform="translate(572.809668 0.53125)"/>
      <use xlink:href="#DejaVuSans-Oblique-57" transform="translate(636.286231 0.53125)"/>
      <use xlink:href="#DejaVuSans-Oblique-41" transform="translate(735.163184 0.53125)"/>
      <use xlink:href="#DejaVuSans-Oblique-50" transform="translate(803.571387 0.53125)"/>
      <use xlink:href="#OpenSans-Regular-20" transform="translate(876.374121 0.296875)"/>
      <use xlink:href="#OpenSans-Regular-67" transform="translate(902.350684 0.296875)"/>
      <use xlink:href="#OpenSans-Regular-61" transform="translate(956.647559 0.296875)"/>
      <use xlink:href="#OpenSans-Regular-74" transform="translate(1012.213965 0.296875)"/>
      <use xlink:href="#OpenSans-Regular-65" transform="translate(1047.858496 0.296875)"/>
      <path d="M 560.309668 99.5 
L 560.309668 105.75 
L 876.374121 105.75 
L 876.374121 99.5 
L 560.309668 99.5 
z
"/>
     </g>
    </g>
   </g>
  </g>
 </g>
 <defs>
  <clipPath id="pf76f944b10">
   <rect x="57.6" y="41.472" width="357.12" height="266.112"/>
  </clipPath>
 </defs>
</svg>
