<?xml version="1.0" encoding="utf-8" standalone="no"?>
<!DOCTYPE svg PUBLIC "-//W3C//DTD SVG 1.1//EN"
  "http://www.w3.org/Graphics/SVG/1.1/DTD/svg11.dtd">
<svg xmlns:xlink="http://www.w3.org/1999/xlink" width="432pt" height="288pt" viewBox="0 0 432 288" xmlns="http://www.w3.org/2000/svg" version="1.1">
 <metadata>
  <rdf:RDF xmlns:dc="http://purl.org/dc/elements/1.1/" xmlns:cc="http://creativecommons.org/ns#" xmlns:rdf="http://www.w3.org/1999/02/22-rdf-syntax-ns#">
   <cc:Work>
    <dc:type rdf:resource="http://purl.org/dc/dcmitype/StillImage"/>
    <dc:date>2023-05-02T21:58:18.689323</dc:date>
    <dc:format>image/svg+xml</dc:format>
    <dc:creator>
     <cc:Agent>
      <dc:title>Matplotlib v3.7.1, https://matplotlib.org/</dc:title>
     </cc:Agent>
    </dc:creator>
   </cc:Work>
  </rdf:RDF>
 </metadata>
 <defs>
  <style type="text/css">*{stroke-linejoin: round; stroke-linecap: butt}</style>
 </defs>
 <g id="figure_1">
  <g id="patch_1">
   <path d="M 0 288 
L 432 288 
L 432 0 
L 0 0 
z
" style="fill: #ffffff"/>
  </g>
  <g id="axes_1">
   <g id="patch_2">
    <path d="M 51.82 245.576 
L 414.72 245.576 
L 414.72 23.04 
L 51.82 23.04 
z
" style="fill: #ffffff"/>
   </g>
   <g id="patch_3">
    <path d="M 68.315455 245.576 
L 81.511818 245.576 
L 81.511818 228.8858 
L 68.315455 228.8858 
z
" clip-path="url(#p6ce1682c38)" style="fill: #46085c"/>
   </g>
   <g id="patch_4">
    <path d="M 81.511818 245.576 
L 94.708182 245.576 
L 94.708182 199.95612 
L 81.511818 199.95612 
z
" clip-path="url(#p6ce1682c38)" style="fill: #481769"/>
   </g>
   <g id="patch_5">
    <path d="M 94.708182 245.576 
L 107.904545 245.576 
L 107.904545 138.75872 
L 94.708182 138.75872 
z
" clip-path="url(#p6ce1682c38)" style="fill: #482576"/>
   </g>
   <g id="patch_6">
    <path d="M 107.904545 245.576 
L 121.100909 245.576 
L 121.100909 132.08264 
L 107.904545 132.08264 
z
" clip-path="url(#p6ce1682c38)" style="fill: #46327e"/>
   </g>
   <g id="patch_7">
    <path d="M 121.100909 245.576 
L 134.297273 245.576 
L 134.297273 1.89908 
L 121.100909 1.89908 
z
" clip-path="url(#p6ce1682c38)" style="fill: #433e85"/>
   </g>
   <g id="patch_8">
    <path d="M 134.297273 245.576 
L 147.493636 245.576 
L 147.493636 102.04028 
L 134.297273 102.04028 
z
" clip-path="url(#p6ce1682c38)" style="fill: #3e4989"/>
   </g>
   <g id="patch_9">
    <path d="M 147.493636 245.576 
L 160.69 245.576 
L 160.69 106.491 
L 147.493636 106.491 
z
" clip-path="url(#p6ce1682c38)" style="fill: #39558c"/>
   </g>
   <g id="patch_10">
    <path d="M 160.69 245.576 
L 173.886364 245.576 
L 173.886364 205.51952 
L 160.69 205.51952 
z
" clip-path="url(#p6ce1682c38)" style="fill: #34608d"/>
   </g>
   <g id="patch_11">
    <path d="M 173.886364 245.576 
L 187.082727 245.576 
L 187.082727 236.67456 
L 173.886364 236.67456 
z
" clip-path="url(#p6ce1682c38)" style="fill: #306a8e"/>
   </g>
   <g id="patch_12">
    <path d="M 187.082727 245.576 
L 200.279091 245.576 
L 200.279091 245.576 
L 187.082727 245.576 
z
" clip-path="url(#p6ce1682c38)" style="fill: #2c738e"/>
   </g>
   <g id="patch_13">
    <path d="M 200.279091 245.576 
L 213.475455 245.576 
L 213.475455 245.576 
L 200.279091 245.576 
z
" clip-path="url(#p6ce1682c38)" style="fill: #277e8e"/>
   </g>
   <g id="patch_14">
    <path d="M 213.475455 245.576 
L 226.671818 245.576 
L 226.671818 245.576 
L 213.475455 245.576 
z
" clip-path="url(#p6ce1682c38)" style="fill: #24878e"/>
   </g>
   <g id="patch_15">
    <path d="M 226.671818 245.576 
L 239.868182 245.576 
L 239.868182 245.576 
L 226.671818 245.576 
z
" clip-path="url(#p6ce1682c38)" style="fill: #21918c"/>
   </g>
   <g id="patch_16">
    <path d="M 239.868182 245.576 
L 253.064545 245.576 
L 253.064545 245.576 
L 239.868182 245.576 
z
" clip-path="url(#p6ce1682c38)" style="fill: #1f9a8a"/>
   </g>
   <g id="patch_17">
    <path d="M 253.064545 245.576 
L 266.260909 245.576 
L 266.260909 245.576 
L 253.064545 245.576 
z
" clip-path="url(#p6ce1682c38)" style="fill: #20a486"/>
   </g>
   <g id="patch_18">
    <path d="M 266.260909 245.576 
L 279.457273 245.576 
L 279.457273 245.576 
L 266.260909 245.576 
z
" clip-path="url(#p6ce1682c38)" style="fill: #27ad81"/>
   </g>
   <g id="patch_19">
    <path d="M 279.457273 245.576 
L 292.653636 245.576 
L 292.653636 245.576 
L 279.457273 245.576 
z
" clip-path="url(#p6ce1682c38)" style="fill: #34b679"/>
   </g>
   <g id="patch_20">
    <path d="M 292.653636 245.576 
L 305.85 245.576 
L 305.85 245.576 
L 292.653636 245.576 
z
" clip-path="url(#p6ce1682c38)" style="fill: #44bf70"/>
   </g>
   <g id="patch_21">
    <path d="M 305.85 245.576 
L 319.046364 245.576 
L 319.046364 245.576 
L 305.85 245.576 
z
" clip-path="url(#p6ce1682c38)" style="fill: #5ac864"/>
   </g>
   <g id="patch_22">
    <path d="M 319.046364 245.576 
L 332.242727 245.576 
L 332.242727 245.576 
L 319.046364 245.576 
z
" clip-path="url(#p6ce1682c38)" style="fill: #70cf57"/>
   </g>
   <g id="patch_23">
    <path d="M 332.242727 245.576 
L 345.439091 245.576 
L 345.439091 245.576 
L 332.242727 245.576 
z
" clip-path="url(#p6ce1682c38)" style="fill: #89d548"/>
   </g>
   <g id="patch_24">
    <path d="M 345.439091 245.576 
L 358.635455 245.576 
L 358.635455 245.576 
L 345.439091 245.576 
z
" clip-path="url(#p6ce1682c38)" style="fill: #a2da37"/>
   </g>
   <g id="patch_25">
    <path d="M 358.635455 245.576 
L 371.831818 245.576 
L 371.831818 245.576 
L 358.635455 245.576 
z
" clip-path="url(#p6ce1682c38)" style="fill: #bddf26"/>
   </g>
   <g id="patch_26">
    <path d="M 371.831818 245.576 
L 385.028182 245.576 
L 385.028182 245.576 
L 371.831818 245.576 
z
" clip-path="url(#p6ce1682c38)" style="fill: #dae319"/>
   </g>
   <g id="patch_27">
    <path d="M 385.028182 245.576 
L 398.224545 245.576 
L 398.224545 245.576 
L 385.028182 245.576 
z
" clip-path="url(#p6ce1682c38)" style="fill: #f4e61e"/>
   </g>
   <g id="matplotlib.axis_1">
    <g id="xtick_1">
     <g id="line2d_1">
      <defs>
       <path id="mc50f067d76" d="M 0 0 
L 0 3.5 
" style="stroke: #000000; stroke-width: 0.8"/>
      </defs>
      <g>
       <use xlink:href="#mc50f067d76" x="68.315455" y="245.576" style="stroke: #000000; stroke-width: 0.8"/>
      </g>
     </g>
     <g id="text_1">
      <!-- $\mathdefault{10^{-5}}$ -->
      <g transform="translate(52.395455 264.7335) scale(0.16 -0.16)">
       <defs>
        <path id="OpenSans-Regular-31" d="M 2247 0 
L 1741 0 
L 1741 3238 
Q 1741 3422 1742 3555 
Q 1744 3688 1748 3798 
Q 1753 3909 1763 4025 
Q 1666 3925 1581 3854 
Q 1497 3784 1372 3681 
L 850 3263 
L 578 3616 
L 1816 4569 
L 2247 4569 
L 2247 0 
z
" transform="scale(0.015625)"/>
        <path id="OpenSans-Regular-30" d="M 3334 2291 
Q 3334 1734 3250 1296 
Q 3166 859 2984 556 
Q 2803 253 2515 95 
Q 2228 -63 1825 -63 
Q 1316 -63 983 215 
Q 650 494 486 1020 
Q 322 1547 322 2291 
Q 322 3022 470 3548 
Q 619 4075 950 4358 
Q 1281 4641 1825 4641 
Q 2341 4641 2675 4361 
Q 3009 4081 3171 3554 
Q 3334 3028 3334 2291 
z
M 844 2291 
Q 844 1653 941 1228 
Q 1038 803 1255 592 
Q 1472 381 1825 381 
Q 2178 381 2395 590 
Q 2613 800 2711 1225 
Q 2809 1650 2809 2291 
Q 2809 2919 2712 3342 
Q 2616 3766 2400 3980 
Q 2184 4194 1825 4194 
Q 1466 4194 1250 3980 
Q 1034 3766 939 3342 
Q 844 2919 844 2291 
z
" transform="scale(0.015625)"/>
        <path id="OpenSans-Regular-2212" d="M 322 2044 
L 322 2469 
L 3331 2469 
L 3331 2044 
L 322 2044 
z
" transform="scale(0.015625)"/>
        <path id="OpenSans-Regular-35" d="M 1759 2794 
Q 2225 2794 2569 2636 
Q 2913 2478 3102 2178 
Q 3291 1878 3291 1450 
Q 3291 981 3087 642 
Q 2884 303 2503 120 
Q 2122 -63 1591 -63 
Q 1234 -63 928 0 
Q 622 63 413 188 
L 413 681 
Q 641 544 966 462 
Q 1291 381 1597 381 
Q 1944 381 2205 492 
Q 2466 603 2611 829 
Q 2756 1056 2756 1400 
Q 2756 1856 2476 2104 
Q 2197 2353 1594 2353 
Q 1400 2353 1169 2322 
Q 938 2291 788 2253 
L 525 2425 
L 700 4569 
L 2972 4569 
L 2972 4094 
L 1144 4094 
L 1028 2716 
Q 1147 2741 1334 2767 
Q 1522 2794 1759 2794 
z
" transform="scale(0.015625)"/>
       </defs>
       <use xlink:href="#OpenSans-Regular-31" transform="translate(0 0.565625)"/>
       <use xlink:href="#OpenSans-Regular-30" transform="translate(57.177734 0.565625)"/>
       <use xlink:href="#OpenSans-Regular-2212" transform="translate(115.291992 38.026563) scale(0.7)"/>
       <use xlink:href="#OpenSans-Regular-35" transform="translate(155.316406 38.026563) scale(0.7)"/>
      </g>
     </g>
    </g>
    <g id="xtick_2">
     <g id="line2d_2">
      <g>
       <use xlink:href="#mc50f067d76" x="134.297273" y="245.576" style="stroke: #000000; stroke-width: 0.8"/>
      </g>
     </g>
     <g id="text_2">
      <!-- $\mathdefault{10^{-4}}$ -->
      <g transform="translate(118.377273 264.7335) scale(0.16 -0.16)">
       <defs>
        <path id="OpenSans-Regular-34" d="M 3538 1059 
L 2853 1059 
L 2853 0 
L 2347 0 
L 2347 1059 
L 138 1059 
L 138 1497 
L 2313 4594 
L 2853 4594 
L 2853 1528 
L 3538 1528 
L 3538 1059 
z
M 2347 1528 
L 2347 3022 
Q 2347 3194 2350 3333 
Q 2353 3472 2359 3592 
Q 2366 3713 2370 3822 
Q 2375 3931 2378 4038 
L 2353 4038 
Q 2294 3913 2217 3773 
Q 2141 3634 2063 3525 
L 653 1528 
L 2347 1528 
z
" transform="scale(0.015625)"/>
       </defs>
       <use xlink:href="#OpenSans-Regular-31" transform="translate(0 0.292188)"/>
       <use xlink:href="#OpenSans-Regular-30" transform="translate(57.177734 0.292188)"/>
       <use xlink:href="#OpenSans-Regular-2212" transform="translate(115.291992 37.753125) scale(0.7)"/>
       <use xlink:href="#OpenSans-Regular-34" transform="translate(155.316406 37.753125) scale(0.7)"/>
      </g>
     </g>
    </g>
    <g id="xtick_3">
     <g id="line2d_3">
      <g>
       <use xlink:href="#mc50f067d76" x="200.279091" y="245.576" style="stroke: #000000; stroke-width: 0.8"/>
      </g>
     </g>
     <g id="text_3">
      <!-- $\mathdefault{10^{-3}}$ -->
      <g transform="translate(184.359091 264.7335) scale(0.16 -0.16)">
       <defs>
        <path id="OpenSans-Regular-33" d="M 3141 3503 
Q 3141 3197 3022 2972 
Q 2903 2747 2690 2605 
Q 2478 2463 2191 2406 
L 2191 2381 
Q 2734 2313 3007 2031 
Q 3281 1750 3281 1294 
Q 3281 897 3095 590 
Q 2909 284 2526 110 
Q 2144 -63 1547 -63 
Q 1184 -63 876 -5 
Q 569 53 288 188 
L 288 675 
Q 572 534 906 454 
Q 1241 375 1553 375 
Q 2178 375 2456 623 
Q 2734 872 2734 1303 
Q 2734 1600 2579 1783 
Q 2425 1966 2136 2052 
Q 1847 2138 1441 2138 
L 984 2138 
L 984 2581 
L 1444 2581 
Q 1816 2581 2075 2690 
Q 2334 2800 2470 2998 
Q 2606 3197 2606 3469 
Q 2606 3816 2375 4005 
Q 2144 4194 1747 4194 
Q 1503 4194 1303 4144 
Q 1103 4094 928 4006 
Q 753 3919 578 3803 
L 316 4159 
Q 566 4353 925 4493 
Q 1284 4634 1741 4634 
Q 2441 4634 2791 4315 
Q 3141 3997 3141 3503 
z
" transform="scale(0.015625)"/>
       </defs>
       <use xlink:href="#OpenSans-Regular-31" transform="translate(0 0.854688)"/>
       <use xlink:href="#OpenSans-Regular-30" transform="translate(57.177734 0.854688)"/>
       <use xlink:href="#OpenSans-Regular-2212" transform="translate(115.291992 38.315625) scale(0.7)"/>
       <use xlink:href="#OpenSans-Regular-33" transform="translate(155.316406 38.315625) scale(0.7)"/>
      </g>
     </g>
    </g>
    <g id="xtick_4">
     <g id="line2d_4">
      <g>
       <use xlink:href="#mc50f067d76" x="266.260909" y="245.576" style="stroke: #000000; stroke-width: 0.8"/>
      </g>
     </g>
     <g id="text_4">
      <!-- $\mathdefault{10^{-2}}$ -->
      <g transform="translate(250.340909 264.7335) scale(0.16 -0.16)">
       <defs>
        <path id="OpenSans-Regular-32" d="M 3309 0 
L 316 0 
L 316 434 
L 1538 1675 
Q 1878 2019 2111 2287 
Q 2344 2556 2466 2817 
Q 2588 3078 2588 3391 
Q 2588 3778 2358 3983 
Q 2128 4188 1753 4188 
Q 1425 4188 1172 4075 
Q 919 3963 653 3756 
L 375 4106 
Q 556 4259 770 4378 
Q 984 4497 1229 4565 
Q 1475 4634 1753 4634 
Q 2175 4634 2481 4487 
Q 2788 4341 2955 4069 
Q 3122 3797 3122 3422 
Q 3122 3059 2978 2748 
Q 2834 2438 2575 2133 
Q 2316 1828 1969 1488 
L 975 497 
L 975 475 
L 3309 475 
L 3309 0 
z
" transform="scale(0.015625)"/>
       </defs>
       <use xlink:href="#OpenSans-Regular-31" transform="translate(0 0.854688)"/>
       <use xlink:href="#OpenSans-Regular-30" transform="translate(57.177734 0.854688)"/>
       <use xlink:href="#OpenSans-Regular-2212" transform="translate(115.291992 38.315625) scale(0.7)"/>
       <use xlink:href="#OpenSans-Regular-32" transform="translate(155.316406 38.315625) scale(0.7)"/>
      </g>
     </g>
    </g>
    <g id="xtick_5">
     <g id="line2d_5">
      <g>
       <use xlink:href="#mc50f067d76" x="332.242727" y="245.576" style="stroke: #000000; stroke-width: 0.8"/>
      </g>
     </g>
     <g id="text_5">
      <!-- $\mathdefault{10^{-1}}$ -->
      <g transform="translate(316.322727 264.7335) scale(0.16 -0.16)">
       <use xlink:href="#OpenSans-Regular-31" transform="translate(0 0.565625)"/>
       <use xlink:href="#OpenSans-Regular-30" transform="translate(57.177734 0.565625)"/>
       <use xlink:href="#OpenSans-Regular-2212" transform="translate(115.291992 38.026563) scale(0.7)"/>
       <use xlink:href="#OpenSans-Regular-31" transform="translate(155.316406 38.026563) scale(0.7)"/>
      </g>
     </g>
    </g>
    <g id="xtick_6">
     <g id="line2d_6">
      <g>
       <use xlink:href="#mc50f067d76" x="398.224545" y="245.576" style="stroke: #000000; stroke-width: 0.8"/>
      </g>
     </g>
     <g id="text_6">
      <!-- $\mathdefault{10^{0}}$ -->
      <g transform="translate(385.584545 264.7335) scale(0.16 -0.16)">
       <use xlink:href="#OpenSans-Regular-31" transform="translate(0 0.778125)"/>
       <use xlink:href="#OpenSans-Regular-30" transform="translate(57.177734 0.778125)"/>
       <use xlink:href="#OpenSans-Regular-30" transform="translate(115.291992 38.239063) scale(0.7)"/>
      </g>
     </g>
    </g>
    <g id="xtick_7">
     <g id="line2d_7">
      <defs>
       <path id="m8f69e9116b" d="M 0 0 
L 0 2 
" style="stroke: #000000; stroke-width: 0.6"/>
      </defs>
      <g>
       <use xlink:href="#m8f69e9116b" x="53.677471" y="245.576" style="stroke: #000000; stroke-width: 0.6"/>
      </g>
     </g>
    </g>
    <g id="xtick_8">
     <g id="line2d_8">
      <g>
       <use xlink:href="#m8f69e9116b" x="58.094742" y="245.576" style="stroke: #000000; stroke-width: 0.6"/>
      </g>
     </g>
    </g>
    <g id="xtick_9">
     <g id="line2d_9">
      <g>
       <use xlink:href="#m8f69e9116b" x="61.921156" y="245.576" style="stroke: #000000; stroke-width: 0.6"/>
      </g>
     </g>
    </g>
    <g id="xtick_10">
     <g id="line2d_10">
      <g>
       <use xlink:href="#m8f69e9116b" x="65.296292" y="245.576" style="stroke: #000000; stroke-width: 0.6"/>
      </g>
     </g>
    </g>
    <g id="xtick_11">
     <g id="line2d_11">
      <g>
       <use xlink:href="#m8f69e9116b" x="88.177961" y="245.576" style="stroke: #000000; stroke-width: 0.6"/>
      </g>
     </g>
    </g>
    <g id="xtick_12">
     <g id="line2d_12">
      <g>
       <use xlink:href="#m8f69e9116b" x="99.796782" y="245.576" style="stroke: #000000; stroke-width: 0.6"/>
      </g>
     </g>
    </g>
    <g id="xtick_13">
     <g id="line2d_13">
      <g>
       <use xlink:href="#m8f69e9116b" x="108.040467" y="245.576" style="stroke: #000000; stroke-width: 0.6"/>
      </g>
     </g>
    </g>
    <g id="xtick_14">
     <g id="line2d_14">
      <g>
       <use xlink:href="#m8f69e9116b" x="114.434766" y="245.576" style="stroke: #000000; stroke-width: 0.6"/>
      </g>
     </g>
    </g>
    <g id="xtick_15">
     <g id="line2d_15">
      <g>
       <use xlink:href="#m8f69e9116b" x="119.659289" y="245.576" style="stroke: #000000; stroke-width: 0.6"/>
      </g>
     </g>
    </g>
    <g id="xtick_16">
     <g id="line2d_16">
      <g>
       <use xlink:href="#m8f69e9116b" x="124.07656" y="245.576" style="stroke: #000000; stroke-width: 0.6"/>
      </g>
     </g>
    </g>
    <g id="xtick_17">
     <g id="line2d_17">
      <g>
       <use xlink:href="#m8f69e9116b" x="127.902974" y="245.576" style="stroke: #000000; stroke-width: 0.6"/>
      </g>
     </g>
    </g>
    <g id="xtick_18">
     <g id="line2d_18">
      <g>
       <use xlink:href="#m8f69e9116b" x="131.27811" y="245.576" style="stroke: #000000; stroke-width: 0.6"/>
      </g>
     </g>
    </g>
    <g id="xtick_19">
     <g id="line2d_19">
      <g>
       <use xlink:href="#m8f69e9116b" x="154.159779" y="245.576" style="stroke: #000000; stroke-width: 0.6"/>
      </g>
     </g>
    </g>
    <g id="xtick_20">
     <g id="line2d_20">
      <g>
       <use xlink:href="#m8f69e9116b" x="165.778601" y="245.576" style="stroke: #000000; stroke-width: 0.6"/>
      </g>
     </g>
    </g>
    <g id="xtick_21">
     <g id="line2d_21">
      <g>
       <use xlink:href="#m8f69e9116b" x="174.022286" y="245.576" style="stroke: #000000; stroke-width: 0.6"/>
      </g>
     </g>
    </g>
    <g id="xtick_22">
     <g id="line2d_22">
      <g>
       <use xlink:href="#m8f69e9116b" x="180.416584" y="245.576" style="stroke: #000000; stroke-width: 0.6"/>
      </g>
     </g>
    </g>
    <g id="xtick_23">
     <g id="line2d_23">
      <g>
       <use xlink:href="#m8f69e9116b" x="185.641107" y="245.576" style="stroke: #000000; stroke-width: 0.6"/>
      </g>
     </g>
    </g>
    <g id="xtick_24">
     <g id="line2d_24">
      <g>
       <use xlink:href="#m8f69e9116b" x="190.058378" y="245.576" style="stroke: #000000; stroke-width: 0.6"/>
      </g>
     </g>
    </g>
    <g id="xtick_25">
     <g id="line2d_25">
      <g>
       <use xlink:href="#m8f69e9116b" x="193.884792" y="245.576" style="stroke: #000000; stroke-width: 0.6"/>
      </g>
     </g>
    </g>
    <g id="xtick_26">
     <g id="line2d_26">
      <g>
       <use xlink:href="#m8f69e9116b" x="197.259928" y="245.576" style="stroke: #000000; stroke-width: 0.6"/>
      </g>
     </g>
    </g>
    <g id="xtick_27">
     <g id="line2d_27">
      <g>
       <use xlink:href="#m8f69e9116b" x="220.141597" y="245.576" style="stroke: #000000; stroke-width: 0.6"/>
      </g>
     </g>
    </g>
    <g id="xtick_28">
     <g id="line2d_28">
      <g>
       <use xlink:href="#m8f69e9116b" x="231.760419" y="245.576" style="stroke: #000000; stroke-width: 0.6"/>
      </g>
     </g>
    </g>
    <g id="xtick_29">
     <g id="line2d_29">
      <g>
       <use xlink:href="#m8f69e9116b" x="240.004104" y="245.576" style="stroke: #000000; stroke-width: 0.6"/>
      </g>
     </g>
    </g>
    <g id="xtick_30">
     <g id="line2d_30">
      <g>
       <use xlink:href="#m8f69e9116b" x="246.398403" y="245.576" style="stroke: #000000; stroke-width: 0.6"/>
      </g>
     </g>
    </g>
    <g id="xtick_31">
     <g id="line2d_31">
      <g>
       <use xlink:href="#m8f69e9116b" x="251.622925" y="245.576" style="stroke: #000000; stroke-width: 0.6"/>
      </g>
     </g>
    </g>
    <g id="xtick_32">
     <g id="line2d_32">
      <g>
       <use xlink:href="#m8f69e9116b" x="256.040196" y="245.576" style="stroke: #000000; stroke-width: 0.6"/>
      </g>
     </g>
    </g>
    <g id="xtick_33">
     <g id="line2d_33">
      <g>
       <use xlink:href="#m8f69e9116b" x="259.86661" y="245.576" style="stroke: #000000; stroke-width: 0.6"/>
      </g>
     </g>
    </g>
    <g id="xtick_34">
     <g id="line2d_34">
      <g>
       <use xlink:href="#m8f69e9116b" x="263.241747" y="245.576" style="stroke: #000000; stroke-width: 0.6"/>
      </g>
     </g>
    </g>
    <g id="xtick_35">
     <g id="line2d_35">
      <g>
       <use xlink:href="#m8f69e9116b" x="286.123416" y="245.576" style="stroke: #000000; stroke-width: 0.6"/>
      </g>
     </g>
    </g>
    <g id="xtick_36">
     <g id="line2d_36">
      <g>
       <use xlink:href="#m8f69e9116b" x="297.742237" y="245.576" style="stroke: #000000; stroke-width: 0.6"/>
      </g>
     </g>
    </g>
    <g id="xtick_37">
     <g id="line2d_37">
      <g>
       <use xlink:href="#m8f69e9116b" x="305.985922" y="245.576" style="stroke: #000000; stroke-width: 0.6"/>
      </g>
     </g>
    </g>
    <g id="xtick_38">
     <g id="line2d_38">
      <g>
       <use xlink:href="#m8f69e9116b" x="312.380221" y="245.576" style="stroke: #000000; stroke-width: 0.6"/>
      </g>
     </g>
    </g>
    <g id="xtick_39">
     <g id="line2d_39">
      <g>
       <use xlink:href="#m8f69e9116b" x="317.604743" y="245.576" style="stroke: #000000; stroke-width: 0.6"/>
      </g>
     </g>
    </g>
    <g id="xtick_40">
     <g id="line2d_40">
      <g>
       <use xlink:href="#m8f69e9116b" x="322.022014" y="245.576" style="stroke: #000000; stroke-width: 0.6"/>
      </g>
     </g>
    </g>
    <g id="xtick_41">
     <g id="line2d_41">
      <g>
       <use xlink:href="#m8f69e9116b" x="325.848428" y="245.576" style="stroke: #000000; stroke-width: 0.6"/>
      </g>
     </g>
    </g>
    <g id="xtick_42">
     <g id="line2d_42">
      <g>
       <use xlink:href="#m8f69e9116b" x="329.223565" y="245.576" style="stroke: #000000; stroke-width: 0.6"/>
      </g>
     </g>
    </g>
    <g id="xtick_43">
     <g id="line2d_43">
      <g>
       <use xlink:href="#m8f69e9116b" x="352.105234" y="245.576" style="stroke: #000000; stroke-width: 0.6"/>
      </g>
     </g>
    </g>
    <g id="xtick_44">
     <g id="line2d_44">
      <g>
       <use xlink:href="#m8f69e9116b" x="363.724055" y="245.576" style="stroke: #000000; stroke-width: 0.6"/>
      </g>
     </g>
    </g>
    <g id="xtick_45">
     <g id="line2d_45">
      <g>
       <use xlink:href="#m8f69e9116b" x="371.96774" y="245.576" style="stroke: #000000; stroke-width: 0.6"/>
      </g>
     </g>
    </g>
    <g id="xtick_46">
     <g id="line2d_46">
      <g>
       <use xlink:href="#m8f69e9116b" x="378.362039" y="245.576" style="stroke: #000000; stroke-width: 0.6"/>
      </g>
     </g>
    </g>
    <g id="xtick_47">
     <g id="line2d_47">
      <g>
       <use xlink:href="#m8f69e9116b" x="383.586562" y="245.576" style="stroke: #000000; stroke-width: 0.6"/>
      </g>
     </g>
    </g>
    <g id="xtick_48">
     <g id="line2d_48">
      <g>
       <use xlink:href="#m8f69e9116b" x="388.003832" y="245.576" style="stroke: #000000; stroke-width: 0.6"/>
      </g>
     </g>
    </g>
    <g id="xtick_49">
     <g id="line2d_49">
      <g>
       <use xlink:href="#m8f69e9116b" x="391.830247" y="245.576" style="stroke: #000000; stroke-width: 0.6"/>
      </g>
     </g>
    </g>
    <g id="xtick_50">
     <g id="line2d_50">
      <g>
       <use xlink:href="#m8f69e9116b" x="395.205383" y="245.576" style="stroke: #000000; stroke-width: 0.6"/>
      </g>
     </g>
    </g>
   </g>
   <g id="matplotlib.axis_2">
    <g id="ytick_1">
     <g id="line2d_51">
      <defs>
       <path id="me850a1dc6b" d="M 0 0 
L -3.5 0 
" style="stroke: #000000; stroke-width: 0.8"/>
      </defs>
      <g>
       <use xlink:href="#me850a1dc6b" x="51.82" y="245.576" style="stroke: #000000; stroke-width: 0.8"/>
      </g>
     </g>
     <g id="text_7">
      <!-- 0 -->
      <g transform="translate(35.6725 251.65475) scale(0.16 -0.16)">
       <use xlink:href="#OpenSans-Regular-30"/>
      </g>
     </g>
    </g>
    <g id="ytick_2">
     <g id="line2d_52">
      <g>
       <use xlink:href="#me850a1dc6b" x="51.82" y="189.942" style="stroke: #000000; stroke-width: 0.8"/>
      </g>
     </g>
     <g id="text_8">
      <!-- 50 -->
      <g transform="translate(26.525 196.02075) scale(0.16 -0.16)">
       <use xlink:href="#OpenSans-Regular-35"/>
       <use xlink:href="#OpenSans-Regular-30" x="57.177734"/>
      </g>
     </g>
    </g>
    <g id="ytick_3">
     <g id="line2d_53">
      <g>
       <use xlink:href="#me850a1dc6b" x="51.82" y="134.308" style="stroke: #000000; stroke-width: 0.8"/>
      </g>
     </g>
     <g id="text_9">
      <!-- 100 -->
      <g transform="translate(17.3775 140.38675) scale(0.16 -0.16)">
       <use xlink:href="#OpenSans-Regular-31"/>
       <use xlink:href="#OpenSans-Regular-30" x="57.177734"/>
       <use xlink:href="#OpenSans-Regular-30" x="114.355469"/>
      </g>
     </g>
    </g>
    <g id="ytick_4">
     <g id="line2d_54">
      <g>
       <use xlink:href="#me850a1dc6b" x="51.82" y="78.674" style="stroke: #000000; stroke-width: 0.8"/>
      </g>
     </g>
     <g id="text_10">
      <!-- 150 -->
      <g transform="translate(17.3775 84.75275) scale(0.16 -0.16)">
       <use xlink:href="#OpenSans-Regular-31"/>
       <use xlink:href="#OpenSans-Regular-35" x="57.177734"/>
       <use xlink:href="#OpenSans-Regular-30" x="114.355469"/>
      </g>
     </g>
    </g>
    <g id="ytick_5">
     <g id="line2d_55">
      <g>
       <use xlink:href="#me850a1dc6b" x="51.82" y="23.04" style="stroke: #000000; stroke-width: 0.8"/>
      </g>
     </g>
     <g id="text_11">
      <!-- 200 -->
      <g transform="translate(17.3775 29.11875) scale(0.16 -0.16)">
       <use xlink:href="#OpenSans-Regular-32"/>
       <use xlink:href="#OpenSans-Regular-30" x="57.177734"/>
       <use xlink:href="#OpenSans-Regular-30" x="114.355469"/>
      </g>
     </g>
    </g>
   </g>
   <g id="patch_28">
    <path d="M 51.82 245.576 
L 51.82 23.04 
" style="fill: none; stroke: #000000; stroke-width: 0.8; stroke-linejoin: miter; stroke-linecap: square"/>
   </g>
   <g id="patch_29">
    <path d="M 414.72 245.576 
L 414.72 23.04 
" style="fill: none; stroke: #000000; stroke-width: 0.8; stroke-linejoin: miter; stroke-linecap: square"/>
   </g>
   <g id="patch_30">
    <path d="M 51.82 245.576 
L 414.72 245.576 
" style="fill: none; stroke: #000000; stroke-width: 0.8; stroke-linejoin: miter; stroke-linecap: square"/>
   </g>
   <g id="patch_31">
    <path d="M 51.82 23.04 
L 414.72 23.04 
" style="fill: none; stroke: #000000; stroke-width: 0.8; stroke-linejoin: miter; stroke-linecap: square"/>
   </g>
  </g>
 </g>
 <defs>
  <clipPath id="p6ce1682c38">
   <rect x="51.82" y="23.04" width="362.9" height="222.536"/>
  </clipPath>
 </defs>
</svg>
