<?xml version="1.0" encoding="utf-8" standalone="no"?>
<!DOCTYPE svg PUBLIC "-//W3C//DTD SVG 1.1//EN"
  "http://www.w3.org/Graphics/SVG/1.1/DTD/svg11.dtd">
<svg xmlns:xlink="http://www.w3.org/1999/xlink" width="460.8pt" height="345.6pt" viewBox="0 0 460.8 345.6" xmlns="http://www.w3.org/2000/svg" version="1.1">
 <metadata>
  <rdf:RDF xmlns:dc="http://purl.org/dc/elements/1.1/" xmlns:cc="http://creativecommons.org/ns#" xmlns:rdf="http://www.w3.org/1999/02/22-rdf-syntax-ns#">
   <cc:Work>
    <dc:type rdf:resource="http://purl.org/dc/dcmitype/StillImage"/>
    <dc:date>2023-05-02T21:58:20.871248</dc:date>
    <dc:format>image/svg+xml</dc:format>
    <dc:creator>
     <cc:Agent>
      <dc:title>Matplotlib v3.7.1, https://matplotlib.org/</dc:title>
     </cc:Agent>
    </dc:creator>
   </cc:Work>
  </rdf:RDF>
 </metadata>
 <defs>
  <style type="text/css">*{stroke-linejoin: round; stroke-linecap: butt}</style>
 </defs>
 <g id="figure_1">
  <g id="patch_1">
   <path d="M 0 345.6 
L 460.8 345.6 
L 460.8 0 
L 0 0 
z
" style="fill: #ffffff"/>
  </g>
  <g id="axes_1">
   <g id="patch_2">
    <path d="M 57.6 307.584 
L 414.72 307.584 
L 414.72 41.472 
L 57.6 41.472 
z
" style="fill: #ffffff"/>
   </g>
   <g id="PolyCollection_1">
    <defs>
     <path id="m97c5cc827b" d="M 73.832727 -171.072 
L 73.832727 -190.371322 
L 73.832727 -190.371322 
L 90.065455 -190.371322 
L 90.065455 -201.425887 
L 106.298182 -201.425887 
L 106.298182 -225.225203 
L 122.530909 -225.225203 
L 122.530909 -265.019285 
L 138.763636 -265.019285 
L 138.763636 -225.453532 
L 154.996364 -225.453532 
L 154.996364 -222.540771 
L 171.229091 -222.540771 
L 171.229091 -192.104822 
L 187.461818 -192.104822 
L 187.461818 -189.406782 
L 203.694545 -189.406782 
L 203.694545 -151.597091 
L 219.927273 -151.597091 
L 219.927273 -110.951547 
L 236.16 -110.951547 
L 236.16 -95.036248 
L 252.392727 -95.036248 
L 252.392727 -113.363496 
L 268.625455 -113.363496 
L 268.625455 -149.651032 
L 284.858182 -149.651032 
L 284.858182 -245.0493 
L 301.090909 -245.0493 
L 301.090909 -271.305946 
L 317.323636 -271.305946 
L 317.323636 -262.712068 
L 333.556364 -262.712068 
L 333.556364 -255.654007 
L 349.789091 -255.654007 
L 349.789091 -250.94803 
L 366.021818 -250.94803 
L 366.021818 -225.65231 
L 382.254545 -225.65231 
L 382.254545 -198.274465 
L 398.487273 -198.274465 
L 398.487273 -171.072 
L 398.487273 -171.072 
L 382.254545 -171.072 
L 382.254545 -171.072 
L 366.021818 -171.072 
L 366.021818 -171.072 
L 349.789091 -171.072 
L 349.789091 -171.072 
L 333.556364 -171.072 
L 333.556364 -171.072 
L 317.323636 -171.072 
L 317.323636 -171.072 
L 301.090909 -171.072 
L 301.090909 -171.072 
L 284.858182 -171.072 
L 284.858182 -171.072 
L 268.625455 -171.072 
L 268.625455 -171.072 
L 252.392727 -171.072 
L 252.392727 -171.072 
L 236.16 -171.072 
L 236.16 -171.072 
L 219.927273 -171.072 
L 219.927273 -171.072 
L 203.694545 -171.072 
L 203.694545 -171.072 
L 187.461818 -171.072 
L 187.461818 -171.072 
L 171.229091 -171.072 
L 171.229091 -171.072 
L 154.996364 -171.072 
L 154.996364 -171.072 
L 138.763636 -171.072 
L 138.763636 -171.072 
L 122.530909 -171.072 
L 122.530909 -171.072 
L 106.298182 -171.072 
L 106.298182 -171.072 
L 90.065455 -171.072 
L 90.065455 -171.072 
L 73.832727 -171.072 
L 73.832727 -171.072 
z
" style="stroke: #4477aa; stroke-opacity: 0.2"/>
    </defs>
    <g clip-path="url(#pcbadecff5b)">
     <use xlink:href="#m97c5cc827b" x="0" y="345.6" style="fill: #4477aa; fill-opacity: 0.2; stroke: #4477aa; stroke-opacity: 0.2"/>
    </g>
   </g>
   <g id="PolyCollection_2">
    <defs>
     <path id="m79d36ddf1a" d="M 73.832727 -171.072 
L 73.832727 -156.910744 
L 73.832727 -156.910744 
L 90.065455 -156.910744 
L 90.065455 -172.775732 
L 106.298182 -172.775732 
L 106.298182 -209.235182 
L 122.530909 -209.235182 
L 122.530909 -264.49746 
L 138.763636 -264.49746 
L 138.763636 -238.103931 
L 154.996364 -238.103931 
L 154.996364 -248.736535 
L 171.229091 -248.736535 
L 171.229091 -231.93541 
L 187.461818 -231.93541 
L 187.461818 -238.364882 
L 203.694545 -238.364882 
L 203.694545 -202.375523 
L 219.927273 -202.375523 
L 219.927273 -156.660156 
L 236.16 -156.660156 
L 236.16 -126.094999 
L 252.392727 -126.094999 
L 252.392727 -120.855464 
L 268.625455 -120.855464 
L 268.625455 -134.338979 
L 284.858182 -134.338979 
L 284.858182 -215.216281 
L 301.090909 -215.216281 
L 301.090909 -243.186831 
L 317.323636 -243.186831 
L 317.323636 -242.801865 
L 333.556364 -242.801865 
L 333.556364 -239.488751 
L 349.789091 -239.488751 
L 349.789091 -231.46701 
L 366.021818 -231.46701 
L 366.021818 -197.167792 
L 382.254545 -197.167792 
L 382.254545 -165.145152 
L 398.487273 -165.145152 
L 398.487273 -171.072 
L 398.487273 -171.072 
L 382.254545 -171.072 
L 382.254545 -171.072 
L 366.021818 -171.072 
L 366.021818 -171.072 
L 349.789091 -171.072 
L 349.789091 -171.072 
L 333.556364 -171.072 
L 333.556364 -171.072 
L 317.323636 -171.072 
L 317.323636 -171.072 
L 301.090909 -171.072 
L 301.090909 -171.072 
L 284.858182 -171.072 
L 284.858182 -171.072 
L 268.625455 -171.072 
L 268.625455 -171.072 
L 252.392727 -171.072 
L 252.392727 -171.072 
L 236.16 -171.072 
L 236.16 -171.072 
L 219.927273 -171.072 
L 219.927273 -171.072 
L 203.694545 -171.072 
L 203.694545 -171.072 
L 187.461818 -171.072 
L 187.461818 -171.072 
L 171.229091 -171.072 
L 171.229091 -171.072 
L 154.996364 -171.072 
L 154.996364 -171.072 
L 138.763636 -171.072 
L 138.763636 -171.072 
L 122.530909 -171.072 
L 122.530909 -171.072 
L 106.298182 -171.072 
L 106.298182 -171.072 
L 90.065455 -171.072 
L 90.065455 -171.072 
L 73.832727 -171.072 
L 73.832727 -171.072 
z
" style="stroke: #228833; stroke-opacity: 0.2"/>
    </defs>
    <g clip-path="url(#pcbadecff5b)">
     <use xlink:href="#m79d36ddf1a" x="0" y="345.6" style="fill: #228833; fill-opacity: 0.2; stroke: #228833; stroke-opacity: 0.2"/>
    </g>
   </g>
   <g id="matplotlib.axis_1">
    <g id="xtick_1">
     <g id="line2d_1">
      <defs>
       <path id="m1445c98ef1" d="M 0 0 
L 0 3.5 
" style="stroke: #000000; stroke-width: 0.8"/>
      </defs>
      <g>
       <use xlink:href="#m1445c98ef1" x="73.832727" y="307.584" style="stroke: #000000; stroke-width: 0.8"/>
      </g>
     </g>
     <g id="text_1">
      <!-- 0 -->
      <g transform="translate(69.258977 326.7415) scale(0.16 -0.16)">
       <defs>
        <path id="OpenSans-Regular-30" d="M 3334 2291 
Q 3334 1734 3250 1296 
Q 3166 859 2984 556 
Q 2803 253 2515 95 
Q 2228 -63 1825 -63 
Q 1316 -63 983 215 
Q 650 494 486 1020 
Q 322 1547 322 2291 
Q 322 3022 470 3548 
Q 619 4075 950 4358 
Q 1281 4641 1825 4641 
Q 2341 4641 2675 4361 
Q 3009 4081 3171 3554 
Q 3334 3028 3334 2291 
z
M 844 2291 
Q 844 1653 941 1228 
Q 1038 803 1255 592 
Q 1472 381 1825 381 
Q 2178 381 2395 590 
Q 2613 800 2711 1225 
Q 2809 1650 2809 2291 
Q 2809 2919 2712 3342 
Q 2616 3766 2400 3980 
Q 2184 4194 1825 4194 
Q 1466 4194 1250 3980 
Q 1034 3766 939 3342 
Q 844 2919 844 2291 
z
" transform="scale(0.015625)"/>
       </defs>
       <use xlink:href="#OpenSans-Regular-30"/>
      </g>
     </g>
    </g>
    <g id="xtick_2">
     <g id="line2d_2">
      <g>
       <use xlink:href="#m1445c98ef1" x="236.16" y="307.584" style="stroke: #000000; stroke-width: 0.8"/>
      </g>
     </g>
     <g id="text_2">
      <!-- $\pi/2$ -->
      <g transform="translate(223.84 326.7415) scale(0.16 -0.16)">
       <defs>
        <path id="DejaVuSans-Oblique-3c0" d="M 584 3500 
L 3938 3500 
L 3825 2925 
L 3384 2925 
L 2966 775 
Q 2922 550 2981 450 
Q 3038 353 3209 353 
Q 3256 353 3325 363 
Q 3397 369 3419 372 
L 3338 -44 
Q 3222 -84 3103 -103 
Q 2981 -122 2866 -122 
Q 2491 -122 2388 81 
Q 2284 288 2391 838 
L 2797 2925 
L 1506 2925 
L 938 0 
L 350 0 
L 919 2925 
L 472 2925 
L 584 3500 
z
" transform="scale(0.015625)"/>
        <path id="DejaVuSans-2f" d="M 1625 4666 
L 2156 4666 
L 531 -594 
L 0 -594 
L 1625 4666 
z
" transform="scale(0.015625)"/>
        <path id="DejaVuSans-32" d="M 1228 531 
L 3431 531 
L 3431 0 
L 469 0 
L 469 531 
Q 828 903 1448 1529 
Q 2069 2156 2228 2338 
Q 2531 2678 2651 2914 
Q 2772 3150 2772 3378 
Q 2772 3750 2511 3984 
Q 2250 4219 1831 4219 
Q 1534 4219 1204 4116 
Q 875 4013 500 3803 
L 500 4441 
Q 881 4594 1212 4672 
Q 1544 4750 1819 4750 
Q 2544 4750 2975 4387 
Q 3406 4025 3406 3419 
Q 3406 3131 3298 2873 
Q 3191 2616 2906 2266 
Q 2828 2175 2409 1742 
Q 1991 1309 1228 531 
z
" transform="scale(0.015625)"/>
       </defs>
       <use xlink:href="#DejaVuSans-Oblique-3c0" transform="translate(0 0.78125)"/>
       <use xlink:href="#DejaVuSans-2f" transform="translate(60.205078 0.78125)"/>
       <use xlink:href="#DejaVuSans-32" transform="translate(90.271484 0.78125)"/>
      </g>
     </g>
    </g>
    <g id="xtick_3">
     <g id="line2d_3">
      <g>
       <use xlink:href="#m1445c98ef1" x="398.487273" y="307.584" style="stroke: #000000; stroke-width: 0.8"/>
      </g>
     </g>
     <g id="text_3">
      <!-- $\pi$ -->
      <g transform="translate(393.607273 326.7415) scale(0.16 -0.16)">
       <use xlink:href="#DejaVuSans-Oblique-3c0" transform="translate(0 0.3125)"/>
      </g>
     </g>
    </g>
   </g>
   <g id="matplotlib.axis_2">
    <g id="ytick_1">
     <g id="line2d_4">
      <defs>
       <path id="m636005899e" d="M 0 0 
L -3.5 0 
" style="stroke: #000000; stroke-width: 0.8"/>
      </defs>
      <g>
       <use xlink:href="#m636005899e" x="57.6" y="295.488" style="stroke: #000000; stroke-width: 0.8"/>
      </g>
     </g>
     <g id="text_4">
      <!-- −1 -->
      <g transform="translate(32.305 301.56675) scale(0.16 -0.16)">
       <defs>
        <path id="OpenSans-Regular-2212" d="M 322 2044 
L 322 2469 
L 3331 2469 
L 3331 2044 
L 322 2044 
z
" transform="scale(0.015625)"/>
        <path id="OpenSans-Regular-31" d="M 2247 0 
L 1741 0 
L 1741 3238 
Q 1741 3422 1742 3555 
Q 1744 3688 1748 3798 
Q 1753 3909 1763 4025 
Q 1666 3925 1581 3854 
Q 1497 3784 1372 3681 
L 850 3263 
L 578 3616 
L 1816 4569 
L 2247 4569 
L 2247 0 
z
" transform="scale(0.015625)"/>
       </defs>
       <use xlink:href="#OpenSans-Regular-2212"/>
       <use xlink:href="#OpenSans-Regular-31" x="57.177734"/>
      </g>
     </g>
    </g>
    <g id="ytick_2">
     <g id="line2d_5">
      <g>
       <use xlink:href="#m636005899e" x="57.6" y="174.528" style="stroke: #000000; stroke-width: 0.8"/>
      </g>
     </g>
     <g id="text_5">
      <!-- 0 -->
      <g transform="translate(41.4525 180.60675) scale(0.16 -0.16)">
       <use xlink:href="#OpenSans-Regular-30"/>
      </g>
     </g>
    </g>
    <g id="ytick_3">
     <g id="line2d_6">
      <g>
       <use xlink:href="#m636005899e" x="57.6" y="53.568" style="stroke: #000000; stroke-width: 0.8"/>
      </g>
     </g>
     <g id="text_6">
      <!-- 1 -->
      <g transform="translate(41.4525 59.64675) scale(0.16 -0.16)">
       <use xlink:href="#OpenSans-Regular-31"/>
      </g>
     </g>
    </g>
   </g>
   <g id="line2d_7">
    <path d="M 73.832727 155.228678 
L 73.832727 155.228678 
L 90.065455 155.228678 
L 90.065455 144.174113 
L 106.298182 144.174113 
L 106.298182 120.374797 
L 122.530909 120.374797 
L 122.530909 80.580715 
L 138.763636 80.580715 
L 138.763636 120.146468 
L 154.996364 120.146468 
L 154.996364 123.059229 
L 171.229091 123.059229 
L 171.229091 153.495178 
L 187.461818 153.495178 
L 187.461818 156.193218 
L 203.694545 156.193218 
L 203.694545 194.002909 
L 219.927273 194.002909 
L 219.927273 234.648453 
L 236.16 234.648453 
L 236.16 250.563752 
L 252.392727 250.563752 
L 252.392727 232.236504 
L 268.625455 232.236504 
L 268.625455 195.948968 
L 284.858182 195.948968 
L 284.858182 100.5507 
L 301.090909 100.5507 
L 301.090909 74.294054 
L 317.323636 74.294054 
L 317.323636 82.887932 
L 333.556364 82.887932 
L 333.556364 89.945993 
L 349.789091 89.945993 
L 349.789091 94.65197 
L 366.021818 94.65197 
L 366.021818 119.94769 
L 382.254545 119.94769 
L 382.254545 147.325535 
L 398.487273 147.325535 
" clip-path="url(#pcbadecff5b)" style="fill: none; stroke: #4477aa; stroke-width: 1.5; stroke-linecap: square"/>
   </g>
   <g id="line2d_8">
    <path d="M 73.832727 188.689256 
L 73.832727 188.689256 
L 90.065455 188.689256 
L 90.065455 172.824268 
L 106.298182 172.824268 
L 106.298182 136.364818 
L 122.530909 136.364818 
L 122.530909 81.10254 
L 138.763636 81.10254 
L 138.763636 107.496069 
L 154.996364 107.496069 
L 154.996364 96.863465 
L 171.229091 96.863465 
L 171.229091 113.66459 
L 187.461818 113.66459 
L 187.461818 107.235118 
L 203.694545 107.235118 
L 203.694545 143.224477 
L 219.927273 143.224477 
L 219.927273 188.939844 
L 236.16 188.939844 
L 236.16 219.505001 
L 252.392727 219.505001 
L 252.392727 224.744536 
L 268.625455 224.744536 
L 268.625455 211.261021 
L 284.858182 211.261021 
L 284.858182 130.383719 
L 301.090909 130.383719 
L 301.090909 102.413169 
L 317.323636 102.413169 
L 317.323636 102.798135 
L 333.556364 102.798135 
L 333.556364 106.111249 
L 349.789091 106.111249 
L 349.789091 114.13299 
L 366.021818 114.13299 
L 366.021818 148.432208 
L 382.254545 148.432208 
L 382.254545 180.454848 
L 398.487273 180.454848 
" clip-path="url(#pcbadecff5b)" style="fill: none; stroke: #228833; stroke-width: 1.5; stroke-linecap: square"/>
   </g>
   <g id="patch_3">
    <path d="M 57.6 307.584 
L 57.6 41.472 
" style="fill: none; stroke: #000000; stroke-width: 0.8; stroke-linejoin: miter; stroke-linecap: square"/>
   </g>
   <g id="patch_4">
    <path d="M 414.72 307.584 
L 414.72 41.472 
" style="fill: none; stroke: #000000; stroke-width: 0.8; stroke-linejoin: miter; stroke-linecap: square"/>
   </g>
   <g id="patch_5">
    <path d="M 57.6 307.584 
L 414.72 307.584 
" style="fill: none; stroke: #000000; stroke-width: 0.8; stroke-linejoin: miter; stroke-linecap: square"/>
   </g>
   <g id="patch_6">
    <path d="M 57.6 41.472 
L 414.72 41.472 
" style="fill: none; stroke: #000000; stroke-width: 0.8; stroke-linejoin: miter; stroke-linecap: square"/>
   </g>
   <g id="legend_1">
    <g id="patch_7">
     <path d="M 68.8 299.584 
L 304 299.584 
Q 307.2 299.584 307.2 296.384 
L 307.2 243.904 
Q 307.2 240.704 304 240.704 
L 68.8 240.704 
Q 65.6 240.704 65.6 243.904 
L 65.6 296.384 
Q 65.6 299.584 68.8 299.584 
z
" style="fill: #ffffff; opacity: 0.8; stroke: #cccccc; stroke-linejoin: miter"/>
    </g>
    <g id="line2d_9">
     <path d="M 72 253.664 
L 72 253.664 
L 88 253.664 
L 88 253.664 
L 104 253.664 
" style="fill: none; stroke: #4477aa; stroke-width: 1.5; stroke-linecap: square"/>
    </g>
    <g id="text_7">
     <!-- $\sigma_{x} \sigma_{x}$ pulse, $CNOT$ gate -->
     <g transform="translate(116.8 259.264) scale(0.16 -0.16)">
      <defs>
       <path id="DejaVuSans-Oblique-3c3" d="M 2219 3044 
Q 1744 3044 1422 2700 
Q 1081 2341 969 1747 
Q 844 1119 1044 756 
Q 1241 397 1706 397 
Q 2166 397 2503 759 
Q 2844 1122 2966 1747 
Q 3075 2319 2881 2700 
Q 2700 3044 2219 3044 
z
M 2309 3503 
L 4219 3500 
L 4106 2925 
L 3463 2925 
Q 3706 2438 3575 1747 
Q 3406 888 2884 400 
Q 2359 -91 1609 -91 
Q 856 -91 525 400 
Q 194 888 363 1747 
Q 528 2609 1050 3097 
Q 1484 3503 2309 3503 
z
" transform="scale(0.015625)"/>
       <path id="DejaVuSans-Oblique-78" d="M 3841 3500 
L 2234 1784 
L 3219 0 
L 2559 0 
L 1819 1388 
L 531 0 
L -166 0 
L 1556 1844 
L 641 3500 
L 1300 3500 
L 1972 2234 
L 3144 3500 
L 3841 3500 
z
" transform="scale(0.015625)"/>
       <path id="OpenSans-Regular-20" transform="scale(0.015625)"/>
       <path id="OpenSans-Regular-70" d="M 2156 3488 
Q 2797 3488 3178 3047 
Q 3559 2606 3559 1722 
Q 3559 1138 3384 741 
Q 3209 344 2892 140 
Q 2575 -63 2144 -63 
Q 1872 -63 1665 9 
Q 1459 81 1312 203 
Q 1166 325 1069 469 
L 1031 469 
Q 1041 347 1055 175 
Q 1069 3 1069 -125 
L 1069 -1531 
L 547 -1531 
L 547 3425 
L 975 3425 
L 1044 2919 
L 1069 2919 
Q 1169 3075 1312 3204 
Q 1456 3334 1664 3411 
Q 1872 3488 2156 3488 
z
M 2066 3050 
Q 1709 3050 1492 2912 
Q 1275 2775 1175 2501 
Q 1075 2228 1069 1816 
L 1069 1716 
Q 1069 1281 1164 981 
Q 1259 681 1479 525 
Q 1700 369 2072 369 
Q 2391 369 2603 541 
Q 2816 713 2920 1020 
Q 3025 1328 3025 1728 
Q 3025 2334 2789 2692 
Q 2553 3050 2066 3050 
z
" transform="scale(0.015625)"/>
       <path id="OpenSans-Regular-75" d="M 3375 3425 
L 3375 0 
L 2950 0 
L 2875 481 
L 2847 481 
Q 2741 303 2572 181 
Q 2403 59 2192 -2 
Q 1981 -63 1744 -63 
Q 1338 -63 1063 68 
Q 788 200 648 475 
Q 509 750 509 1181 
L 509 3425 
L 1034 3425 
L 1034 1219 
Q 1034 791 1228 580 
Q 1422 369 1819 369 
Q 2200 369 2426 512 
Q 2653 656 2753 936 
Q 2853 1216 2853 1622 
L 2853 3425 
L 3375 3425 
z
" transform="scale(0.015625)"/>
       <path id="OpenSans-Regular-6c" d="M 1069 0 
L 547 0 
L 547 4863 
L 1069 4863 
L 1069 0 
z
" transform="scale(0.015625)"/>
       <path id="OpenSans-Regular-73" d="M 2763 938 
Q 2763 609 2598 386 
Q 2434 163 2129 50 
Q 1825 -63 1403 -63 
Q 1044 -63 781 -6 
Q 519 50 322 153 
L 322 631 
Q 531 528 822 443 
Q 1113 359 1416 359 
Q 1859 359 2059 503 
Q 2259 647 2259 894 
Q 2259 1034 2179 1142 
Q 2100 1250 1912 1351 
Q 1725 1453 1394 1575 
Q 1066 1700 827 1823 
Q 588 1947 458 2125 
Q 328 2303 328 2588 
Q 328 3022 679 3255 
Q 1031 3488 1603 3488 
Q 1913 3488 2183 3427 
Q 2453 3366 2688 3263 
L 2513 2847 
Q 2300 2938 2059 3000 
Q 1819 3063 1569 3063 
Q 1209 3063 1017 2944 
Q 825 2825 825 2619 
Q 825 2459 914 2356 
Q 1003 2253 1200 2162 
Q 1397 2072 1719 1950 
Q 2041 1831 2275 1704 
Q 2509 1578 2636 1398 
Q 2763 1219 2763 938 
z
" transform="scale(0.015625)"/>
       <path id="OpenSans-Regular-65" d="M 1866 3488 
Q 2303 3488 2615 3294 
Q 2928 3100 3093 2751 
Q 3259 2403 3259 1938 
L 3259 1616 
L 894 1616 
Q 903 1013 1193 697 
Q 1484 381 2013 381 
Q 2338 381 2588 440 
Q 2838 500 3106 616 
L 3106 159 
Q 2847 44 2592 -9 
Q 2338 -63 1991 -63 
Q 1497 -63 1130 139 
Q 763 341 559 731 
Q 356 1122 356 1688 
Q 356 2241 542 2645 
Q 728 3050 1067 3269 
Q 1406 3488 1866 3488 
z
M 1859 3063 
Q 1444 3063 1197 2791 
Q 950 2519 903 2031 
L 2716 2031 
Q 2713 2338 2620 2570 
Q 2528 2803 2340 2933 
Q 2153 3063 1859 3063 
z
" transform="scale(0.015625)"/>
       <path id="OpenSans-Regular-2c" d="M 1141 744 
L 1181 672 
Q 1125 444 1039 184 
Q 953 -75 851 -336 
Q 750 -597 647 -825 
L 259 -825 
Q 325 -575 387 -298 
Q 450 -22 501 248 
Q 553 519 584 744 
L 1141 744 
z
" transform="scale(0.015625)"/>
       <path id="DejaVuSans-Oblique-43" d="M 4447 4306 
L 4319 3641 
Q 4019 3944 3683 4091 
Q 3347 4238 2956 4238 
Q 2422 4238 2017 3981 
Q 1613 3725 1319 3200 
Q 1131 2863 1032 2486 
Q 934 2109 934 1728 
Q 934 1091 1264 756 
Q 1594 422 2222 422 
Q 2656 422 3056 561 
Q 3456 700 3834 978 
L 3688 231 
Q 3316 72 2936 -9 
Q 2556 -91 2175 -91 
Q 1278 -91 773 396 
Q 269 884 269 1753 
Q 269 2309 461 2846 
Q 653 3384 1013 3828 
Q 1394 4300 1883 4525 
Q 2372 4750 3022 4750 
Q 3422 4750 3780 4639 
Q 4138 4528 4447 4306 
z
" transform="scale(0.015625)"/>
       <path id="DejaVuSans-Oblique-4e" d="M 1081 4666 
L 1931 4666 
L 3219 666 
L 4000 4666 
L 4616 4666 
L 3706 0 
L 2853 0 
L 1569 4025 
L 788 0 
L 172 0 
L 1081 4666 
z
" transform="scale(0.015625)"/>
       <path id="DejaVuSans-Oblique-4f" d="M 2919 4238 
Q 2400 4238 2003 3986 
Q 1606 3734 1313 3219 
Q 1125 2891 1026 2522 
Q 928 2153 928 1778 
Q 928 1128 1239 775 
Q 1550 422 2119 422 
Q 2631 422 3032 676 
Q 3434 931 3719 1434 
Q 3909 1772 4009 2142 
Q 4109 2513 4109 2881 
Q 4109 3528 3796 3883 
Q 3484 4238 2919 4238 
z
M 2100 -91 
Q 1241 -91 748 418 
Q 256 928 256 1813 
Q 256 2319 448 2847 
Q 641 3375 978 3788 
Q 1375 4272 1862 4511 
Q 2350 4750 2938 4750 
Q 3794 4750 4287 4245 
Q 4781 3741 4781 2869 
Q 4781 2331 4593 1812 
Q 4406 1294 4056 872 
Q 3656 384 3173 146 
Q 2691 -91 2100 -91 
z
" transform="scale(0.015625)"/>
       <path id="DejaVuSans-Oblique-54" d="M 378 4666 
L 4325 4666 
L 4225 4134 
L 2559 4134 
L 1759 0 
L 1125 0 
L 1925 4134 
L 275 4134 
L 378 4666 
z
" transform="scale(0.015625)"/>
       <path id="OpenSans-Regular-67" d="M 1503 -1538 
Q 828 -1538 462 -1286 
Q 97 -1034 97 -581 
Q 97 -259 301 -31 
Q 506 197 869 272 
Q 734 334 639 459 
Q 544 584 544 747 
Q 544 934 648 1076 
Q 753 1219 969 1350 
Q 700 1459 533 1720 
Q 366 1981 366 2328 
Q 366 2697 519 2958 
Q 672 3219 962 3356 
Q 1253 3494 1666 3494 
Q 1756 3494 1848 3486 
Q 1941 3478 2025 3464 
Q 2109 3450 2172 3431 
L 3347 3431 
L 3347 3097 
L 2716 3019 
Q 2809 2897 2871 2725 
Q 2934 2553 2934 2344 
Q 2934 1831 2587 1529 
Q 2241 1228 1634 1228 
Q 1491 1228 1341 1253 
Q 1188 1169 1108 1066 
Q 1028 963 1028 828 
Q 1028 728 1089 668 
Q 1150 609 1265 582 
Q 1381 556 1544 556 
L 2147 556 
Q 2706 556 3004 322 
Q 3303 88 3303 -363 
Q 3303 -931 2840 -1234 
Q 2378 -1538 1503 -1538 
z
M 1519 -1131 
Q 1944 -1131 2223 -1045 
Q 2503 -959 2642 -798 
Q 2781 -638 2781 -416 
Q 2781 -209 2687 -104 
Q 2594 0 2412 36 
Q 2231 72 1969 72 
L 1375 72 
Q 1144 72 972 0 
Q 800 -72 708 -212 
Q 616 -353 616 -563 
Q 616 -841 850 -986 
Q 1084 -1131 1519 -1131 
z
M 1653 1606 
Q 2025 1606 2212 1793 
Q 2400 1981 2400 2341 
Q 2400 2725 2209 2917 
Q 2019 3109 1647 3109 
Q 1291 3109 1098 2911 
Q 906 2713 906 2331 
Q 906 1981 1100 1793 
Q 1294 1606 1653 1606 
z
" transform="scale(0.015625)"/>
       <path id="OpenSans-Regular-61" d="M 1828 3481 
Q 2441 3481 2737 3206 
Q 3034 2931 3034 2328 
L 3034 0 
L 2656 0 
L 2556 506 
L 2531 506 
Q 2388 319 2231 192 
Q 2075 66 1870 1 
Q 1666 -63 1369 -63 
Q 1056 -63 814 46 
Q 572 156 433 378 
Q 294 600 294 941 
Q 294 1453 700 1728 
Q 1106 2003 1938 2028 
L 2528 2053 
L 2528 2263 
Q 2528 2706 2337 2884 
Q 2147 3063 1800 3063 
Q 1531 3063 1287 2984 
Q 1044 2906 825 2800 
L 666 3194 
Q 897 3313 1197 3397 
Q 1497 3481 1828 3481 
z
M 2522 1688 
L 2000 1666 
Q 1359 1641 1096 1456 
Q 834 1272 834 934 
Q 834 641 1012 500 
Q 1191 359 1484 359 
Q 1941 359 2231 612 
Q 2522 866 2522 1372 
L 2522 1688 
z
" transform="scale(0.015625)"/>
       <path id="OpenSans-Regular-74" d="M 1653 363 
Q 1781 363 1915 384 
Q 2050 406 2134 438 
L 2134 34 
Q 2044 -6 1883 -34 
Q 1722 -63 1569 -63 
Q 1297 -63 1075 32 
Q 853 128 720 356 
Q 588 584 588 988 
L 588 3019 
L 100 3019 
L 100 3272 
L 591 3475 
L 797 4219 
L 1109 4219 
L 1109 3425 
L 2113 3425 
L 2113 3019 
L 1109 3019 
L 1109 1003 
Q 1109 681 1257 522 
Q 1406 363 1653 363 
z
" transform="scale(0.015625)"/>
      </defs>
      <use xlink:href="#DejaVuSans-Oblique-3c3" transform="translate(0 0.015625)"/>
      <use xlink:href="#DejaVuSans-Oblique-78" transform="translate(63.378906 -16.390625) scale(0.7)"/>
      <use xlink:href="#DejaVuSans-Oblique-3c3" transform="translate(107.539062 0.015625)"/>
      <use xlink:href="#DejaVuSans-Oblique-78" transform="translate(170.917969 -16.390625) scale(0.7)"/>
      <use xlink:href="#OpenSans-Regular-20" transform="translate(215.078125 0.015625)"/>
      <use xlink:href="#OpenSans-Regular-70" transform="translate(241.054688 0.015625)"/>
      <use xlink:href="#OpenSans-Regular-75" transform="translate(302.236328 0.015625)"/>
      <use xlink:href="#OpenSans-Regular-6c" transform="translate(363.564453 0.015625)"/>
      <use xlink:href="#OpenSans-Regular-73" transform="translate(388.808594 0.015625)"/>
      <use xlink:href="#OpenSans-Regular-65" transform="translate(436.464844 0.015625)"/>
      <use xlink:href="#OpenSans-Regular-2c" transform="translate(492.617188 0.015625)"/>
      <use xlink:href="#OpenSans-Regular-20" transform="translate(518.496094 0.015625)"/>
      <use xlink:href="#DejaVuSans-Oblique-43" transform="translate(544.472656 0.015625)"/>
      <use xlink:href="#DejaVuSans-Oblique-4e" transform="translate(614.296875 0.015625)"/>
      <use xlink:href="#DejaVuSans-Oblique-4f" transform="translate(689.101562 0.015625)"/>
      <use xlink:href="#DejaVuSans-Oblique-54" transform="translate(767.8125 0.015625)"/>
      <use xlink:href="#OpenSans-Regular-20" transform="translate(828.896484 0.015625)"/>
      <use xlink:href="#OpenSans-Regular-67" transform="translate(854.873047 0.015625)"/>
      <use xlink:href="#OpenSans-Regular-61" transform="translate(909.169922 0.015625)"/>
      <use xlink:href="#OpenSans-Regular-74" transform="translate(964.736328 0.015625)"/>
      <use xlink:href="#OpenSans-Regular-65" transform="translate(1000.380859 0.015625)"/>
     </g>
    </g>
    <g id="line2d_10">
     <path d="M 72 283.584 
L 72 283.584 
L 88 283.584 
L 88 283.584 
L 104 283.584 
" style="fill: none; stroke: #228833; stroke-width: 1.5; stroke-linecap: square"/>
    </g>
    <g id="text_8">
     <!-- $\sigma_{x} \sigma_{x}$ pulse, $\sqrt{SWAP}$ gate -->
     <g transform="translate(116.8 289.184) scale(0.16 -0.16)">
      <defs>
       <path id="STIXSizeOneSym-Regular-221a" d="M 6970 9933 
L 3373 -1888 
L 3104 -1888 
L 1626 2918 
Q 1555 3149 1465 3251 
Q 1376 3354 1229 3354 
Q 1011 3354 794 3181 
L 717 3309 
L 1766 4115 
L 1926 4115 
L 3379 -602 
L 3405 -602 
L 6605 9933 
L 6970 9933 
z
" transform="scale(0.015625)"/>
       <path id="DejaVuSans-Oblique-53" d="M 3859 4513 
L 3738 3897 
Q 3422 4066 3111 4152 
Q 2800 4238 2509 4238 
Q 1944 4238 1609 3991 
Q 1275 3744 1275 3334 
Q 1275 3109 1398 2989 
Q 1522 2869 2034 2731 
L 2413 2638 
Q 3053 2472 3303 2217 
Q 3553 1963 3553 1503 
Q 3553 797 2998 353 
Q 2444 -91 1538 -91 
Q 1166 -91 791 -17 
Q 416 56 38 206 
L 166 856 
Q 513 641 861 531 
Q 1209 422 1556 422 
Q 2147 422 2503 684 
Q 2859 947 2859 1369 
Q 2859 1650 2717 1795 
Q 2575 1941 2106 2059 
L 1728 2156 
Q 1081 2325 845 2545 
Q 609 2766 609 3163 
Q 609 3859 1145 4304 
Q 1681 4750 2541 4750 
Q 2875 4750 3203 4690 
Q 3531 4631 3859 4513 
z
" transform="scale(0.015625)"/>
       <path id="DejaVuSans-Oblique-57" d="M 616 4666 
L 1228 4666 
L 1453 697 
L 3213 4666 
L 3916 4666 
L 4147 697 
L 5888 4666 
L 6528 4666 
L 4453 0 
L 3659 0 
L 3444 3891 
L 1697 0 
L 903 0 
L 616 4666 
z
" transform="scale(0.015625)"/>
       <path id="DejaVuSans-Oblique-41" d="M 2356 4666 
L 3072 4666 
L 3938 0 
L 3278 0 
L 3084 1197 
L 984 1197 
L 325 0 
L -341 0 
L 2356 4666 
z
M 2584 4044 
L 1275 1722 
L 2988 1722 
L 2584 4044 
z
" transform="scale(0.015625)"/>
       <path id="DejaVuSans-Oblique-50" d="M 1081 4666 
L 2541 4666 
Q 3178 4666 3512 4369 
Q 3847 4072 3847 3500 
Q 3847 2731 3353 2303 
Q 2859 1875 1966 1875 
L 1172 1875 
L 806 0 
L 172 0 
L 1081 4666 
z
M 1613 4147 
L 1275 2394 
L 2069 2394 
Q 2606 2394 2893 2669 
Q 3181 2944 3181 3456 
Q 3181 3784 2986 3965 
Q 2791 4147 2438 4147 
L 1613 4147 
z
" transform="scale(0.015625)"/>
      </defs>
      <use xlink:href="#DejaVuSans-Oblique-3c3" transform="translate(0 0.296875)"/>
      <use xlink:href="#DejaVuSans-Oblique-78" transform="translate(63.378906 -16.109375) scale(0.7)"/>
      <use xlink:href="#DejaVuSans-Oblique-3c3" transform="translate(107.539062 0.296875)"/>
      <use xlink:href="#DejaVuSans-Oblique-78" transform="translate(170.917969 -16.109375) scale(0.7)"/>
      <use xlink:href="#OpenSans-Regular-20" transform="translate(215.078125 0.296875)"/>
      <use xlink:href="#OpenSans-Regular-70" transform="translate(241.054688 0.296875)"/>
      <use xlink:href="#OpenSans-Regular-75" transform="translate(302.236328 0.296875)"/>
      <use xlink:href="#OpenSans-Regular-6c" transform="translate(363.564453 0.296875)"/>
      <use xlink:href="#OpenSans-Regular-73" transform="translate(388.808594 0.296875)"/>
      <use xlink:href="#OpenSans-Regular-65" transform="translate(436.464844 0.296875)"/>
      <use xlink:href="#OpenSans-Regular-2c" transform="translate(492.617188 0.296875)"/>
      <use xlink:href="#OpenSans-Regular-20" transform="translate(518.496094 0.296875)"/>
      <use xlink:href="#STIXSizeOneSym-Regular-221a" transform="translate(544.472656 15.984375) scale(0.578716)"/>
      <use xlink:href="#DejaVuSans-Oblique-53" transform="translate(618.14653 0.53125)"/>
      <use xlink:href="#DejaVuSans-Oblique-57" transform="translate(681.623093 0.53125)"/>
      <use xlink:href="#DejaVuSans-Oblique-41" transform="translate(780.500046 0.53125)"/>
      <use xlink:href="#DejaVuSans-Oblique-50" transform="translate(848.908249 0.53125)"/>
      <use xlink:href="#OpenSans-Regular-20" transform="translate(921.710983 0.296875)"/>
      <use xlink:href="#OpenSans-Regular-67" transform="translate(947.687546 0.296875)"/>
      <use xlink:href="#OpenSans-Regular-61" transform="translate(1001.984421 0.296875)"/>
      <use xlink:href="#OpenSans-Regular-74" transform="translate(1057.550827 0.296875)"/>
      <use xlink:href="#OpenSans-Regular-65" transform="translate(1093.195358 0.296875)"/>
      <path d="M 605.64653 99.5 
L 605.64653 105.75 
L 921.710983 105.75 
L 921.710983 99.5 
L 605.64653 99.5 
z
"/>
     </g>
    </g>
   </g>
  </g>
 </g>
 <defs>
  <clipPath id="pcbadecff5b">
   <rect x="57.6" y="41.472" width="357.12" height="266.112"/>
  </clipPath>
 </defs>
</svg>
