<?xml version="1.0" encoding="utf-8" standalone="no"?>
<!DOCTYPE svg PUBLIC "-//W3C//DTD SVG 1.1//EN"
  "http://www.w3.org/Graphics/SVG/1.1/DTD/svg11.dtd">
<svg xmlns:xlink="http://www.w3.org/1999/xlink" width="432pt" height="288pt" viewBox="0 0 432 288" xmlns="http://www.w3.org/2000/svg" version="1.1">
 <metadata>
  <rdf:RDF xmlns:dc="http://purl.org/dc/elements/1.1/" xmlns:cc="http://creativecommons.org/ns#" xmlns:rdf="http://www.w3.org/1999/02/22-rdf-syntax-ns#">
   <cc:Work>
    <dc:type rdf:resource="http://purl.org/dc/dcmitype/StillImage"/>
    <dc:date>2023-05-02T21:58:57.587648</dc:date>
    <dc:format>image/svg+xml</dc:format>
    <dc:creator>
     <cc:Agent>
      <dc:title>Matplotlib v3.7.1, https://matplotlib.org/</dc:title>
     </cc:Agent>
    </dc:creator>
   </cc:Work>
  </rdf:RDF>
 </metadata>
 <defs>
  <style type="text/css">*{stroke-linejoin: round; stroke-linecap: butt}</style>
 </defs>
 <g id="figure_1">
  <g id="patch_1">
   <path d="M 0 288 
L 432 288 
L 432 0 
L 0 0 
z
" style="fill: #ffffff"/>
  </g>
  <g id="axes_1">
   <g id="patch_2">
    <path d="M 48.85 250.112 
L 416.88 250.112 
L 416.88 20.52 
L 48.85 20.52 
z
" style="fill: #ffffff"/>
   </g>
   <g id="patch_3">
    <path d="M 65.578636 250.112 
L 76.731061 250.112 
L 76.731061 238.173216 
L 65.578636 238.173216 
z
" clip-path="url(#p8560513d04)" style="fill: #46075a"/>
   </g>
   <g id="patch_4">
    <path d="M 76.731061 250.112 
L 87.883485 250.112 
L 87.883485 250.112 
L 76.731061 250.112 
z
" clip-path="url(#p8560513d04)" style="fill: #481467"/>
   </g>
   <g id="patch_5">
    <path d="M 87.883485 250.112 
L 99.035909 250.112 
L 99.035909 238.173216 
L 87.883485 238.173216 
z
" clip-path="url(#p8560513d04)" style="fill: #481f70"/>
   </g>
   <g id="patch_6">
    <path d="M 99.035909 250.112 
L 110.188333 250.112 
L 110.188333 214.295648 
L 99.035909 214.295648 
z
" clip-path="url(#p8560513d04)" style="fill: #472a7a"/>
   </g>
   <g id="patch_7">
    <path d="M 110.188333 250.112 
L 121.340758 250.112 
L 121.340758 238.173216 
L 110.188333 238.173216 
z
" clip-path="url(#p8560513d04)" style="fill: #463480"/>
   </g>
   <g id="patch_8">
    <path d="M 121.340758 250.112 
L 132.493182 250.112 
L 132.493182 214.295648 
L 121.340758 214.295648 
z
" clip-path="url(#p8560513d04)" style="fill: #423f85"/>
   </g>
   <g id="patch_9">
    <path d="M 132.493182 250.112 
L 143.645606 250.112 
L 143.645606 190.41808 
L 132.493182 190.41808 
z
" clip-path="url(#p8560513d04)" style="fill: #3f4889"/>
   </g>
   <g id="patch_10">
    <path d="M 143.645606 250.112 
L 154.79803 250.112 
L 154.79803 214.295648 
L 143.645606 214.295648 
z
" clip-path="url(#p8560513d04)" style="fill: #3b528b"/>
   </g>
   <g id="patch_11">
    <path d="M 154.79803 250.112 
L 165.950455 250.112 
L 165.950455 214.295648 
L 154.79803 214.295648 
z
" clip-path="url(#p8560513d04)" style="fill: #365c8d"/>
   </g>
   <g id="patch_12">
    <path d="M 165.950455 250.112 
L 177.102879 250.112 
L 177.102879 226.234432 
L 165.950455 226.234432 
z
" clip-path="url(#p8560513d04)" style="fill: #32648e"/>
   </g>
   <g id="patch_13">
    <path d="M 177.102879 250.112 
L 188.255303 250.112 
L 188.255303 178.479296 
L 177.102879 178.479296 
z
" clip-path="url(#p8560513d04)" style="fill: #2e6d8e"/>
   </g>
   <g id="patch_14">
    <path d="M 188.255303 250.112 
L 199.407727 250.112 
L 199.407727 190.41808 
L 188.255303 190.41808 
z
" clip-path="url(#p8560513d04)" style="fill: #2b748e"/>
   </g>
   <g id="patch_15">
    <path d="M 199.407727 250.112 
L 210.560152 250.112 
L 210.560152 226.234432 
L 199.407727 226.234432 
z
" clip-path="url(#p8560513d04)" style="fill: #287d8e"/>
   </g>
   <g id="patch_16">
    <path d="M 210.560152 250.112 
L 221.712576 250.112 
L 221.712576 170.213984 
L 210.560152 170.213984 
z
" clip-path="url(#p8560513d04)" style="fill: #25848e"/>
   </g>
   <g id="patch_17">
    <path d="M 221.712576 250.112 
L 232.865 250.112 
L 232.865 39.805728 
L 221.712576 39.805728 
z
" clip-path="url(#p8560513d04)" style="fill: #228d8d"/>
   </g>
   <g id="patch_18">
    <path d="M 232.865 250.112 
L 244.017424 250.112 
L 244.017424 57.25472 
L 232.865 57.25472 
z
" clip-path="url(#p8560513d04)" style="fill: #1f948c"/>
   </g>
   <g id="patch_19">
    <path d="M 244.017424 250.112 
L 255.169848 250.112 
L 255.169848 97.662912 
L 244.017424 97.662912 
z
" clip-path="url(#p8560513d04)" style="fill: #1e9d89"/>
   </g>
   <g id="patch_20">
    <path d="M 255.169848 250.112 
L 266.322273 250.112 
L 266.322273 183.989504 
L 255.169848 183.989504 
z
" clip-path="url(#p8560513d04)" style="fill: #20a486"/>
   </g>
   <g id="patch_21">
    <path d="M 266.322273 250.112 
L 277.474697 250.112 
L 277.474697 223.479328 
L 266.322273 223.479328 
z
" clip-path="url(#p8560513d04)" style="fill: #26ad81"/>
   </g>
   <g id="patch_22">
    <path d="M 277.474697 250.112 
L 288.627121 250.112 
L 288.627121 177.560928 
L 277.474697 177.560928 
z
" clip-path="url(#p8560513d04)" style="fill: #2fb47c"/>
   </g>
   <g id="patch_23">
    <path d="M 288.627121 250.112 
L 299.779545 250.112 
L 299.779545 244.601792 
L 288.627121 244.601792 
z
" clip-path="url(#p8560513d04)" style="fill: #3dbc74"/>
   </g>
   <g id="patch_24">
    <path d="M 299.779545 250.112 
L 310.93197 250.112 
L 310.93197 66.4384 
L 299.779545 66.4384 
z
" clip-path="url(#p8560513d04)" style="fill: #4cc26c"/>
   </g>
   <g id="patch_25">
    <path d="M 310.93197 250.112 
L 322.084394 250.112 
L 322.084394 134.397632 
L 310.93197 134.397632 
z
" clip-path="url(#p8560513d04)" style="fill: #5ec962"/>
   </g>
   <g id="patch_26">
    <path d="M 322.084394 250.112 
L 333.236818 250.112 
L 333.236818 162.86704 
L 322.084394 162.86704 
z
" clip-path="url(#p8560513d04)" style="fill: #73d056"/>
   </g>
   <g id="patch_27">
    <path d="M 333.236818 250.112 
L 344.389242 250.112 
L 344.389242 191.336448 
L 333.236818 191.336448 
z
" clip-path="url(#p8560513d04)" style="fill: #86d549"/>
   </g>
   <g id="patch_28">
    <path d="M 344.389242 250.112 
L 355.541667 250.112 
L 355.541667 250.112 
L 344.389242 250.112 
z
" clip-path="url(#p8560513d04)" style="fill: #9dd93b"/>
   </g>
   <g id="patch_29">
    <path d="M 355.541667 250.112 
L 366.694091 250.112 
L 366.694091 250.112 
L 355.541667 250.112 
z
" clip-path="url(#p8560513d04)" style="fill: #b2dd2d"/>
   </g>
   <g id="patch_30">
    <path d="M 366.694091 250.112 
L 377.846515 250.112 
L 377.846515 250.112 
L 366.694091 250.112 
z
" clip-path="url(#p8560513d04)" style="fill: #cae11f"/>
   </g>
   <g id="patch_31">
    <path d="M 377.846515 250.112 
L 388.998939 250.112 
L 388.998939 184.907872 
L 377.846515 184.907872 
z
" clip-path="url(#p8560513d04)" style="fill: #dfe318"/>
   </g>
   <g id="patch_32">
    <path d="M 388.998939 250.112 
L 400.151364 250.112 
L 400.151364 -32.745344 
L 388.998939 -32.745344 
z
" clip-path="url(#p8560513d04)" style="fill: #f6e620"/>
   </g>
   <g id="matplotlib.axis_1">
    <g id="xtick_1">
     <g id="line2d_1">
      <defs>
       <path id="medd8733007" d="M 0 0 
L 0 3.5 
" style="stroke: #000000; stroke-width: 0.8"/>
      </defs>
      <g>
       <use xlink:href="#medd8733007" x="65.578636" y="250.112" style="stroke: #000000; stroke-width: 0.8"/>
      </g>
     </g>
     <g id="text_1">
      <!-- $\mathdefault{10^{-6}}$ -->
      <g transform="translate(49.128636 267.749813) scale(0.14 -0.14)">
       <defs>
        <path id="DejaVuSans-31" d="M 794 531 
L 1825 531 
L 1825 4091 
L 703 3866 
L 703 4441 
L 1819 4666 
L 2450 4666 
L 2450 531 
L 3481 531 
L 3481 0 
L 794 0 
L 794 531 
z
" transform="scale(0.015625)"/>
        <path id="DejaVuSans-30" d="M 2034 4250 
Q 1547 4250 1301 3770 
Q 1056 3291 1056 2328 
Q 1056 1369 1301 889 
Q 1547 409 2034 409 
Q 2525 409 2770 889 
Q 3016 1369 3016 2328 
Q 3016 3291 2770 3770 
Q 2525 4250 2034 4250 
z
M 2034 4750 
Q 2819 4750 3233 4129 
Q 3647 3509 3647 2328 
Q 3647 1150 3233 529 
Q 2819 -91 2034 -91 
Q 1250 -91 836 529 
Q 422 1150 422 2328 
Q 422 3509 836 4129 
Q 1250 4750 2034 4750 
z
" transform="scale(0.015625)"/>
        <path id="DejaVuSans-2212" d="M 678 2272 
L 4684 2272 
L 4684 1741 
L 678 1741 
L 678 2272 
z
" transform="scale(0.015625)"/>
        <path id="DejaVuSans-36" d="M 2113 2584 
Q 1688 2584 1439 2293 
Q 1191 2003 1191 1497 
Q 1191 994 1439 701 
Q 1688 409 2113 409 
Q 2538 409 2786 701 
Q 3034 994 3034 1497 
Q 3034 2003 2786 2293 
Q 2538 2584 2113 2584 
z
M 3366 4563 
L 3366 3988 
Q 3128 4100 2886 4159 
Q 2644 4219 2406 4219 
Q 1781 4219 1451 3797 
Q 1122 3375 1075 2522 
Q 1259 2794 1537 2939 
Q 1816 3084 2150 3084 
Q 2853 3084 3261 2657 
Q 3669 2231 3669 1497 
Q 3669 778 3244 343 
Q 2819 -91 2113 -91 
Q 1303 -91 875 529 
Q 447 1150 447 2328 
Q 447 3434 972 4092 
Q 1497 4750 2381 4750 
Q 2619 4750 2861 4703 
Q 3103 4656 3366 4563 
z
" transform="scale(0.015625)"/>
       </defs>
       <use xlink:href="#DejaVuSans-31" transform="translate(0 0.765625)"/>
       <use xlink:href="#DejaVuSans-30" transform="translate(63.623047 0.765625)"/>
       <use xlink:href="#DejaVuSans-2212" transform="translate(128.203125 39.046875) scale(0.7)"/>
       <use xlink:href="#DejaVuSans-36" transform="translate(186.855469 39.046875) scale(0.7)"/>
      </g>
     </g>
    </g>
    <g id="xtick_2">
     <g id="line2d_2">
      <g>
       <use xlink:href="#medd8733007" x="121.340758" y="250.112" style="stroke: #000000; stroke-width: 0.8"/>
      </g>
     </g>
     <g id="text_2">
      <!-- $\mathdefault{10^{-5}}$ -->
      <g transform="translate(104.890758 267.749813) scale(0.14 -0.14)">
       <defs>
        <path id="DejaVuSans-35" d="M 691 4666 
L 3169 4666 
L 3169 4134 
L 1269 4134 
L 1269 2991 
Q 1406 3038 1543 3061 
Q 1681 3084 1819 3084 
Q 2600 3084 3056 2656 
Q 3513 2228 3513 1497 
Q 3513 744 3044 326 
Q 2575 -91 1722 -91 
Q 1428 -91 1123 -41 
Q 819 9 494 109 
L 494 744 
Q 775 591 1075 516 
Q 1375 441 1709 441 
Q 2250 441 2565 725 
Q 2881 1009 2881 1497 
Q 2881 1984 2565 2268 
Q 2250 2553 1709 2553 
Q 1456 2553 1204 2497 
Q 953 2441 691 2322 
L 691 4666 
z
" transform="scale(0.015625)"/>
       </defs>
       <use xlink:href="#DejaVuSans-31" transform="translate(0 0.684375)"/>
       <use xlink:href="#DejaVuSans-30" transform="translate(63.623047 0.684375)"/>
       <use xlink:href="#DejaVuSans-2212" transform="translate(128.203125 38.965625) scale(0.7)"/>
       <use xlink:href="#DejaVuSans-35" transform="translate(186.855469 38.965625) scale(0.7)"/>
      </g>
     </g>
    </g>
    <g id="xtick_3">
     <g id="line2d_3">
      <g>
       <use xlink:href="#medd8733007" x="177.102879" y="250.112" style="stroke: #000000; stroke-width: 0.8"/>
      </g>
     </g>
     <g id="text_3">
      <!-- $\mathdefault{10^{-4}}$ -->
      <g transform="translate(160.652879 267.749813) scale(0.14 -0.14)">
       <defs>
        <path id="DejaVuSans-34" d="M 2419 4116 
L 825 1625 
L 2419 1625 
L 2419 4116 
z
M 2253 4666 
L 3047 4666 
L 3047 1625 
L 3713 1625 
L 3713 1100 
L 3047 1100 
L 3047 0 
L 2419 0 
L 2419 1100 
L 313 1100 
L 313 1709 
L 2253 4666 
z
" transform="scale(0.015625)"/>
       </defs>
       <use xlink:href="#DejaVuSans-31" transform="translate(0 0.684375)"/>
       <use xlink:href="#DejaVuSans-30" transform="translate(63.623047 0.684375)"/>
       <use xlink:href="#DejaVuSans-2212" transform="translate(128.203125 38.965625) scale(0.7)"/>
       <use xlink:href="#DejaVuSans-34" transform="translate(186.855469 38.965625) scale(0.7)"/>
      </g>
     </g>
    </g>
    <g id="xtick_4">
     <g id="line2d_4">
      <g>
       <use xlink:href="#medd8733007" x="232.865" y="250.112" style="stroke: #000000; stroke-width: 0.8"/>
      </g>
     </g>
     <g id="text_4">
      <!-- $\mathdefault{10^{-3}}$ -->
      <g transform="translate(216.415 267.749813) scale(0.14 -0.14)">
       <defs>
        <path id="DejaVuSans-33" d="M 2597 2516 
Q 3050 2419 3304 2112 
Q 3559 1806 3559 1356 
Q 3559 666 3084 287 
Q 2609 -91 1734 -91 
Q 1441 -91 1130 -33 
Q 819 25 488 141 
L 488 750 
Q 750 597 1062 519 
Q 1375 441 1716 441 
Q 2309 441 2620 675 
Q 2931 909 2931 1356 
Q 2931 1769 2642 2001 
Q 2353 2234 1838 2234 
L 1294 2234 
L 1294 2753 
L 1863 2753 
Q 2328 2753 2575 2939 
Q 2822 3125 2822 3475 
Q 2822 3834 2567 4026 
Q 2313 4219 1838 4219 
Q 1578 4219 1281 4162 
Q 984 4106 628 3988 
L 628 4550 
Q 988 4650 1302 4700 
Q 1616 4750 1894 4750 
Q 2613 4750 3031 4423 
Q 3450 4097 3450 3541 
Q 3450 3153 3228 2886 
Q 3006 2619 2597 2516 
z
" transform="scale(0.015625)"/>
       </defs>
       <use xlink:href="#DejaVuSans-31" transform="translate(0 0.765625)"/>
       <use xlink:href="#DejaVuSans-30" transform="translate(63.623047 0.765625)"/>
       <use xlink:href="#DejaVuSans-2212" transform="translate(128.203125 39.046875) scale(0.7)"/>
       <use xlink:href="#DejaVuSans-33" transform="translate(186.855469 39.046875) scale(0.7)"/>
      </g>
     </g>
    </g>
    <g id="xtick_5">
     <g id="line2d_5">
      <g>
       <use xlink:href="#medd8733007" x="288.627121" y="250.112" style="stroke: #000000; stroke-width: 0.8"/>
      </g>
     </g>
     <g id="text_5">
      <!-- $\mathdefault{10^{-2}}$ -->
      <g transform="translate(272.177121 267.749813) scale(0.14 -0.14)">
       <defs>
        <path id="DejaVuSans-32" d="M 1228 531 
L 3431 531 
L 3431 0 
L 469 0 
L 469 531 
Q 828 903 1448 1529 
Q 2069 2156 2228 2338 
Q 2531 2678 2651 2914 
Q 2772 3150 2772 3378 
Q 2772 3750 2511 3984 
Q 2250 4219 1831 4219 
Q 1534 4219 1204 4116 
Q 875 4013 500 3803 
L 500 4441 
Q 881 4594 1212 4672 
Q 1544 4750 1819 4750 
Q 2544 4750 2975 4387 
Q 3406 4025 3406 3419 
Q 3406 3131 3298 2873 
Q 3191 2616 2906 2266 
Q 2828 2175 2409 1742 
Q 1991 1309 1228 531 
z
" transform="scale(0.015625)"/>
       </defs>
       <use xlink:href="#DejaVuSans-31" transform="translate(0 0.765625)"/>
       <use xlink:href="#DejaVuSans-30" transform="translate(63.623047 0.765625)"/>
       <use xlink:href="#DejaVuSans-2212" transform="translate(128.203125 39.046875) scale(0.7)"/>
       <use xlink:href="#DejaVuSans-32" transform="translate(186.855469 39.046875) scale(0.7)"/>
      </g>
     </g>
    </g>
    <g id="xtick_6">
     <g id="line2d_6">
      <g>
       <use xlink:href="#medd8733007" x="344.389242" y="250.112" style="stroke: #000000; stroke-width: 0.8"/>
      </g>
     </g>
     <g id="text_6">
      <!-- $\mathdefault{10^{-1}}$ -->
      <g transform="translate(327.939242 267.749813) scale(0.14 -0.14)">
       <use xlink:href="#DejaVuSans-31" transform="translate(0 0.684375)"/>
       <use xlink:href="#DejaVuSans-30" transform="translate(63.623047 0.684375)"/>
       <use xlink:href="#DejaVuSans-2212" transform="translate(128.203125 38.965625) scale(0.7)"/>
       <use xlink:href="#DejaVuSans-31" transform="translate(186.855469 38.965625) scale(0.7)"/>
      </g>
     </g>
    </g>
    <g id="xtick_7">
     <g id="line2d_7">
      <g>
       <use xlink:href="#medd8733007" x="400.151364" y="250.112" style="stroke: #000000; stroke-width: 0.8"/>
      </g>
     </g>
     <g id="text_7">
      <!-- $\mathdefault{10^{0}}$ -->
      <g transform="translate(387.831364 267.749813) scale(0.14 -0.14)">
       <use xlink:href="#DejaVuSans-31" transform="translate(0 0.765625)"/>
       <use xlink:href="#DejaVuSans-30" transform="translate(63.623047 0.765625)"/>
       <use xlink:href="#DejaVuSans-30" transform="translate(128.203125 39.046875) scale(0.7)"/>
      </g>
     </g>
    </g>
    <g id="xtick_8">
     <g id="line2d_8">
      <defs>
       <path id="m4c4f42eca6" d="M 0 0 
L 0 2 
" style="stroke: #000000; stroke-width: 0.6"/>
      </defs>
      <g>
       <use xlink:href="#m4c4f42eca6" x="53.207879" y="250.112" style="stroke: #000000; stroke-width: 0.6"/>
      </g>
     </g>
    </g>
    <g id="xtick_9">
     <g id="line2d_9">
      <g>
       <use xlink:href="#m4c4f42eca6" x="56.940974" y="250.112" style="stroke: #000000; stroke-width: 0.6"/>
      </g>
     </g>
    </g>
    <g id="xtick_10">
     <g id="line2d_10">
      <g>
       <use xlink:href="#m4c4f42eca6" x="60.174728" y="250.112" style="stroke: #000000; stroke-width: 0.6"/>
      </g>
     </g>
    </g>
    <g id="xtick_11">
     <g id="line2d_11">
      <g>
       <use xlink:href="#m4c4f42eca6" x="63.027102" y="250.112" style="stroke: #000000; stroke-width: 0.6"/>
      </g>
     </g>
    </g>
    <g id="xtick_12">
     <g id="line2d_12">
      <g>
       <use xlink:href="#m4c4f42eca6" x="82.364707" y="250.112" style="stroke: #000000; stroke-width: 0.6"/>
      </g>
     </g>
    </g>
    <g id="xtick_13">
     <g id="line2d_13">
      <g>
       <use xlink:href="#m4c4f42eca6" x="92.18393" y="250.112" style="stroke: #000000; stroke-width: 0.6"/>
      </g>
     </g>
    </g>
    <g id="xtick_14">
     <g id="line2d_14">
      <g>
       <use xlink:href="#m4c4f42eca6" x="99.150779" y="250.112" style="stroke: #000000; stroke-width: 0.6"/>
      </g>
     </g>
    </g>
    <g id="xtick_15">
     <g id="line2d_15">
      <g>
       <use xlink:href="#m4c4f42eca6" x="104.554686" y="250.112" style="stroke: #000000; stroke-width: 0.6"/>
      </g>
     </g>
    </g>
    <g id="xtick_16">
     <g id="line2d_16">
      <g>
       <use xlink:href="#m4c4f42eca6" x="108.970001" y="250.112" style="stroke: #000000; stroke-width: 0.6"/>
      </g>
     </g>
    </g>
    <g id="xtick_17">
     <g id="line2d_17">
      <g>
       <use xlink:href="#m4c4f42eca6" x="112.703096" y="250.112" style="stroke: #000000; stroke-width: 0.6"/>
      </g>
     </g>
    </g>
    <g id="xtick_18">
     <g id="line2d_18">
      <g>
       <use xlink:href="#m4c4f42eca6" x="115.93685" y="250.112" style="stroke: #000000; stroke-width: 0.6"/>
      </g>
     </g>
    </g>
    <g id="xtick_19">
     <g id="line2d_19">
      <g>
       <use xlink:href="#m4c4f42eca6" x="118.789223" y="250.112" style="stroke: #000000; stroke-width: 0.6"/>
      </g>
     </g>
    </g>
    <g id="xtick_20">
     <g id="line2d_20">
      <g>
       <use xlink:href="#m4c4f42eca6" x="138.126829" y="250.112" style="stroke: #000000; stroke-width: 0.6"/>
      </g>
     </g>
    </g>
    <g id="xtick_21">
     <g id="line2d_21">
      <g>
       <use xlink:href="#m4c4f42eca6" x="147.946051" y="250.112" style="stroke: #000000; stroke-width: 0.6"/>
      </g>
     </g>
    </g>
    <g id="xtick_22">
     <g id="line2d_22">
      <g>
       <use xlink:href="#m4c4f42eca6" x="154.9129" y="250.112" style="stroke: #000000; stroke-width: 0.6"/>
      </g>
     </g>
    </g>
    <g id="xtick_23">
     <g id="line2d_23">
      <g>
       <use xlink:href="#m4c4f42eca6" x="160.316808" y="250.112" style="stroke: #000000; stroke-width: 0.6"/>
      </g>
     </g>
    </g>
    <g id="xtick_24">
     <g id="line2d_24">
      <g>
       <use xlink:href="#m4c4f42eca6" x="164.732122" y="250.112" style="stroke: #000000; stroke-width: 0.6"/>
      </g>
     </g>
    </g>
    <g id="xtick_25">
     <g id="line2d_25">
      <g>
       <use xlink:href="#m4c4f42eca6" x="168.465217" y="250.112" style="stroke: #000000; stroke-width: 0.6"/>
      </g>
     </g>
    </g>
    <g id="xtick_26">
     <g id="line2d_26">
      <g>
       <use xlink:href="#m4c4f42eca6" x="171.698971" y="250.112" style="stroke: #000000; stroke-width: 0.6"/>
      </g>
     </g>
    </g>
    <g id="xtick_27">
     <g id="line2d_27">
      <g>
       <use xlink:href="#m4c4f42eca6" x="174.551344" y="250.112" style="stroke: #000000; stroke-width: 0.6"/>
      </g>
     </g>
    </g>
    <g id="xtick_28">
     <g id="line2d_28">
      <g>
       <use xlink:href="#m4c4f42eca6" x="193.88895" y="250.112" style="stroke: #000000; stroke-width: 0.6"/>
      </g>
     </g>
    </g>
    <g id="xtick_29">
     <g id="line2d_29">
      <g>
       <use xlink:href="#m4c4f42eca6" x="203.708172" y="250.112" style="stroke: #000000; stroke-width: 0.6"/>
      </g>
     </g>
    </g>
    <g id="xtick_30">
     <g id="line2d_30">
      <g>
       <use xlink:href="#m4c4f42eca6" x="210.675021" y="250.112" style="stroke: #000000; stroke-width: 0.6"/>
      </g>
     </g>
    </g>
    <g id="xtick_31">
     <g id="line2d_31">
      <g>
       <use xlink:href="#m4c4f42eca6" x="216.078929" y="250.112" style="stroke: #000000; stroke-width: 0.6"/>
      </g>
     </g>
    </g>
    <g id="xtick_32">
     <g id="line2d_32">
      <g>
       <use xlink:href="#m4c4f42eca6" x="220.494243" y="250.112" style="stroke: #000000; stroke-width: 0.6"/>
      </g>
     </g>
    </g>
    <g id="xtick_33">
     <g id="line2d_33">
      <g>
       <use xlink:href="#m4c4f42eca6" x="224.227338" y="250.112" style="stroke: #000000; stroke-width: 0.6"/>
      </g>
     </g>
    </g>
    <g id="xtick_34">
     <g id="line2d_34">
      <g>
       <use xlink:href="#m4c4f42eca6" x="227.461092" y="250.112" style="stroke: #000000; stroke-width: 0.6"/>
      </g>
     </g>
    </g>
    <g id="xtick_35">
     <g id="line2d_35">
      <g>
       <use xlink:href="#m4c4f42eca6" x="230.313465" y="250.112" style="stroke: #000000; stroke-width: 0.6"/>
      </g>
     </g>
    </g>
    <g id="xtick_36">
     <g id="line2d_36">
      <g>
       <use xlink:href="#m4c4f42eca6" x="249.651071" y="250.112" style="stroke: #000000; stroke-width: 0.6"/>
      </g>
     </g>
    </g>
    <g id="xtick_37">
     <g id="line2d_37">
      <g>
       <use xlink:href="#m4c4f42eca6" x="259.470293" y="250.112" style="stroke: #000000; stroke-width: 0.6"/>
      </g>
     </g>
    </g>
    <g id="xtick_38">
     <g id="line2d_38">
      <g>
       <use xlink:href="#m4c4f42eca6" x="266.437142" y="250.112" style="stroke: #000000; stroke-width: 0.6"/>
      </g>
     </g>
    </g>
    <g id="xtick_39">
     <g id="line2d_39">
      <g>
       <use xlink:href="#m4c4f42eca6" x="271.84105" y="250.112" style="stroke: #000000; stroke-width: 0.6"/>
      </g>
     </g>
    </g>
    <g id="xtick_40">
     <g id="line2d_40">
      <g>
       <use xlink:href="#m4c4f42eca6" x="276.256364" y="250.112" style="stroke: #000000; stroke-width: 0.6"/>
      </g>
     </g>
    </g>
    <g id="xtick_41">
     <g id="line2d_41">
      <g>
       <use xlink:href="#m4c4f42eca6" x="279.989459" y="250.112" style="stroke: #000000; stroke-width: 0.6"/>
      </g>
     </g>
    </g>
    <g id="xtick_42">
     <g id="line2d_42">
      <g>
       <use xlink:href="#m4c4f42eca6" x="283.223213" y="250.112" style="stroke: #000000; stroke-width: 0.6"/>
      </g>
     </g>
    </g>
    <g id="xtick_43">
     <g id="line2d_43">
      <g>
       <use xlink:href="#m4c4f42eca6" x="286.075586" y="250.112" style="stroke: #000000; stroke-width: 0.6"/>
      </g>
     </g>
    </g>
    <g id="xtick_44">
     <g id="line2d_44">
      <g>
       <use xlink:href="#m4c4f42eca6" x="305.413192" y="250.112" style="stroke: #000000; stroke-width: 0.6"/>
      </g>
     </g>
    </g>
    <g id="xtick_45">
     <g id="line2d_45">
      <g>
       <use xlink:href="#m4c4f42eca6" x="315.232414" y="250.112" style="stroke: #000000; stroke-width: 0.6"/>
      </g>
     </g>
    </g>
    <g id="xtick_46">
     <g id="line2d_46">
      <g>
       <use xlink:href="#m4c4f42eca6" x="322.199263" y="250.112" style="stroke: #000000; stroke-width: 0.6"/>
      </g>
     </g>
    </g>
    <g id="xtick_47">
     <g id="line2d_47">
      <g>
       <use xlink:href="#m4c4f42eca6" x="327.603171" y="250.112" style="stroke: #000000; stroke-width: 0.6"/>
      </g>
     </g>
    </g>
    <g id="xtick_48">
     <g id="line2d_48">
      <g>
       <use xlink:href="#m4c4f42eca6" x="332.018486" y="250.112" style="stroke: #000000; stroke-width: 0.6"/>
      </g>
     </g>
    </g>
    <g id="xtick_49">
     <g id="line2d_49">
      <g>
       <use xlink:href="#m4c4f42eca6" x="335.751581" y="250.112" style="stroke: #000000; stroke-width: 0.6"/>
      </g>
     </g>
    </g>
    <g id="xtick_50">
     <g id="line2d_50">
      <g>
       <use xlink:href="#m4c4f42eca6" x="338.985335" y="250.112" style="stroke: #000000; stroke-width: 0.6"/>
      </g>
     </g>
    </g>
    <g id="xtick_51">
     <g id="line2d_51">
      <g>
       <use xlink:href="#m4c4f42eca6" x="341.837708" y="250.112" style="stroke: #000000; stroke-width: 0.6"/>
      </g>
     </g>
    </g>
    <g id="xtick_52">
     <g id="line2d_52">
      <g>
       <use xlink:href="#m4c4f42eca6" x="361.175314" y="250.112" style="stroke: #000000; stroke-width: 0.6"/>
      </g>
     </g>
    </g>
    <g id="xtick_53">
     <g id="line2d_53">
      <g>
       <use xlink:href="#m4c4f42eca6" x="370.994536" y="250.112" style="stroke: #000000; stroke-width: 0.6"/>
      </g>
     </g>
    </g>
    <g id="xtick_54">
     <g id="line2d_54">
      <g>
       <use xlink:href="#m4c4f42eca6" x="377.961385" y="250.112" style="stroke: #000000; stroke-width: 0.6"/>
      </g>
     </g>
    </g>
    <g id="xtick_55">
     <g id="line2d_55">
      <g>
       <use xlink:href="#m4c4f42eca6" x="383.365293" y="250.112" style="stroke: #000000; stroke-width: 0.6"/>
      </g>
     </g>
    </g>
    <g id="xtick_56">
     <g id="line2d_56">
      <g>
       <use xlink:href="#m4c4f42eca6" x="387.780607" y="250.112" style="stroke: #000000; stroke-width: 0.6"/>
      </g>
     </g>
    </g>
    <g id="xtick_57">
     <g id="line2d_57">
      <g>
       <use xlink:href="#m4c4f42eca6" x="391.513702" y="250.112" style="stroke: #000000; stroke-width: 0.6"/>
      </g>
     </g>
    </g>
    <g id="xtick_58">
     <g id="line2d_58">
      <g>
       <use xlink:href="#m4c4f42eca6" x="394.747456" y="250.112" style="stroke: #000000; stroke-width: 0.6"/>
      </g>
     </g>
    </g>
    <g id="xtick_59">
     <g id="line2d_59">
      <g>
       <use xlink:href="#m4c4f42eca6" x="397.599829" y="250.112" style="stroke: #000000; stroke-width: 0.6"/>
      </g>
     </g>
    </g>
   </g>
   <g id="matplotlib.axis_2">
    <g id="ytick_1">
     <g id="line2d_60">
      <defs>
       <path id="mf093a2ce28" d="M 0 0 
L -3.5 0 
" style="stroke: #000000; stroke-width: 0.8"/>
      </defs>
      <g>
       <use xlink:href="#mf093a2ce28" x="48.85" y="250.112" style="stroke: #000000; stroke-width: 0.8"/>
      </g>
     </g>
     <g id="text_8">
      <!-- 0 -->
      <g transform="translate(32.9425 255.430906) scale(0.14 -0.14)">
       <use xlink:href="#DejaVuSans-30"/>
      </g>
     </g>
    </g>
    <g id="ytick_2">
     <g id="line2d_61">
      <g>
       <use xlink:href="#mf093a2ce28" x="48.85" y="204.1936" style="stroke: #000000; stroke-width: 0.8"/>
      </g>
     </g>
     <g id="text_9">
      <!-- 50 -->
      <g transform="translate(24.035 209.512506) scale(0.14 -0.14)">
       <use xlink:href="#DejaVuSans-35"/>
       <use xlink:href="#DejaVuSans-30" x="63.623047"/>
      </g>
     </g>
    </g>
    <g id="ytick_3">
     <g id="line2d_62">
      <g>
       <use xlink:href="#mf093a2ce28" x="48.85" y="158.2752" style="stroke: #000000; stroke-width: 0.8"/>
      </g>
     </g>
     <g id="text_10">
      <!-- 100 -->
      <g transform="translate(15.1275 163.594106) scale(0.14 -0.14)">
       <use xlink:href="#DejaVuSans-31"/>
       <use xlink:href="#DejaVuSans-30" x="63.623047"/>
       <use xlink:href="#DejaVuSans-30" x="127.246094"/>
      </g>
     </g>
    </g>
    <g id="ytick_4">
     <g id="line2d_63">
      <g>
       <use xlink:href="#mf093a2ce28" x="48.85" y="112.3568" style="stroke: #000000; stroke-width: 0.8"/>
      </g>
     </g>
     <g id="text_11">
      <!-- 150 -->
      <g transform="translate(15.1275 117.675706) scale(0.14 -0.14)">
       <use xlink:href="#DejaVuSans-31"/>
       <use xlink:href="#DejaVuSans-35" x="63.623047"/>
       <use xlink:href="#DejaVuSans-30" x="127.246094"/>
      </g>
     </g>
    </g>
    <g id="ytick_5">
     <g id="line2d_64">
      <g>
       <use xlink:href="#mf093a2ce28" x="48.85" y="66.4384" style="stroke: #000000; stroke-width: 0.8"/>
      </g>
     </g>
     <g id="text_12">
      <!-- 200 -->
      <g transform="translate(15.1275 71.757306) scale(0.14 -0.14)">
       <use xlink:href="#DejaVuSans-32"/>
       <use xlink:href="#DejaVuSans-30" x="63.623047"/>
       <use xlink:href="#DejaVuSans-30" x="127.246094"/>
      </g>
     </g>
    </g>
    <g id="ytick_6">
     <g id="line2d_65">
      <g>
       <use xlink:href="#mf093a2ce28" x="48.85" y="20.52" style="stroke: #000000; stroke-width: 0.8"/>
      </g>
     </g>
     <g id="text_13">
      <!-- 250 -->
      <g transform="translate(15.1275 25.838906) scale(0.14 -0.14)">
       <use xlink:href="#DejaVuSans-32"/>
       <use xlink:href="#DejaVuSans-35" x="63.623047"/>
       <use xlink:href="#DejaVuSans-30" x="127.246094"/>
      </g>
     </g>
    </g>
   </g>
   <g id="patch_33">
    <path d="M 48.85 250.112 
L 48.85 20.52 
" style="fill: none; stroke: #000000; stroke-width: 0.8; stroke-linejoin: miter; stroke-linecap: square"/>
   </g>
   <g id="patch_34">
    <path d="M 416.88 250.112 
L 416.88 20.52 
" style="fill: none; stroke: #000000; stroke-width: 0.8; stroke-linejoin: miter; stroke-linecap: square"/>
   </g>
   <g id="patch_35">
    <path d="M 48.85 250.112 
L 416.88 250.112 
" style="fill: none; stroke: #000000; stroke-width: 0.8; stroke-linejoin: miter; stroke-linecap: square"/>
   </g>
   <g id="patch_36">
    <path d="M 48.85 20.52 
L 416.88 20.52 
" style="fill: none; stroke: #000000; stroke-width: 0.8; stroke-linejoin: miter; stroke-linecap: square"/>
   </g>
  </g>
 </g>
 <defs>
  <clipPath id="p8560513d04">
   <rect x="48.85" y="20.52" width="368.03" height="229.592"/>
  </clipPath>
 </defs>
</svg>
