<?xml version="1.0" encoding="utf-8" standalone="no"?>
<!DOCTYPE svg PUBLIC "-//W3C//DTD SVG 1.1//EN"
  "http://www.w3.org/Graphics/SVG/1.1/DTD/svg11.dtd">
<svg xmlns:xlink="http://www.w3.org/1999/xlink" width="432pt" height="288pt" viewBox="0 0 432 288" xmlns="http://www.w3.org/2000/svg" version="1.1">
 <metadata>
  <rdf:RDF xmlns:dc="http://purl.org/dc/elements/1.1/" xmlns:cc="http://creativecommons.org/ns#" xmlns:rdf="http://www.w3.org/1999/02/22-rdf-syntax-ns#">
   <cc:Work>
    <dc:type rdf:resource="http://purl.org/dc/dcmitype/StillImage"/>
    <dc:date>2023-04-30T14:13:51.765042</dc:date>
    <dc:format>image/svg+xml</dc:format>
    <dc:creator>
     <cc:Agent>
      <dc:title>Matplotlib v3.7.1, https://matplotlib.org/</dc:title>
     </cc:Agent>
    </dc:creator>
   </cc:Work>
  </rdf:RDF>
 </metadata>
 <defs>
  <style type="text/css">*{stroke-linejoin: round; stroke-linecap: butt}</style>
 </defs>
 <g id="figure_1">
  <g id="patch_1">
   <path d="M 0 288 
L 432 288 
L 432 0 
L 0 0 
z
" style="fill: #ffffff"/>
  </g>
  <g id="axes_1">
   <g id="patch_2">
    <path d="M 48.85 250.112 
L 416.88 250.112 
L 416.88 20.52 
L 48.85 20.52 
z
" style="fill: #ffffff"/>
   </g>
   <g id="patch_3">
    <path d="M 65.578636 250.112 
L 73.942955 250.112 
L 73.942955 250.112 
L 65.578636 250.112 
z
" clip-path="url(#p44734a23a5)" style="fill: #450559"/>
   </g>
   <g id="patch_4">
    <path d="M 73.942955 250.112 
L 82.307273 250.112 
L 82.307273 250.112 
L 73.942955 250.112 
z
" clip-path="url(#p44734a23a5)" style="fill: #470e61"/>
   </g>
   <g id="patch_5">
    <path d="M 82.307273 250.112 
L 90.671591 250.112 
L 90.671591 249.193632 
L 82.307273 249.193632 
z
" clip-path="url(#p44734a23a5)" style="fill: #48186a"/>
   </g>
   <g id="patch_6">
    <path d="M 90.671591 250.112 
L 99.035909 250.112 
L 99.035909 245.52016 
L 90.671591 245.52016 
z
" clip-path="url(#p44734a23a5)" style="fill: #482071"/>
   </g>
   <g id="patch_7">
    <path d="M 99.035909 250.112 
L 107.400227 250.112 
L 107.400227 236.33648 
L 99.035909 236.33648 
z
" clip-path="url(#p44734a23a5)" style="fill: #482979"/>
   </g>
   <g id="patch_8">
    <path d="M 107.400227 250.112 
L 115.764545 250.112 
L 115.764545 240.009952 
L 107.400227 240.009952 
z
" clip-path="url(#p44734a23a5)" style="fill: #46307e"/>
   </g>
   <g id="patch_9">
    <path d="M 115.764545 250.112 
L 124.128864 250.112 
L 124.128864 242.765056 
L 115.764545 242.765056 
z
" clip-path="url(#p44734a23a5)" style="fill: #453882"/>
   </g>
   <g id="patch_10">
    <path d="M 124.128864 250.112 
L 132.493182 250.112 
L 132.493182 229.907904 
L 124.128864 229.907904 
z
" clip-path="url(#p44734a23a5)" style="fill: #424086"/>
   </g>
   <g id="patch_11">
    <path d="M 132.493182 250.112 
L 140.8575 250.112 
L 140.8575 208.78544 
L 132.493182 208.78544 
z
" clip-path="url(#p44734a23a5)" style="fill: #3f4788"/>
   </g>
   <g id="patch_12">
    <path d="M 140.8575 250.112 
L 149.221818 250.112 
L 149.221818 198.683392 
L 140.8575 198.683392 
z
" clip-path="url(#p44734a23a5)" style="fill: #3c4f8a"/>
   </g>
   <g id="patch_13">
    <path d="M 149.221818 250.112 
L 157.586136 250.112 
L 157.586136 223.479328 
L 149.221818 223.479328 
z
" clip-path="url(#p44734a23a5)" style="fill: #39558c"/>
   </g>
   <g id="patch_14">
    <path d="M 157.586136 250.112 
L 165.950455 250.112 
L 165.950455 225.316064 
L 157.586136 225.316064 
z
" clip-path="url(#p44734a23a5)" style="fill: #365c8d"/>
   </g>
   <g id="patch_15">
    <path d="M 165.950455 250.112 
L 174.314773 250.112 
L 174.314773 228.071168 
L 165.950455 228.071168 
z
" clip-path="url(#p44734a23a5)" style="fill: #33638d"/>
   </g>
   <g id="patch_16">
    <path d="M 174.314773 250.112 
L 182.679091 250.112 
L 182.679091 232.663008 
L 174.314773 232.663008 
z
" clip-path="url(#p44734a23a5)" style="fill: #30698e"/>
   </g>
   <g id="patch_17">
    <path d="M 182.679091 250.112 
L 191.043409 250.112 
L 191.043409 244.601792 
L 182.679091 244.601792 
z
" clip-path="url(#p44734a23a5)" style="fill: #2d708e"/>
   </g>
   <g id="patch_18">
    <path d="M 191.043409 250.112 
L 199.407727 250.112 
L 199.407727 240.92832 
L 191.043409 240.92832 
z
" clip-path="url(#p44734a23a5)" style="fill: #2b758e"/>
   </g>
   <g id="patch_19">
    <path d="M 199.407727 250.112 
L 207.772045 250.112 
L 207.772045 232.663008 
L 199.407727 232.663008 
z
" clip-path="url(#p44734a23a5)" style="fill: #297b8e"/>
   </g>
   <g id="patch_20">
    <path d="M 207.772045 250.112 
L 216.136364 250.112 
L 216.136364 236.33648 
L 207.772045 236.33648 
z
" clip-path="url(#p44734a23a5)" style="fill: #26828e"/>
   </g>
   <g id="patch_21">
    <path d="M 216.136364 250.112 
L 224.500682 250.112 
L 224.500682 219.805856 
L 216.136364 219.805856 
z
" clip-path="url(#p44734a23a5)" style="fill: #24878e"/>
   </g>
   <g id="patch_22">
    <path d="M 224.500682 250.112 
L 232.865 250.112 
L 232.865 147.254784 
L 224.500682 147.254784 
z
" clip-path="url(#p44734a23a5)" style="fill: #218e8d"/>
   </g>
   <g id="patch_23">
    <path d="M 232.865 250.112 
L 241.229318 250.112 
L 241.229318 49.907776 
L 232.865 49.907776 
z
" clip-path="url(#p44734a23a5)" style="fill: #20938c"/>
   </g>
   <g id="patch_24">
    <path d="M 241.229318 250.112 
L 249.593636 250.112 
L 249.593636 46.234304 
L 241.229318 46.234304 
z
" clip-path="url(#p44734a23a5)" style="fill: #1f998a"/>
   </g>
   <g id="patch_25">
    <path d="M 249.593636 250.112 
L 257.957955 250.112 
L 257.957955 78.377184 
L 249.593636 78.377184 
z
" clip-path="url(#p44734a23a5)" style="fill: #1fa088"/>
   </g>
   <g id="patch_26">
    <path d="M 257.957955 250.112 
L 266.322273 250.112 
L 266.322273 123.377216 
L 257.957955 123.377216 
z
" clip-path="url(#p44734a23a5)" style="fill: #21a585"/>
   </g>
   <g id="patch_27">
    <path d="M 266.322273 250.112 
L 274.686591 250.112 
L 274.686591 127.050688 
L 266.322273 127.050688 
z
" clip-path="url(#p44734a23a5)" style="fill: #25ac82"/>
   </g>
   <g id="patch_28">
    <path d="M 274.686591 250.112 
L 283.050909 250.112 
L 283.050909 185.82624 
L 274.686591 185.82624 
z
" clip-path="url(#p44734a23a5)" style="fill: #2cb17e"/>
   </g>
   <g id="patch_29">
    <path d="M 283.050909 250.112 
L 291.415227 250.112 
L 291.415227 232.663008 
L 283.050909 232.663008 
z
" clip-path="url(#p44734a23a5)" style="fill: #34b679"/>
   </g>
   <g id="patch_30">
    <path d="M 291.415227 250.112 
L 299.779545 250.112 
L 299.779545 191.336448 
L 291.415227 191.336448 
z
" clip-path="url(#p44734a23a5)" style="fill: #3fbc73"/>
   </g>
   <g id="patch_31">
    <path d="M 299.779545 250.112 
L 308.143864 250.112 
L 308.143864 176.64256 
L 299.779545 176.64256 
z
" clip-path="url(#p44734a23a5)" style="fill: #4ac16d"/>
   </g>
   <g id="patch_32">
    <path d="M 308.143864 250.112 
L 316.508182 250.112 
L 316.508182 91.234336 
L 308.143864 91.234336 
z
" clip-path="url(#p44734a23a5)" style="fill: #58c765"/>
   </g>
   <g id="patch_33">
    <path d="M 316.508182 250.112 
L 324.8725 250.112 
L 324.8725 136.234368 
L 316.508182 136.234368 
z
" clip-path="url(#p44734a23a5)" style="fill: #65cb5e"/>
   </g>
   <g id="patch_34">
    <path d="M 324.8725 250.112 
L 333.236818 250.112 
L 333.236818 232.663008 
L 324.8725 232.663008 
z
" clip-path="url(#p44734a23a5)" style="fill: #73d056"/>
   </g>
   <g id="patch_35">
    <path d="M 333.236818 250.112 
L 341.601136 250.112 
L 341.601136 246.438528 
L 333.236818 246.438528 
z
" clip-path="url(#p44734a23a5)" style="fill: #84d44b"/>
   </g>
   <g id="patch_36">
    <path d="M 341.601136 250.112 
L 349.965455 250.112 
L 349.965455 250.112 
L 341.601136 250.112 
z
" clip-path="url(#p44734a23a5)" style="fill: #93d741"/>
   </g>
   <g id="patch_37">
    <path d="M 349.965455 250.112 
L 358.329773 250.112 
L 358.329773 250.112 
L 349.965455 250.112 
z
" clip-path="url(#p44734a23a5)" style="fill: #a5db36"/>
   </g>
   <g id="patch_38">
    <path d="M 358.329773 250.112 
L 366.694091 250.112 
L 366.694091 250.112 
L 358.329773 250.112 
z
" clip-path="url(#p44734a23a5)" style="fill: #b5de2b"/>
   </g>
   <g id="patch_39">
    <path d="M 366.694091 250.112 
L 375.058409 250.112 
L 375.058409 250.112 
L 366.694091 250.112 
z
" clip-path="url(#p44734a23a5)" style="fill: #c5e021"/>
   </g>
   <g id="patch_40">
    <path d="M 375.058409 250.112 
L 383.422727 250.112 
L 383.422727 250.112 
L 375.058409 250.112 
z
" clip-path="url(#p44734a23a5)" style="fill: #d8e219"/>
   </g>
   <g id="patch_41">
    <path d="M 383.422727 250.112 
L 391.787045 250.112 
L 391.787045 37.050624 
L 383.422727 37.050624 
z
" clip-path="url(#p44734a23a5)" style="fill: #e7e419"/>
   </g>
   <g id="patch_42">
    <path d="M 391.787045 250.112 
L 400.151364 250.112 
L 400.151364 198.683392 
L 391.787045 198.683392 
z
" clip-path="url(#p44734a23a5)" style="fill: #f8e621"/>
   </g>
   <g id="matplotlib.axis_1">
    <g id="xtick_1">
     <g id="line2d_1">
      <defs>
       <path id="m63a786daad" d="M 0 0 
L 0 3.5 
" style="stroke: #000000; stroke-width: 0.8"/>
      </defs>
      <g>
       <use xlink:href="#m63a786daad" x="107.400227" y="250.112" style="stroke: #000000; stroke-width: 0.8"/>
      </g>
     </g>
     <g id="text_1">
      <!-- $\mathdefault{10^{-7}}$ -->
      <g transform="translate(90.950227 267.749813) scale(0.14 -0.14)">
       <defs>
        <path id="DejaVuSans-31" d="M 794 531 
L 1825 531 
L 1825 4091 
L 703 3866 
L 703 4441 
L 1819 4666 
L 2450 4666 
L 2450 531 
L 3481 531 
L 3481 0 
L 794 0 
L 794 531 
z
" transform="scale(0.015625)"/>
        <path id="DejaVuSans-30" d="M 2034 4250 
Q 1547 4250 1301 3770 
Q 1056 3291 1056 2328 
Q 1056 1369 1301 889 
Q 1547 409 2034 409 
Q 2525 409 2770 889 
Q 3016 1369 3016 2328 
Q 3016 3291 2770 3770 
Q 2525 4250 2034 4250 
z
M 2034 4750 
Q 2819 4750 3233 4129 
Q 3647 3509 3647 2328 
Q 3647 1150 3233 529 
Q 2819 -91 2034 -91 
Q 1250 -91 836 529 
Q 422 1150 422 2328 
Q 422 3509 836 4129 
Q 1250 4750 2034 4750 
z
" transform="scale(0.015625)"/>
        <path id="DejaVuSans-2212" d="M 678 2272 
L 4684 2272 
L 4684 1741 
L 678 1741 
L 678 2272 
z
" transform="scale(0.015625)"/>
        <path id="DejaVuSans-37" d="M 525 4666 
L 3525 4666 
L 3525 4397 
L 1831 0 
L 1172 0 
L 2766 4134 
L 525 4134 
L 525 4666 
z
" transform="scale(0.015625)"/>
       </defs>
       <use xlink:href="#DejaVuSans-31" transform="translate(0 0.684375)"/>
       <use xlink:href="#DejaVuSans-30" transform="translate(63.623047 0.684375)"/>
       <use xlink:href="#DejaVuSans-2212" transform="translate(128.203125 38.965625) scale(0.7)"/>
       <use xlink:href="#DejaVuSans-37" transform="translate(186.855469 38.965625) scale(0.7)"/>
      </g>
     </g>
    </g>
    <g id="xtick_2">
     <g id="line2d_2">
      <g>
       <use xlink:href="#m63a786daad" x="191.043409" y="250.112" style="stroke: #000000; stroke-width: 0.8"/>
      </g>
     </g>
     <g id="text_2">
      <!-- $\mathdefault{10^{-5}}$ -->
      <g transform="translate(174.593409 267.749813) scale(0.14 -0.14)">
       <defs>
        <path id="DejaVuSans-35" d="M 691 4666 
L 3169 4666 
L 3169 4134 
L 1269 4134 
L 1269 2991 
Q 1406 3038 1543 3061 
Q 1681 3084 1819 3084 
Q 2600 3084 3056 2656 
Q 3513 2228 3513 1497 
Q 3513 744 3044 326 
Q 2575 -91 1722 -91 
Q 1428 -91 1123 -41 
Q 819 9 494 109 
L 494 744 
Q 775 591 1075 516 
Q 1375 441 1709 441 
Q 2250 441 2565 725 
Q 2881 1009 2881 1497 
Q 2881 1984 2565 2268 
Q 2250 2553 1709 2553 
Q 1456 2553 1204 2497 
Q 953 2441 691 2322 
L 691 4666 
z
" transform="scale(0.015625)"/>
       </defs>
       <use xlink:href="#DejaVuSans-31" transform="translate(0 0.684375)"/>
       <use xlink:href="#DejaVuSans-30" transform="translate(63.623047 0.684375)"/>
       <use xlink:href="#DejaVuSans-2212" transform="translate(128.203125 38.965625) scale(0.7)"/>
       <use xlink:href="#DejaVuSans-35" transform="translate(186.855469 38.965625) scale(0.7)"/>
      </g>
     </g>
    </g>
    <g id="xtick_3">
     <g id="line2d_3">
      <g>
       <use xlink:href="#m63a786daad" x="274.686591" y="250.112" style="stroke: #000000; stroke-width: 0.8"/>
      </g>
     </g>
     <g id="text_3">
      <!-- $\mathdefault{10^{-3}}$ -->
      <g transform="translate(258.236591 267.749813) scale(0.14 -0.14)">
       <defs>
        <path id="DejaVuSans-33" d="M 2597 2516 
Q 3050 2419 3304 2112 
Q 3559 1806 3559 1356 
Q 3559 666 3084 287 
Q 2609 -91 1734 -91 
Q 1441 -91 1130 -33 
Q 819 25 488 141 
L 488 750 
Q 750 597 1062 519 
Q 1375 441 1716 441 
Q 2309 441 2620 675 
Q 2931 909 2931 1356 
Q 2931 1769 2642 2001 
Q 2353 2234 1838 2234 
L 1294 2234 
L 1294 2753 
L 1863 2753 
Q 2328 2753 2575 2939 
Q 2822 3125 2822 3475 
Q 2822 3834 2567 4026 
Q 2313 4219 1838 4219 
Q 1578 4219 1281 4162 
Q 984 4106 628 3988 
L 628 4550 
Q 988 4650 1302 4700 
Q 1616 4750 1894 4750 
Q 2613 4750 3031 4423 
Q 3450 4097 3450 3541 
Q 3450 3153 3228 2886 
Q 3006 2619 2597 2516 
z
" transform="scale(0.015625)"/>
       </defs>
       <use xlink:href="#DejaVuSans-31" transform="translate(0 0.765625)"/>
       <use xlink:href="#DejaVuSans-30" transform="translate(63.623047 0.765625)"/>
       <use xlink:href="#DejaVuSans-2212" transform="translate(128.203125 39.046875) scale(0.7)"/>
       <use xlink:href="#DejaVuSans-33" transform="translate(186.855469 39.046875) scale(0.7)"/>
      </g>
     </g>
    </g>
    <g id="xtick_4">
     <g id="line2d_4">
      <g>
       <use xlink:href="#m63a786daad" x="358.329773" y="250.112" style="stroke: #000000; stroke-width: 0.8"/>
      </g>
     </g>
     <g id="text_4">
      <!-- $\mathdefault{10^{-1}}$ -->
      <g transform="translate(341.879773 267.749813) scale(0.14 -0.14)">
       <use xlink:href="#DejaVuSans-31" transform="translate(0 0.684375)"/>
       <use xlink:href="#DejaVuSans-30" transform="translate(63.623047 0.684375)"/>
       <use xlink:href="#DejaVuSans-2212" transform="translate(128.203125 38.965625) scale(0.7)"/>
       <use xlink:href="#DejaVuSans-31" transform="translate(186.855469 38.965625) scale(0.7)"/>
      </g>
     </g>
    </g>
   </g>
   <g id="matplotlib.axis_2">
    <g id="ytick_1">
     <g id="line2d_5">
      <defs>
       <path id="m68e3271d0c" d="M 0 0 
L -3.5 0 
" style="stroke: #000000; stroke-width: 0.8"/>
      </defs>
      <g>
       <use xlink:href="#m68e3271d0c" x="48.85" y="250.112" style="stroke: #000000; stroke-width: 0.8"/>
      </g>
     </g>
     <g id="text_5">
      <!-- 0 -->
      <g transform="translate(32.9425 255.430906) scale(0.14 -0.14)">
       <use xlink:href="#DejaVuSans-30"/>
      </g>
     </g>
    </g>
    <g id="ytick_2">
     <g id="line2d_6">
      <g>
       <use xlink:href="#m68e3271d0c" x="48.85" y="204.1936" style="stroke: #000000; stroke-width: 0.8"/>
      </g>
     </g>
     <g id="text_6">
      <!-- 50 -->
      <g transform="translate(24.035 209.512506) scale(0.14 -0.14)">
       <use xlink:href="#DejaVuSans-35"/>
       <use xlink:href="#DejaVuSans-30" x="63.623047"/>
      </g>
     </g>
    </g>
    <g id="ytick_3">
     <g id="line2d_7">
      <g>
       <use xlink:href="#m68e3271d0c" x="48.85" y="158.2752" style="stroke: #000000; stroke-width: 0.8"/>
      </g>
     </g>
     <g id="text_7">
      <!-- 100 -->
      <g transform="translate(15.1275 163.594106) scale(0.14 -0.14)">
       <use xlink:href="#DejaVuSans-31"/>
       <use xlink:href="#DejaVuSans-30" x="63.623047"/>
       <use xlink:href="#DejaVuSans-30" x="127.246094"/>
      </g>
     </g>
    </g>
    <g id="ytick_4">
     <g id="line2d_8">
      <g>
       <use xlink:href="#m68e3271d0c" x="48.85" y="112.3568" style="stroke: #000000; stroke-width: 0.8"/>
      </g>
     </g>
     <g id="text_8">
      <!-- 150 -->
      <g transform="translate(15.1275 117.675706) scale(0.14 -0.14)">
       <use xlink:href="#DejaVuSans-31"/>
       <use xlink:href="#DejaVuSans-35" x="63.623047"/>
       <use xlink:href="#DejaVuSans-30" x="127.246094"/>
      </g>
     </g>
    </g>
    <g id="ytick_5">
     <g id="line2d_9">
      <g>
       <use xlink:href="#m68e3271d0c" x="48.85" y="66.4384" style="stroke: #000000; stroke-width: 0.8"/>
      </g>
     </g>
     <g id="text_9">
      <!-- 200 -->
      <g transform="translate(15.1275 71.757306) scale(0.14 -0.14)">
       <defs>
        <path id="DejaVuSans-32" d="M 1228 531 
L 3431 531 
L 3431 0 
L 469 0 
L 469 531 
Q 828 903 1448 1529 
Q 2069 2156 2228 2338 
Q 2531 2678 2651 2914 
Q 2772 3150 2772 3378 
Q 2772 3750 2511 3984 
Q 2250 4219 1831 4219 
Q 1534 4219 1204 4116 
Q 875 4013 500 3803 
L 500 4441 
Q 881 4594 1212 4672 
Q 1544 4750 1819 4750 
Q 2544 4750 2975 4387 
Q 3406 4025 3406 3419 
Q 3406 3131 3298 2873 
Q 3191 2616 2906 2266 
Q 2828 2175 2409 1742 
Q 1991 1309 1228 531 
z
" transform="scale(0.015625)"/>
       </defs>
       <use xlink:href="#DejaVuSans-32"/>
       <use xlink:href="#DejaVuSans-30" x="63.623047"/>
       <use xlink:href="#DejaVuSans-30" x="127.246094"/>
      </g>
     </g>
    </g>
    <g id="ytick_6">
     <g id="line2d_10">
      <g>
       <use xlink:href="#m68e3271d0c" x="48.85" y="20.52" style="stroke: #000000; stroke-width: 0.8"/>
      </g>
     </g>
     <g id="text_10">
      <!-- 250 -->
      <g transform="translate(15.1275 25.838906) scale(0.14 -0.14)">
       <use xlink:href="#DejaVuSans-32"/>
       <use xlink:href="#DejaVuSans-35" x="63.623047"/>
       <use xlink:href="#DejaVuSans-30" x="127.246094"/>
      </g>
     </g>
    </g>
   </g>
   <g id="patch_43">
    <path d="M 48.85 250.112 
L 48.85 20.52 
" style="fill: none; stroke: #000000; stroke-width: 0.8; stroke-linejoin: miter; stroke-linecap: square"/>
   </g>
   <g id="patch_44">
    <path d="M 416.88 250.112 
L 416.88 20.52 
" style="fill: none; stroke: #000000; stroke-width: 0.8; stroke-linejoin: miter; stroke-linecap: square"/>
   </g>
   <g id="patch_45">
    <path d="M 48.85 250.112 
L 416.88 250.112 
" style="fill: none; stroke: #000000; stroke-width: 0.8; stroke-linejoin: miter; stroke-linecap: square"/>
   </g>
   <g id="patch_46">
    <path d="M 48.85 20.52 
L 416.88 20.52 
" style="fill: none; stroke: #000000; stroke-width: 0.8; stroke-linejoin: miter; stroke-linecap: square"/>
   </g>
  </g>
 </g>
 <defs>
  <clipPath id="p44734a23a5">
   <rect x="48.85" y="20.52" width="368.03" height="229.592"/>
  </clipPath>
 </defs>
</svg>
